<svg width="29" height="28" viewBox="0 0 29 28" fill="none" xmlns="http://www.w3.org/2000/svg">
<path d="M6.33365 10.3735C4.71427 8.32993 4.52795 5.05224 5.96922 2.86901C7.41049 0.68578 10.3013 -0.32888 12.718 0.506219C13.6113 0.814038 14.4196 1.33847 15.2991 1.68049C13.5702 2.08521 12.2494 3.10557 10.9616 4.3739C9.67378 5.63937 8.84902 7.49483 9.06549 9.32464C9.08193 9.46145 9.10111 9.61536 9.02165 9.72936C8.91479 9.88612 8.69558 9.86617 8.512 9.86617C7.37213 9.86617 6.9118 9.97163 6.33365 10.3764V10.3735Z" fill="url(#paint0_radial_54_359)"/>
<mask id="mask0_54_359" style="mask-type:luminance" maskUnits="userSpaceOnUse" x="4" y="0" width="12" height="11">
<path d="M6.33365 10.3735C4.71427 8.32993 4.52795 5.05224 5.96922 2.86901C7.41049 0.68578 10.3013 -0.32888 12.718 0.506219C13.6113 0.814038 14.4196 1.33847 15.2991 1.68049C13.5702 2.08521 12.2494 3.10557 10.9616 4.3739C9.67378 5.63937 8.84902 7.49483 9.06549 9.32464C9.08193 9.46145 9.10111 9.61536 9.02165 9.72936C8.91479 9.88612 8.69558 9.86617 8.512 9.86617C7.37213 9.86617 6.9118 9.97163 6.33365 10.3764V10.3735Z" fill="white"/>
</mask>
<g mask="url(#mask0_54_359)">
<g style="mix-blend-mode:multiply">
<path d="M9.35316 8.5004C6.83778 7.41164 5.09784 7.01261 2.47286 8.03012L2.41806 7.97027C3.82919 6.51098 6.13358 6.19746 7.85434 7.23493C8.4325 7.54274 8.97229 7.93892 9.4107 8.4434L9.35316 8.5004Z" fill="#8FAED6"/>
</g>
<g style="mix-blend-mode:multiply">
<path d="M10.0135 6.93863C8.45719 4.29083 5.95551 3.41013 3.17435 2.79734L3.16339 2.71469C5.32804 2.36697 7.78313 2.97975 9.17234 4.84661C9.63541 5.448 9.96696 6.16339 10.093 6.92438L10.0135 6.94148V6.93863Z" fill="#8FAED6"/>
</g>
<g style="mix-blend-mode:multiply">
<path d="M11.1095 4.98943C10.7013 3.6014 10.1615 2.43568 9.24083 1.43812C8.32017 0.42061 7.09262 -0.226377 6.04591 -1.21254L6.07605 -1.28949C8.07904 -0.591199 10.2574 0.523217 10.9369 2.7777C11.1781 3.48739 11.2685 4.25123 11.1918 4.99513L11.1123 4.98658L11.1095 4.98943Z" fill="#8FAED6"/>
</g>
<g style="mix-blend-mode:multiply">
<path d="M12.7728 3.3676C12.5481 2.27314 12.2577 1.11312 12.1563 -0.00414252C12.1289 -0.403166 12.1043 -0.82784 12.1919 -1.32377L12.2632 -1.35797C12.9811 0.0642614 13.5565 1.85987 12.8413 3.40466L12.7674 3.37045L12.7728 3.3676Z" fill="#8FAED6"/>
</g>
</g>
<path d="M10.9944 7.9418L8.60781 7.64539L4.00176 13.3229C4.00176 13.3229 4.34153 14.329 4.22919 14.862C4.11685 15.395 0.30542 21.0697 0.30542 21.0697C0.30542 21.0697 0.538325 21.3803 0.73561 22.4663C0.932894 23.5522 0.590386 24.3217 1.61517 24.9146C2.63721 25.5045 1.90014 26.1572 3.88942 25.3877L5.87871 24.6181C5.87871 24.6181 5.87871 24.2049 6.84595 24.145C7.81319 24.0852 8.15296 23.8486 8.95031 25.5644C9.74493 27.2802 9.51751 26.5705 9.51751 26.5705C9.51751 26.5705 12.5316 25.7411 14.2934 23.555C16.0553 21.3661 16.3403 17.4044 15.9978 15.2154C15.658 13.0265 15.1456 11.9634 14.3482 10.8404C13.5509 9.71746 10.9944 7.9418 10.9944 7.9418Z" fill="url(#paint1_radial_54_359)"/>
<path d="M8.78333 9.5838C8.78333 9.5838 9.82455 5.86718 13.0606 3.90341C16.5404 1.79144 20.5601 1.92539 23.8208 3.88916C27.0815 5.85293 29.5749 9.91726 28.8844 14.2096C28.2487 18.1542 25.3388 21.3863 22.8946 21.6571C19.2641 22.0618 16.4774 21.2951 14.8279 18.2483C13.6935 16.1506 14.3922 13.5911 15.554 12.3599C16.7158 11.1286 18.5763 10.6042 19.8148 11.1685C20.9519 11.6872 21.1191 12.5081 21.1191 12.5081C21.1191 12.5081 18.653 11.4849 17.6748 12.984C16.7295 14.4319 16.9624 15.3411 17.8913 15.7886C18.8339 16.2418 20.2888 15.6974 20.9821 14.6884C21.8178 13.4714 21.5328 11.7271 20.5766 10.9775C18.5955 9.42419 14.6745 10.6811 14.6745 10.6811C14.6745 10.6811 13.5949 9.56669 11.5426 9.74625C9.43272 9.92867 9.20804 10.265 9.20804 10.265L8.78333 9.5838Z" fill="url(#paint2_radial_54_359)"/>
<mask id="mask1_54_359" style="mask-type:luminance" maskUnits="userSpaceOnUse" x="8" y="2" width="21" height="20">
<path d="M8.78333 9.5838C8.78333 9.5838 9.82455 5.86718 13.0606 3.90341C16.5404 1.79144 20.5601 1.92539 23.8208 3.88916C27.0815 5.85293 29.5749 9.91726 28.8844 14.2096C28.2487 18.1542 25.3388 21.3863 22.8946 21.6571C19.2641 22.0618 16.4774 21.2951 14.8279 18.2483C13.6935 16.1506 14.3922 13.5911 15.554 12.3599C16.7158 11.1286 18.5763 10.6042 19.8148 11.1685C20.9519 11.6872 21.1191 12.5081 21.1191 12.5081C21.1191 12.5081 18.653 11.4849 17.6748 12.984C16.7295 14.4319 16.9624 15.3411 17.8913 15.7886C18.8339 16.2418 20.2888 15.6974 20.9821 14.6884C21.8178 13.4714 21.5328 11.7271 20.5766 10.9775C18.5955 9.42419 14.6745 10.6811 14.6745 10.6811C14.6745 10.6811 13.5949 9.56669 11.5426 9.74625C9.43272 9.92867 9.20804 10.265 9.20804 10.265L8.78333 9.5838Z" fill="white"/>
</mask>
<g mask="url(#mask1_54_359)">
<g style="mix-blend-mode:multiply">
<path d="M13.814 2.10217C16.4938 3.56716 18.2009 8.48085 16.5924 11.237C16.9706 10.4845 17.0802 9.62662 17.0172 8.80007C16.7842 6.43443 15.5951 3.88353 13.4578 2.84892L13.814 2.10502V2.10217Z" fill="#8FAED6"/>
</g>
<g style="mix-blend-mode:multiply">
<path d="M11.2083 3.8407C13.7237 5.28858 15.2663 8.1644 15.2088 10.9889C15.0006 8.1701 13.2086 5.63345 10.8548 4.58744L11.2083 3.8407Z" fill="#8FAED6"/>
</g>
<g style="mix-blend-mode:multiply">
<path d="M20.1354 13.0721C20.0888 11.9777 18.9928 11.154 18.0776 10.7635C17.7241 10.6295 17.335 10.5697 16.9487 10.6438C17.7104 10.3502 18.5736 10.6067 19.2723 10.983C20.0313 11.3934 20.7656 12.0233 20.9327 12.9866L20.1354 13.0721Z" fill="#8FAED6"/>
</g>
<g style="mix-blend-mode:multiply">
<path d="M18.8037 13.3687C18.4475 13.0837 17.8995 12.9725 17.335 12.8642C16.7733 12.7531 16.2226 12.6504 15.6664 12.6447C14.5183 12.582 13.4907 13.1948 12.5756 13.8703C13.0085 13.477 13.4496 13.0894 13.9593 12.7816C14.9759 12.1289 16.2664 12.146 17.4118 12.2457C17.9735 12.2942 18.6119 12.3056 19.2366 12.6704L18.801 13.3687H18.8037Z" fill="#8FAED6"/>
</g>
<g style="mix-blend-mode:multiply">
<path d="M18.4557 14.7167C16.6582 14.6369 14.7484 15.7114 13.8031 17.4956C14.5046 15.5946 16.3185 14.1039 18.4283 13.8845L18.4557 14.7167Z" fill="#8FAED6"/>
</g>
<g style="mix-blend-mode:multiply">
<path d="M19.1106 15.615C16.6336 17.194 15.8993 20.8223 17.5159 23.3817C15.576 20.8365 16.1157 16.8976 18.6503 14.9338L19.1079 15.615H19.1106Z" fill="#8FAED6"/>
</g>
<g style="mix-blend-mode:multiply">
<path d="M20.1381 15.3642C19.1818 17.308 19.9655 19.9843 21.1985 21.663C21.6561 22.2701 22.2096 22.8117 22.837 23.2449C22.1739 22.8687 21.5684 22.3784 21.045 21.797C19.9956 20.6142 19.3051 19.0893 19.127 17.4761C19.0448 16.6325 19.0558 15.7603 19.4339 14.9651L20.1353 15.367L20.1381 15.3642Z" fill="#8FAED6"/>
</g>
<g style="mix-blend-mode:multiply">
<path d="M20.834 14.4744C21.7109 17.8547 25.2099 20.0779 28.5528 19.3995C25.1277 20.3914 21.2697 18.2623 20.075 14.7366L20.8368 14.4773L20.834 14.4744Z" fill="#8FAED6"/>
</g>
<g style="mix-blend-mode:multiply">
<path d="M21.3164 13.3259C23.5851 15.1158 26.8677 14.6427 29.1091 12.9982C29.8982 12.4452 30.6161 11.7754 31.2573 11.0287C30.6682 11.8182 29.9914 12.545 29.2269 13.1663C27.687 14.4318 25.7142 15.1985 23.7221 15.0104C22.722 14.922 21.7191 14.5999 20.8533 14.0071L21.3164 13.3259Z" fill="#8FAED6"/>
</g>
<g style="mix-blend-mode:multiply">
<path d="M21.3026 11.8526C23.0645 12.4967 25.1332 12.3171 26.8102 11.3281C28.4871 10.342 29.7502 8.55491 30.1503 6.52844C29.6132 10.9234 25.1963 13.8847 21.0643 12.6449L21.3026 11.8497V11.8526Z" fill="#8FAED6"/>
</g>
<g style="mix-blend-mode:multiply">
<path d="M20.5409 10.8324C21.2835 10.7982 22.0507 10.1512 22.6426 9.66955C24.6483 7.91099 25.8292 5.21189 25.7416 2.45007C26.0402 5.23184 24.9935 8.16466 23.0453 10.1313C22.3137 10.8068 21.6424 11.5108 20.5902 11.6618L20.5409 10.8296V10.8324Z" fill="#8FAED6"/>
</g>
<g style="mix-blend-mode:multiply">
<path d="M19.1736 10.3447C21.3684 8.74863 21.8233 5.61344 21.7164 3.00269C21.6643 2.07068 21.5328 1.14438 21.3383 0.226624C21.5958 1.12728 21.7959 2.04503 21.9137 2.98274C22.1466 4.86385 22.0343 6.86181 21.3575 8.64317C20.9793 9.54952 20.4149 10.3789 19.6449 11.0174L19.1736 10.3447Z" fill="#8FAED6"/>
</g>
<g style="mix-blend-mode:multiply">
<path d="M17.6666 10.1736C19.3216 7.13251 18.9024 3.26768 16.8364 0.525818C18.538 2.48388 19.4888 5.2571 19.1052 7.92485C18.9873 8.82266 18.738 9.70336 18.3873 10.5385L17.6666 10.1736Z" fill="#8FAED6"/>
</g>
<g style="mix-blend-mode:multiply">
<path d="M13.6113 11.2114C13.4935 10.3991 12.6632 9.73785 11.9946 9.26472C11.2439 8.70609 10.4602 8.20731 9.52859 8.08475C8.9203 7.97645 8.27912 7.928 7.68727 7.71423C8.61341 7.93655 9.57243 7.77124 10.5041 8.0192C11.1288 8.18451 11.7015 8.50943 12.2577 8.82295C13.14 9.31888 14.0935 9.93736 14.3922 11.0233L13.6113 11.2114Z" fill="#8FAED6"/>
</g>
</g>
<path d="M15.3567 8.1046C15.8636 7.88229 16.3924 7.69133 16.8527 7.37781L16.5897 9.24182C16.5185 9.73775 16.45 10.2365 16.3075 10.7154C15.9787 11.8269 15.2608 12.8102 14.3154 13.4373C14.4881 13.3233 14.0825 11.8526 14.0277 11.6502C13.9044 11.2027 13.6112 10.7553 13.5427 10.2964C13.3756 9.19051 14.5374 8.46372 15.3539 8.10175L15.3567 8.1046Z" fill="url(#paint3_radial_54_359)"/>
<path d="M8.9422 15.7058C9.27375 15.3096 9.60255 14.9106 9.9341 14.5144C10.0245 14.4061 10.1232 14.2921 10.2574 14.2522C10.367 14.2208 10.4849 14.2465 10.5972 14.2721C11.2384 14.4175 11.8795 14.5657 12.518 14.7111C12.3837 14.7196 12.2166 14.7966 12.0823 14.8051C12.0056 14.8963 11.9289 14.9875 11.8494 15.0787C11.759 15.1842 11.6686 15.2925 11.5617 15.3809C11.3069 15.5889 10.9671 15.6716 10.6438 15.6459C10.3205 15.6231 10.0081 15.4977 9.72312 15.3324C9.46829 15.4635 9.19703 15.5747 8.9422 15.7058Z" fill="#27292D"/>
<path d="M11.7507 14.7283C11.6 15.0077 11.337 15.2157 11.0438 15.3126C10.7506 15.4095 10.4273 15.3953 10.1341 15.2898C9.98064 15.2357 9.83268 15.1559 9.72034 15.0362C9.8409 14.697 10.1779 14.4519 10.5232 14.4376C10.6355 14.4348 10.7451 14.4519 10.8547 14.4718C11.1534 14.5317 11.4712 14.6086 11.7507 14.7255V14.7283Z" fill="url(#paint4_radial_54_359)"/>
<path d="M10.6081 14.845C10.6903 14.959 10.8273 15.0103 10.9589 15.0103C11.0027 15.0103 11.0466 15.0046 11.0877 14.9847C11.1233 14.9676 11.1534 14.9419 11.1781 14.9134C11.2329 14.8536 11.2712 14.7709 11.2658 14.6882C11.2575 14.6084 11.2082 14.5372 11.1479 14.4916C11.0877 14.446 11.0164 14.4232 10.9452 14.4004C10.8356 14.3633 10.6739 14.2892 10.5944 14.4203C10.5205 14.54 10.5287 14.7367 10.6081 14.845Z" fill="#27292D"/>
<path d="M11.3317 14.8312C11.3317 14.9139 11.2687 14.9795 11.1919 14.9795C11.1151 14.9795 11.052 14.9139 11.052 14.8312C11.052 14.7485 11.1151 14.6829 11.1919 14.6829C11.2687 14.6829 11.3317 14.7485 11.3317 14.8312Z" fill="white"/>
<path d="M0.70556 22.0106C1.03437 22.2386 1.30015 22.5607 1.47004 22.9312C1.4673 22.5179 1.71938 22.1417 2.02627 21.8767C2.33316 21.6116 2.69758 21.432 3.02913 21.2012C3.12229 21.1356 3.22368 21.0387 3.19628 20.9276C3.41 21.1755 3.4374 21.5774 3.25656 21.8539C3.06749 22.1446 2.71951 22.2586 2.40714 22.3868C2.09477 22.5151 1.76048 22.7203 1.69198 23.0623C1.66184 23.2048 1.6865 23.353 1.7139 23.4984C1.74952 23.678 1.79336 23.8575 1.88653 24.0114C2.12491 24.3962 2.61264 24.5159 3.05379 24.5216C4.38272 24.5359 5.64863 23.8062 6.54737 22.7887C6.61587 22.8571 6.56655 22.9768 6.51175 23.0566C6.13362 23.6181 5.58561 24.0428 4.9828 24.3135C4.37998 24.5872 3.71963 24.7126 3.06201 24.7411C2.74143 24.7553 2.38248 24.7325 2.15505 24.4931C1.99613 24.5929 1.755 24.5558 1.59334 24.4646C1.37139 24.3421 1.17959 24.1568 1.04259 23.9345C1.03163 23.9145 1.02341 23.8832 1.04259 23.8746C1.22069 23.9345 1.34947 24.0912 1.4947 24.2138C1.63992 24.3392 1.83721 24.4361 2.00983 24.3592C1.82351 24.2252 1.68924 24.0257 1.59882 23.8091C1.5084 23.5925 1.46182 23.3616 1.42346 23.1279C1.20151 22.8885 0.982306 22.6776 0.73296 22.4695C0.754881 22.2557 0.812422 22.193 0.70282 22.0135L0.70556 22.0106Z" fill="#27292D"/>
<path d="M16.6307 24.7809L16.8719 24.3248L17.113 24.7809C17.3404 25.2141 17.6829 25.5675 18.0967 25.8041L18.5351 26.0549L18.0967 26.3057C17.6802 26.5423 17.3404 26.8985 17.113 27.3289L16.8719 27.7849L16.6307 27.3289C16.4033 26.8957 16.0608 26.5423 15.6471 26.3057L15.2086 26.0549L15.6471 25.8041C16.0635 25.5675 16.4033 25.2112 16.6307 24.7809Z" fill="white"/>
<path d="M21.0204 23.7035L21.1519 23.4555L21.2834 23.7035C21.4067 23.94 21.593 24.131 21.8205 24.2621L22.0588 24.3989L21.8205 24.5357C21.593 24.664 21.4094 24.8578 21.2834 25.0944L21.1519 25.3423L21.0204 25.0944C20.8971 24.8578 20.7107 24.6668 20.4833 24.5357L20.2449 24.3989L20.4833 24.2621C20.7107 24.1338 20.8943 23.94 21.0204 23.7035Z" fill="white"/>
<path opacity="0.45" d="M10.704 10.7436C9.54221 11.7754 8.44071 13.0038 7.56937 14.3092C7.55567 14.2864 7.60773 14.3092 7.58581 14.3263C7.56389 14.3434 7.53649 14.3263 7.51183 14.332C6.92545 14.4745 6.38566 14.8137 5.99383 15.2896C5.76641 15.5661 5.47322 15.7998 5.22935 16.0592C5.08961 15.8084 4.88411 15.5946 4.60736 15.5661C4.95535 15.0132 5.11701 14.3348 5.05125 13.6764C5.02933 13.4427 5.03207 13.172 4.88685 12.9953C5.97191 11.8552 6.98025 10.6353 7.90365 9.34705C8.48455 10.3218 9.78334 10.8633 10.852 10.5726C10.7698 10.6581 10.7917 10.6638 10.704 10.7408V10.7436Z" fill="white"/>
<defs>
<radialGradient id="paint0_radial_54_359" cx="0" cy="0" r="1" gradientUnits="userSpaceOnUse" gradientTransform="translate(4.02377 8.39833) scale(19.4298 20.2105)">
<stop offset="0.05" stop-color="#548BEB"/>
<stop offset="0.46" stop-color="#78A1D6"/>
<stop offset="1" stop-color="#8FAED6"/>
</radialGradient>
<radialGradient id="paint1_radial_54_359" cx="0" cy="0" r="1" gradientUnits="userSpaceOnUse" gradientTransform="translate(3.37429 26.0974) scale(26.6745 27.7464)">
<stop offset="0.17" stop-color="#EA8928"/>
<stop offset="0.47" stop-color="#EAA628"/>
<stop offset="0.93" stop-color="#EAA628"/>
</radialGradient>
<radialGradient id="paint2_radial_54_359" cx="0" cy="0" r="1" gradientUnits="userSpaceOnUse" gradientTransform="translate(18.8903 12.0568) rotate(-178.429) scale(9.72476 10.115)">
<stop offset="0.05" stop-color="#548BEB"/>
<stop offset="0.46" stop-color="#78A1D6"/>
<stop offset="1" stop-color="#8FAED6"/>
</radialGradient>
<radialGradient id="paint3_radial_54_359" cx="0" cy="0" r="1" gradientUnits="userSpaceOnUse" gradientTransform="translate(17.0939 4.38228) scale(15.5471 16.1719)">
<stop offset="0.17" stop-color="#EA8928"/>
<stop offset="0.47" stop-color="#EAA628"/>
<stop offset="0.93" stop-color="#EAA628"/>
</radialGradient>
<radialGradient id="paint4_radial_54_359" cx="0" cy="0" r="1" gradientUnits="userSpaceOnUse" gradientTransform="translate(9.84638 14.5032) scale(4.66907 4.85668)">
<stop offset="0.17" stop-color="#EA8928"/>
<stop offset="0.47" stop-color="#EAA628"/>
<stop offset="0.93" stop-color="#EAA628"/>
</radialGradient>
</defs>
</svg>
