<svg width="32" height="32" viewBox="0 0 32 32" fill="none" xmlns="http://www.w3.org/2000/svg">
<path d="M29.1677 2.74767L28.712 2.29553L4.1253 27.0718L4.58092 27.5239L29.1677 2.74767Z" fill="url(#paint0_radial_54_253)"/>
<path d="M27.6205 1.92567L31.3745 0L29.478 3.76705L27.6205 1.92567Z" fill="url(#paint1_radial_54_253)"/>
<path d="M22.534 3.0604C21.743 2.90155 20.5986 2.7816 18.4914 3.19008C16.3874 3.59531 14.0014 4.91475 12.7208 5.17734C11.4403 5.43993 10.9378 4.59056 10.873 4.04269C10.8632 3.80279 10.9184 3.57586 11.0675 3.37486C11.4371 2.95018 11.8423 2.94369 12.0725 3.122C11.8196 3.08634 11.5538 3.20953 11.4208 3.42673C11.2879 3.64394 11.2912 3.93571 11.4371 4.14643C11.5797 4.35715 11.852 4.47061 12.1016 4.42199C12.173 4.40902 12.241 4.38308 12.3026 4.34742C12.361 4.31176 12.4096 4.26313 12.455 4.21126C12.5393 4.11725 12.6139 4.01351 12.6592 3.8968C12.7597 3.62773 12.6819 3.31003 12.4809 3.10255C12.2799 2.89831 11.972 2.7816 11.6964 2.82375C11.2199 2.89831 10.9346 3.07013 10.5423 3.68284C10.4061 3.94867 10.3445 4.25017 10.3867 4.55814C10.458 5.07036 10.9897 5.89379 12.2151 5.97484C13.1163 6.03319 16.9936 5.04442 20.2387 5.0347C23.4838 5.02173 24.4045 7.23917 24.4045 7.23917L26.4469 5.18058C26.4469 5.18058 25.1891 3.59207 22.5372 3.0604H22.534Z" fill="url(#paint2_radial_54_253)"/>
<path d="M11.0904 4.63586C11.1067 4.65537 11.1197 4.67813 11.1424 4.69764C11.1294 4.68138 11.1132 4.66188 11.0904 4.63586Z" fill="url(#paint3_radial_54_253)"/>
<path d="M28.5282 9.00927C28.6935 9.79705 28.8199 10.9447 28.4309 13.0519C28.0419 15.1591 26.7387 17.5548 26.489 18.8386C26.2362 20.1192 27.0888 20.6152 27.6367 20.6768C27.8766 20.6832 28.1035 20.6281 28.3045 20.4758C28.7259 20.1029 28.7292 19.6977 28.5509 19.4675C28.5898 19.7204 28.4666 19.9862 28.2526 20.1224C28.0387 20.2586 27.7436 20.2553 27.5329 20.1127C27.3222 19.97 27.2055 19.701 27.2509 19.4481C27.2638 19.3768 27.2865 19.3087 27.3254 19.2471C27.3611 19.1887 27.4097 19.1401 27.4584 19.0915C27.5524 19.0072 27.6561 18.9294 27.7728 18.884C28.0387 18.7835 28.3596 18.8581 28.5671 19.0558C28.7746 19.2536 28.8913 19.5616 28.8524 19.8404C28.781 20.3169 28.6125 20.6022 28.003 21.0009C27.7372 21.1403 27.4357 21.2019 27.1277 21.163C26.6155 21.0982 25.7888 20.5698 25.698 19.3476C25.6332 18.4463 26.5895 14.5626 26.5798 11.3175C26.5668 8.07237 24.3429 7.17113 24.3429 7.17113L26.3853 5.11255C26.3853 5.11255 27.9835 6.35743 28.5347 9.00603L28.5282 9.00927Z" fill="url(#paint4_radial_54_253)"/>
<path d="M27.0406 20.4663C27.0211 20.4501 26.9983 20.4371 26.9788 20.4143C26.995 20.4273 27.0146 20.4436 27.0406 20.4663Z" fill="url(#paint5_radial_54_253)"/>
<path d="M26.1398 20.1579L11.2009 5.33325L11.0456 5.48973L25.9846 20.3144L26.1398 20.1579Z" fill="url(#paint6_radial_54_253)"/>
<path d="M9.10965 22.0382L3.0895 28.1005L0 28.2334L6.41241 21.7692L9.10965 22.0382Z" fill="url(#paint7_radial_54_253)"/>
<path d="M9.56011 22.4889L3.5432 28.5512L3.43622 31.6439L9.84863 25.1796L9.56011 22.4889Z" fill="url(#paint8_radial_54_253)"/>
<path d="M25.2114 5.74788C24.1643 4.94714 22.9356 4.30525 21.6227 4.18206C20.3097 4.05886 19.0713 4.24041 17.7616 4.40574C18.9417 3.81897 20.3551 3.48181 21.7426 3.49154C23.1302 3.49802 24.7608 4.20475 25.7431 5.18055C25.5032 5.44638 25.4254 5.53391 25.2114 5.75112V5.74788Z" fill="#FFD78C"/>
<path d="M8.1827 22.9363L5.61514 22.5797" stroke="#8FAED6" stroke-width="0.32" stroke-miterlimit="10"/>
<path d="M7.90715 23.2118L5.31689 22.8811" stroke="#8FAED6" stroke-width="0.32" stroke-miterlimit="10"/>
<path d="M7.63486 23.4873L5.01868 23.1793" stroke="#8FAED6" stroke-width="0.32" stroke-miterlimit="10"/>
<path d="M7.35934 23.7661L4.72046 23.4808" stroke="#8FAED6" stroke-width="0.32" stroke-miterlimit="10"/>
<path d="M7.08706 24.0417L4.42224 23.7823" stroke="#8FAED6" stroke-width="0.32" stroke-miterlimit="10"/>
<path d="M6.8115 24.3174L4.12399 24.084" stroke="#8FAED6" stroke-width="0.32" stroke-miterlimit="10"/>
<path d="M6.53598 24.596L3.82578 24.3821" stroke="#8FAED6" stroke-width="0.32" stroke-miterlimit="10"/>
<path d="M6.26312 24.8716L3.52374 24.6836" stroke="#8FAED6" stroke-width="0.32" stroke-miterlimit="10"/>
<path d="M5.9876 25.1471L3.22552 24.985" stroke="#8FAED6" stroke-width="0.32" stroke-miterlimit="10"/>
<path d="M5.71528 25.426L2.92728 25.2866" stroke="#8FAED6" stroke-width="0.32" stroke-miterlimit="10"/>
<path d="M5.43976 25.7015L2.62906 25.5848" stroke="#8FAED6" stroke-width="0.32" stroke-miterlimit="10"/>
<path d="M5.16747 25.9771L2.33084 25.8864" stroke="#8FAED6" stroke-width="0.32" stroke-miterlimit="10"/>
<path d="M4.89195 26.2558L2.03262 26.1877" stroke="#8FAED6" stroke-width="0.32" stroke-miterlimit="10"/>
<path d="M4.61964 26.5314L1.73438 26.4893" stroke="#8FAED6" stroke-width="0.32" stroke-miterlimit="10"/>
<path d="M4.34411 26.8071L1.43616 26.7909" stroke="#8FAED6" stroke-width="0.32" stroke-miterlimit="10"/>
<path d="M4.07183 27.0858L1.13794 27.0891" stroke="#8FAED6" stroke-width="0.32" stroke-miterlimit="10"/>
<path d="M3.79627 27.3613L0.839691 27.3905" stroke="#8FAED6" stroke-width="0.32" stroke-miterlimit="10"/>
<path d="M8.65921 23.4094L9.03527 25.9737" stroke="#8FAED6" stroke-width="0.32" stroke-miterlimit="10"/>
<path d="M8.38376 23.6849L8.73712 26.2719" stroke="#8FAED6" stroke-width="0.32" stroke-miterlimit="10"/>
<path d="M8.1077 23.9607L8.43837 26.5736" stroke="#8FAED6" stroke-width="0.32" stroke-miterlimit="10"/>
<path d="M7.83542 24.2361L8.14015 26.875" stroke="#8FAED6" stroke-width="0.32" stroke-miterlimit="10"/>
<path d="M7.56003 24.5116L7.84207 27.1764" stroke="#8FAED6" stroke-width="0.32" stroke-miterlimit="10"/>
<path d="M7.28455 24.7904L7.54065 27.4747" stroke="#8FAED6" stroke-width="0.32" stroke-miterlimit="10"/>
<path d="M7.0123 25.0659L7.24247 27.7761" stroke="#8FAED6" stroke-width="0.32" stroke-miterlimit="10"/>
<path d="M6.73688 25.3416L6.94436 28.0777" stroke="#8FAED6" stroke-width="0.32" stroke-miterlimit="10"/>
<path d="M6.46082 25.6172L6.6456 28.3793" stroke="#8FAED6" stroke-width="0.32" stroke-miterlimit="10"/>
<path d="M6.18857 25.8927L6.34742 28.6807" stroke="#8FAED6" stroke-width="0.32" stroke-miterlimit="10"/>
<path d="M5.91312 26.1716L6.04927 28.9791" stroke="#8FAED6" stroke-width="0.32" stroke-miterlimit="10"/>
<path d="M5.6377 26.4471L5.75116 29.2805" stroke="#8FAED6" stroke-width="0.32" stroke-miterlimit="10"/>
<path d="M5.36539 26.7227L5.45292 29.582" stroke="#8FAED6" stroke-width="0.32" stroke-miterlimit="10"/>
<path d="M5.09 26.9982L5.15483 29.8834" stroke="#8FAED6" stroke-width="0.32" stroke-miterlimit="10"/>
<path d="M4.81458 27.2737L4.85672 30.1816" stroke="#8FAED6" stroke-width="0.32" stroke-miterlimit="10"/>
<path d="M4.53848 27.5525L4.55793 30.4831" stroke="#8FAED6" stroke-width="0.32" stroke-miterlimit="10"/>
<path d="M4.26637 27.8281L4.25989 30.7847" stroke="#8FAED6" stroke-width="0.32" stroke-miterlimit="10"/>
<path d="M10.7562 12.3157L11.0415 11.797L11.3268 12.3157C11.5959 12.8085 12.0011 13.2105 12.4906 13.4795L13.0093 13.7648L12.4906 14.0501C11.9979 14.3192 11.5959 14.7244 11.3268 15.2139L11.0415 15.7326L10.7562 15.2139C10.4872 14.7212 10.0819 14.3192 9.5924 14.0501L9.0737 13.7648L9.5924 13.4795C10.0852 13.2105 10.4872 12.8052 10.7562 12.3157Z" fill="white"/>
<path d="M19.3147 18.7087L19.4703 18.4266L19.6259 18.7087C19.7718 18.9778 19.9923 19.195 20.2614 19.3441L20.5434 19.4997L20.2614 19.6553C19.9923 19.8012 19.7751 20.0216 19.6259 20.2907L19.4703 20.5728L19.3147 20.2907C19.1688 20.0216 18.9484 19.8044 18.6793 19.6553L18.3973 19.4997L18.6793 19.3441C18.9484 19.1982 19.1656 18.9778 19.3147 18.7087Z" fill="white"/>
<defs>
<radialGradient id="paint0_radial_54_253" cx="0" cy="0" r="1" gradientUnits="userSpaceOnUse" gradientTransform="translate(16.6476 14.9086) rotate(44.78) scale(12.3418)">
<stop stop-color="#E17921"/>
<stop offset="0.47" stop-color="#EAA628"/>
<stop offset="0.93" stop-color="#EAA628"/>
</radialGradient>
<radialGradient id="paint1_radial_54_253" cx="0" cy="0" r="1" gradientUnits="userSpaceOnUse" gradientTransform="translate(20.0694 10.0889) rotate(179.78) scale(9.98819 9.98819)">
<stop stop-color="#E17921"/>
<stop offset="0.47" stop-color="#EAA628"/>
<stop offset="0.93" stop-color="#EAA628"/>
</radialGradient>
<radialGradient id="paint2_radial_54_253" cx="0" cy="0" r="1" gradientUnits="userSpaceOnUse" gradientTransform="translate(2.61139 3.43781) rotate(44.78) scale(32.5548)">
<stop stop-color="#E17921"/>
<stop offset="0.47" stop-color="#EAA628"/>
<stop offset="0.93" stop-color="#EAA628"/>
</radialGradient>
<radialGradient id="paint3_radial_54_253" cx="0" cy="0" r="1" gradientUnits="userSpaceOnUse" gradientTransform="translate(2.63952 3.46387) rotate(44.78) scale(32.521)">
<stop stop-color="#E17921"/>
<stop offset="0.47" stop-color="#EAA628"/>
<stop offset="0.93" stop-color="#EAA628"/>
</radialGradient>
<radialGradient id="paint4_radial_54_253" cx="0" cy="0" r="1" gradientUnits="userSpaceOnUse" gradientTransform="translate(28.3023 28.9357) rotate(-135.22) scale(32.5548)">
<stop stop-color="#E17921"/>
<stop offset="0.47" stop-color="#EAA628"/>
<stop offset="0.93" stop-color="#EAA628"/>
</radialGradient>
<radialGradient id="paint5_radial_54_253" cx="0" cy="0" r="1" gradientUnits="userSpaceOnUse" gradientTransform="translate(28.2718 28.9129) rotate(-135.22) scale(32.5375 32.5375)">
<stop stop-color="#E17921"/>
<stop offset="0.47" stop-color="#EAA628"/>
<stop offset="0.93" stop-color="#EAA628"/>
</radialGradient>
<radialGradient id="paint6_radial_54_253" cx="0" cy="0" r="1" gradientUnits="userSpaceOnUse" gradientTransform="translate(4.09896 -1.28504) rotate(44.78) scale(53.6205 53.6205)">
<stop stop-color="#E17921"/>
<stop offset="0.47" stop-color="#EAA628"/>
<stop offset="0.93" stop-color="#EAA628"/>
</radialGradient>
<radialGradient id="paint7_radial_54_253" cx="0" cy="0" r="1" gradientUnits="userSpaceOnUse" gradientTransform="translate(-3.68902 30.576) rotate(44.78) scale(9.16151)">
<stop offset="0.26" stop-color="#78A1D6"/>
<stop offset="0.53" stop-color="#8FAED6"/>
<stop offset="1" stop-color="#B2D2FF"/>
</radialGradient>
<radialGradient id="paint8_radial_54_253" cx="0" cy="0" r="1" gradientUnits="userSpaceOnUse" gradientTransform="translate(1.11806 35.3492) rotate(-135.22) scale(9.16152)">
<stop offset="0.26" stop-color="#78A1D6"/>
<stop offset="0.53" stop-color="#8FAED6"/>
<stop offset="1" stop-color="#B2D2FF"/>
</radialGradient>
</defs>
</svg>
