<svg width="18" height="33" viewBox="0 0 18 33" fill="none" xmlns="http://www.w3.org/2000/svg">
<path d="M8.33284 8.10051C8.35057 8.17731 8.39487 8.26297 8.47167 8.27183C8.48644 8.27183 8.50121 8.27183 8.51007 8.26297C8.52188 8.25411 8.52779 8.23639 8.52779 8.21866C8.5396 8.11824 8.50121 8.01781 8.47758 7.91738C8.43623 7.72835 8.46576 7.52454 8.55733 7.35618C8.60163 7.27348 8.50711 7.2912 8.46872 7.33846C8.4185 7.39753 8.3742 7.48319 8.35057 7.55408C8.29445 7.7313 8.28559 7.92329 8.32989 8.10051H8.33284Z" fill="url(#paint0_radial_54_4669)"/>
<path d="M9.18622 8.10051C9.1685 8.17731 9.12419 8.26297 9.04739 8.27183C9.03262 8.27183 9.01786 8.27183 9.009 8.26297C8.99718 8.25411 8.99127 8.23639 8.99127 8.21866C8.97946 8.11824 9.01786 8.01781 9.04149 7.91738C9.08284 7.72835 9.0533 7.52454 8.96174 7.35618C8.91743 7.27348 9.01195 7.2912 9.05035 7.33846C9.10056 7.39753 9.14487 7.48319 9.1685 7.55408C9.22462 7.7313 9.23348 7.92329 9.18917 8.10051H9.18622Z" fill="url(#paint1_radial_54_4669)"/>
<path d="M15.0063 1.75301C15.2367 2.73069 15.3725 3.73199 15.4139 4.73625C15.4198 4.92234 15.4228 5.11433 15.343 5.28269C15.2633 5.45105 15.0742 5.58101 14.894 5.53375C14.7788 5.50422 14.6932 5.4097 14.6164 5.32109C14.4392 5.12023 14.256 4.91052 14.1792 4.65355C14.0463 4.20163 14.2708 3.71722 14.2383 3.24759C14.2147 2.91972 14.07 2.61549 13.9252 2.32012C13.6978 1.85048 13.4645 1.37198 13.11 0.988002C12.9712 0.834409 12.8028 0.680817 12.7733 0.477011C12.9594 0.453381 13.1277 0.589252 13.2577 0.722168C13.9282 1.40152 14.4008 2.26991 14.6105 3.20033C14.6223 3.25054 14.64 3.30961 14.6902 3.32143C14.7611 3.3362 14.8025 3.24168 14.8113 3.17079C14.9236 2.20197 14.6312 1.19181 14.0197 0.432705C13.9252 0.317511 13.7657 -0.0251187 14.0641 0.00146463C14.2295 0.0162331 14.4392 0.355909 14.5219 0.479965C14.7729 0.863946 14.9029 1.31291 15.0092 1.75301H15.0063Z" fill="url(#paint2_radial_54_4669)"/>
<path opacity="0.1" d="M15.148 5.17636C15.207 5.09661 15.2307 4.99914 15.2513 4.90167C15.3252 4.55904 15.3222 4.19868 15.2425 3.85901C15.2307 4.26367 15.1716 4.66537 15.0357 5.0464C14.9885 5.17931 14.9294 5.31814 14.8201 5.4097C14.8496 5.4097 15.0416 5.32405 15.148 5.17636Z" fill="white"/>
<path d="M13.6822 7.92934C13.5139 8.03863 13.313 8.1361 13.1181 8.0918C12.8818 8.03863 12.7282 7.78757 12.7282 7.54536C12.7282 7.30316 12.8493 7.07572 12.9999 6.88964C13.2244 6.61199 13.5109 6.39637 13.8033 6.19257C14.1341 5.95922 14.4709 5.7377 14.8135 5.52798C15.1679 5.30941 15.162 5.58115 15.103 5.84994C15.0439 6.13349 14.9435 6.40819 14.8135 6.66516C14.5536 7.17615 14.1607 7.61921 13.6793 7.92934H13.6822Z" fill="url(#paint3_radial_54_4669)"/>
<path opacity="0.1" d="M13.0942 7.89372C13.5786 7.85533 14.0157 7.56291 14.32 7.18779C14.6242 6.80972 14.8103 6.35189 14.958 5.89111C14.7483 6.28396 14.5238 6.68271 14.1841 6.96922C13.8444 7.25572 13.4043 7.44772 12.9583 7.41818C12.9701 7.56586 13.0469 7.7549 13.0942 7.89668V7.89372Z" fill="white"/>
<path d="M11.8957 8.64704C11.5029 8.80358 11.0805 8.86266 10.6611 8.91582C10.3864 8.95127 10.0526 8.96013 9.89018 8.7386C9.78976 8.60273 9.78976 8.40779 9.85769 8.25419C9.92563 8.09765 10.0526 7.97655 10.1915 7.87612C10.6434 7.55121 11.2194 7.44488 11.7776 7.42125C11.9873 7.41239 12.2 7.41534 12.3979 7.48032C12.5308 7.52463 12.6785 7.60438 12.7582 7.72253C12.8646 7.87317 12.7789 7.96769 12.6726 8.09765C12.4717 8.34576 12.1911 8.52889 11.8957 8.64704Z" fill="url(#paint4_radial_54_4669)"/>
<path opacity="0.1" d="M12.3537 8.06213C11.8161 8.59085 11.0304 8.85373 10.2831 8.75625C10.1148 8.73262 10.0409 8.53177 9.99365 8.36637C10.0232 8.41953 11.2637 8.54654 12.3537 8.06213Z" fill="white"/>
<path d="M11.6717 16.1138C12.1148 16.9053 12.3806 17.8003 12.4426 18.7042C12.4515 18.8518 12.4131 19.0527 12.2654 19.0586C12.2034 19.0615 12.1443 19.0232 12.097 18.9848C11.8312 18.7603 11.7131 18.4088 11.6126 18.078C11.3763 17.31 11.1607 16.5361 10.9687 15.7564C10.9067 15.5082 10.9599 15.2336 11.2198 15.4846C11.4059 15.6648 11.5476 15.8893 11.6717 16.1138Z" fill="url(#paint5_radial_54_4669)"/>
<path opacity="0.1" d="M12.2681 18.6449C12.277 17.8976 12.0673 17.1474 11.6744 16.5094C11.7305 17.2833 11.958 17.9331 12.2681 18.6449Z" fill="white"/>
<path d="M13.2782 19.05C13.6445 19.2124 13.9487 19.5078 14.123 19.8711C14.1466 19.9213 14.1703 19.9804 14.1496 20.0335C14.1112 20.1399 13.9576 20.1281 13.8483 20.0926C13.3757 19.942 12.7732 19.7234 12.4394 19.3306C12.3419 19.2154 12.2622 18.9968 12.4394 18.92C12.6609 18.8225 13.0744 18.9613 13.2782 19.0529V19.05Z" fill="url(#paint6_radial_54_4669)"/>
<path opacity="0.1" d="M12.8174 19.038C13.29 19.1059 13.7242 19.3954 13.9664 19.806C13.6858 19.6169 12.8735 19.0912 12.7318 19.0498C12.7672 19.0469 12.782 19.0321 12.8145 19.038H12.8174Z" fill="white"/>
<path d="M17.5402 18.8697C17.6052 18.9022 17.5875 19.0026 17.5166 19.0085C17.174 19.0469 16.8225 19.0322 16.4769 19.0617C15.5878 19.1385 14.7283 19.5195 14.0726 20.128C14.1612 19.7588 14.3443 19.428 14.6397 19.1917C15.0178 18.8933 15.4874 18.725 15.9511 18.6246C16.2583 18.5596 16.5744 18.5566 16.8786 18.6246C17.1356 18.6807 17.3246 18.7545 17.5373 18.8668L17.5402 18.8697Z" fill="url(#paint7_radial_54_4669)"/>
<path opacity="0.1" d="M15.3752 19.0173C15.6469 18.7929 15.9925 18.6599 16.344 18.6393C16.6955 18.6186 17.0529 18.7131 17.3512 18.9051C16.666 18.7781 16.0309 18.784 15.3752 19.0173Z" fill="white"/>
<path d="M11.4371 13.3197C11.954 14.067 12.2996 14.9325 12.4443 15.8304C12.468 15.9781 12.4473 16.1789 12.3026 16.1996C12.2405 16.2085 12.1785 16.176 12.1283 16.1405C11.8447 15.9397 11.6941 15.603 11.5612 15.281C11.254 14.5396 10.9704 13.7864 10.7046 13.0273C10.6219 12.7881 10.6485 12.5075 10.9291 12.7349C11.1299 12.8974 11.2924 13.11 11.4371 13.3197Z" fill="url(#paint8_radial_54_4669)"/>
<path opacity="0.1" d="M12.2645 15.786C12.2024 15.0387 11.9248 14.3121 11.4758 13.7155C11.6058 14.4805 11.8893 15.1066 12.2645 15.786Z" fill="white"/>
<path d="M13.3102 16.096C13.6913 16.2231 14.0221 16.4918 14.2259 16.8345C14.2554 16.8817 14.282 16.9379 14.2672 16.994C14.2377 17.1033 14.0841 17.1062 13.9748 17.0826C13.4904 16.9763 12.8701 16.8138 12.5009 16.4534C12.3946 16.3471 12.2942 16.1374 12.4625 16.0429C12.6722 15.9247 13.1005 16.0252 13.3102 16.096Z" fill="url(#paint9_radial_54_4669)"/>
<path opacity="0.1" d="M12.8494 16.1257C13.3249 16.1494 13.7857 16.3975 14.0663 16.7844C13.771 16.622 12.9114 16.1759 12.7667 16.1464C12.7992 16.1405 12.814 16.1257 12.8494 16.1257Z" fill="white"/>
<path d="M17.5365 15.5203C17.6045 15.5468 17.5956 15.6473 17.5247 15.662C17.185 15.7329 16.8365 15.7506 16.4939 15.8127C15.6166 15.9722 14.7925 16.43 14.1989 17.0946C14.255 16.7195 14.4027 16.3739 14.6774 16.111C15.0259 15.7772 15.4778 15.5675 15.9327 15.4257C16.231 15.3312 16.547 15.3017 16.8572 15.3401C17.1201 15.3726 17.315 15.4287 17.5365 15.5203Z" fill="url(#paint10_radial_54_4669)"/>
<path opacity="0.1" d="M15.3918 15.8688C15.6429 15.6207 15.9737 15.4553 16.3223 15.4021C16.6708 15.349 17.0371 15.411 17.3502 15.5734C16.656 15.5085 16.0239 15.5734 15.3918 15.8688Z" fill="white"/>
<path d="M11.4399 11.3674C12.0011 12.0822 12.3998 12.924 12.5977 13.8101C12.6302 13.9548 12.6214 14.1586 12.4766 14.1882C12.4146 14.2 12.3526 14.1734 12.2994 14.1409C12.004 13.9578 11.8327 13.6299 11.6791 13.3168C11.3276 12.5932 10.9968 11.8606 10.6867 11.1193C10.5892 10.8859 10.5981 10.6024 10.8934 10.8121C11.1032 10.9598 11.2774 11.1636 11.4369 11.3644L11.4399 11.3674Z" fill="url(#paint11_radial_54_4669)"/>
<path opacity="0.1" d="M12.4173 13.7774C12.3109 13.036 11.989 12.3271 11.5016 11.76C11.6759 12.5162 12.0008 13.1217 12.4173 13.7774Z" fill="white"/>
<path d="M13.4781 14.0229C13.865 14.1263 14.2106 14.3744 14.438 14.7052C14.4705 14.7525 14.5001 14.8056 14.4883 14.8618C14.4646 14.974 14.311 14.9858 14.2018 14.9681C13.7114 14.8913 13.0823 14.7672 12.6924 14.4305C12.5802 14.333 12.465 14.1292 12.6304 14.0229C12.8342 13.8929 13.2654 13.9668 13.4781 14.0229Z" fill="url(#paint12_radial_54_4669)"/>
<path opacity="0.1" d="M13.0174 14.0819C13.4929 14.076 13.9685 14.2976 14.2727 14.6638C13.9685 14.5191 13.0824 14.1262 12.9376 14.1056C12.9701 14.0967 12.9849 14.0819 13.0174 14.079V14.0819Z" fill="white"/>
<path d="M17.6631 13.1928C17.731 13.2164 17.731 13.3168 17.6631 13.3346C17.3293 13.4261 16.9808 13.4645 16.6441 13.5472C15.7757 13.7599 14.9841 14.2679 14.4318 14.968C14.4643 14.5899 14.5913 14.2354 14.8482 13.9578C15.1761 13.6034 15.6132 13.3671 16.0593 13.1987C16.3517 13.0865 16.6648 13.0362 16.9779 13.0569C17.2407 13.0746 17.4386 13.1189 17.6661 13.1957L17.6631 13.1928Z" fill="url(#paint13_radial_54_4669)"/>
<path opacity="0.1" d="M15.5423 13.6682C15.7786 13.4053 16.0976 13.2193 16.4432 13.1454C16.7888 13.0716 17.155 13.11 17.4799 13.2547C16.7829 13.234 16.1567 13.3374 15.5423 13.6682Z" fill="white"/>
<path d="M10.7408 9.62749C11.2399 10.0056 11.6535 10.4959 11.94 11.0512C11.9872 11.1427 12.0168 11.2786 11.9252 11.3229C11.8868 11.3436 11.8395 11.3347 11.7982 11.3229C11.5678 11.252 11.3965 11.0659 11.2429 10.8828C10.8825 10.4634 10.534 10.0321 10.1973 9.59205C10.0909 9.45322 10.0466 9.26419 10.2829 9.34984C10.4483 9.41187 10.6019 9.51525 10.7408 9.62454V9.62749Z" fill="url(#paint14_radial_54_4669)"/>
<path opacity="0.1" d="M11.813 11.06C11.6122 10.5845 11.2725 10.168 10.8501 9.87561C11.0982 10.3482 11.4202 10.6967 11.813 11.06Z" fill="white"/>
<path d="M12.5636 11.0393C12.8383 11.0393 13.113 11.1456 13.3228 11.3258C13.3523 11.3524 13.3818 11.3819 13.3848 11.4203C13.3907 11.4971 13.2903 11.5326 13.2105 11.5414C12.8708 11.5769 12.4278 11.6035 12.1117 11.4469C12.0202 11.3997 11.9079 11.2845 11.9995 11.187C12.1117 11.0659 12.413 11.0393 12.5666 11.0393H12.5636Z" fill="url(#paint15_radial_54_4669)"/>
<path opacity="0.1" d="M12.2683 11.1603C12.5843 11.0717 12.9388 11.1367 13.2076 11.3287C12.9801 11.2874 12.3215 11.1781 12.221 11.1899C12.2417 11.1781 12.2476 11.1662 12.2713 11.1603H12.2683Z" fill="white"/>
<path d="M15.2067 9.75162C15.257 9.75458 15.2747 9.82251 15.2304 9.84614C15.0236 9.96429 14.7991 10.0529 14.5894 10.1651C14.0489 10.4576 13.6088 10.9361 13.3636 11.5002C13.3193 11.2432 13.343 10.9833 13.4641 10.7529C13.6206 10.4605 13.8717 10.2242 14.1375 10.0352C14.3118 9.90817 14.5126 9.81956 14.7253 9.78116C14.9025 9.74572 15.0443 9.73981 15.2097 9.75162H15.2067Z" fill="url(#paint16_radial_54_4669)"/>
<path opacity="0.1" d="M13.8777 10.4427C13.9899 10.2271 14.1701 10.0469 14.3857 9.93762C14.6013 9.82834 14.8554 9.78994 15.0946 9.82834C14.6279 9.93467 14.2262 10.1148 13.8777 10.4427Z" fill="white"/>
<path d="M2.70969 1.75301C2.4793 2.73069 2.34343 3.73199 2.30208 4.73625C2.29617 4.92234 2.29322 5.11433 2.37297 5.28269C2.45272 5.45105 2.64176 5.58101 2.82193 5.53375C2.93713 5.50422 3.02278 5.4097 3.09958 5.32109C3.2768 5.12023 3.45993 4.91052 3.53673 4.65355C3.66964 4.20163 3.44516 3.71722 3.47765 3.24759C3.50128 2.91972 3.64601 2.61549 3.79075 2.32012C4.01818 1.85048 4.25152 1.37198 4.60597 0.988002C4.74479 0.834409 4.91315 0.680817 4.94269 0.477011C4.75661 0.453381 4.58825 0.589252 4.45828 0.722168C3.78779 1.40152 3.3152 2.26991 3.10549 3.20033C3.09367 3.25054 3.07595 3.30961 3.02574 3.32143C2.95485 3.3362 2.9135 3.24168 2.90463 3.17079C2.79239 2.20197 3.08481 1.19181 3.69623 0.432705C3.79075 0.317511 3.95025 -0.0251187 3.65192 0.00146463C3.48651 0.0162331 3.2768 0.355909 3.1941 0.479965C2.94303 0.863946 2.81307 1.31291 2.70674 1.75301H2.70969Z" fill="url(#paint17_radial_54_4669)"/>
<path opacity="0.1" d="M2.56798 5.17636C2.5089 5.09661 2.48527 4.99914 2.4646 4.90167C2.39076 4.55904 2.39371 4.19868 2.47346 3.85901C2.48527 4.26367 2.54435 4.66537 2.68022 5.0464C2.72748 5.17931 2.78655 5.31814 2.89584 5.4097C2.8663 5.4097 2.67431 5.32405 2.56798 5.17636Z" fill="white"/>
<path d="M4.03231 7.92934C4.20067 8.03863 4.40152 8.1361 4.59646 8.0918C4.83276 8.03863 4.98635 7.78757 4.98635 7.54536C4.98635 7.30316 4.86525 7.07572 4.71461 6.88964C4.49013 6.61199 4.20362 6.39637 3.9112 6.19257C3.58039 5.95922 3.24367 5.7377 2.90104 5.52798C2.54659 5.30941 2.5525 5.58115 2.61157 5.84994C2.67065 6.13349 2.77107 6.40819 2.90104 6.66516C3.16096 7.17615 3.55381 7.61921 4.03526 7.92934H4.03231Z" fill="url(#paint18_radial_54_4669)"/>
<path opacity="0.1" d="M4.62023 7.89372C4.13582 7.85533 3.69867 7.56291 3.39444 7.18779C3.09021 6.80972 2.90412 6.35189 2.75644 5.89111C2.96615 6.28396 3.19063 6.68271 3.53031 6.96922C3.86999 7.25572 4.31009 7.44772 4.7561 7.41818C4.74428 7.56586 4.66749 7.7549 4.62023 7.89668V7.89372Z" fill="white"/>
<path d="M5.82001 8.64704C6.21286 8.80358 6.63524 8.86266 7.05466 8.91582C7.32936 8.95127 7.66313 8.96013 7.82558 8.7386C7.92601 8.60273 7.92601 8.40779 7.85807 8.25419C7.79014 8.09765 7.66313 7.97655 7.5243 7.87612C7.07239 7.55121 6.49641 7.44488 5.93816 7.42125C5.72845 7.41239 5.51578 7.41534 5.31788 7.48032C5.18497 7.52463 5.03728 7.60438 4.95753 7.72253C4.8512 7.87317 4.93686 7.96769 5.04319 8.09765C5.24404 8.34576 5.52464 8.52889 5.82001 8.64704Z" fill="url(#paint19_radial_54_4669)"/>
<path opacity="0.1" d="M5.36227 8.06213C5.89985 8.59085 6.68553 8.85373 7.43282 8.75625C7.60118 8.73262 7.67502 8.53177 7.72228 8.36637C7.69275 8.41953 6.45219 8.54654 5.36227 8.06213Z" fill="white"/>
<path d="M6.04427 16.1138C5.60122 16.9053 5.33538 17.8003 5.27335 18.7042C5.26449 18.8518 5.30289 19.0527 5.45058 19.0586C5.51261 19.0615 5.57168 19.0232 5.61894 18.9848C5.88477 18.7603 6.00292 18.4088 6.10335 18.078C6.33964 17.31 6.55526 16.5361 6.74725 15.7564C6.80928 15.5082 6.75611 15.2336 6.49619 15.4846C6.3101 15.6648 6.16833 15.8893 6.04427 16.1138Z" fill="url(#paint20_radial_54_4669)"/>
<path opacity="0.1" d="M5.44778 18.6449C5.43892 17.8976 5.64863 17.1474 6.04147 16.5094C5.98535 17.2833 5.75792 17.9331 5.44778 18.6449Z" fill="white"/>
<path d="M4.43765 19.05C4.07139 19.2124 3.76716 19.5078 3.59289 19.8711C3.56926 19.9213 3.54563 19.9804 3.56631 20.0335C3.60471 20.1399 3.7583 20.1281 3.86759 20.0926C4.34018 19.942 4.94274 19.7234 5.2765 19.3306C5.37398 19.2154 5.45373 18.9968 5.2765 18.92C5.05498 18.8225 4.64146 18.9613 4.43765 19.0529V19.05Z" fill="url(#paint21_radial_54_4669)"/>
<path opacity="0.1" d="M4.90119 19.038C4.4286 19.1059 3.9944 19.3954 3.7522 19.806C4.0328 19.6169 4.84507 19.0912 4.98685 19.0498C4.9514 19.0469 4.93663 19.0321 4.90414 19.038H4.90119Z" fill="white"/>
<path d="M0.175314 18.8697C0.110332 18.9022 0.128054 19.0026 0.198943 19.0085C0.541573 19.0469 0.893064 19.0322 1.23865 19.0617C2.12771 19.1385 2.98724 19.5195 3.64296 20.128C3.55435 19.7588 3.37122 19.428 3.07585 19.1917C2.69778 18.8933 2.22814 18.725 1.76441 18.6246C1.45722 18.5596 1.14117 18.5566 0.836943 18.6246C0.579971 18.6807 0.390934 18.7545 0.178267 18.8668L0.175314 18.8697Z" fill="url(#paint22_radial_54_4669)"/>
<path opacity="0.1" d="M2.34065 19.0173C2.06891 18.7929 1.72333 18.6599 1.37184 18.6393C1.02035 18.6186 0.662948 18.7131 0.364624 18.9051C1.04988 18.7781 1.68493 18.784 2.34065 19.0173Z" fill="white"/>
<path d="M6.27734 13.3196C5.76044 14.0669 5.41486 14.9323 5.27012 15.8303C5.24649 15.9779 5.26717 16.1788 5.4119 16.1995C5.47393 16.2083 5.53596 16.1758 5.58617 16.1404C5.86973 15.9396 6.02037 15.6028 6.15328 15.2809C6.46047 14.5395 6.74402 13.7863 7.00986 13.0272C7.09256 12.7879 7.06598 12.5073 6.78537 12.7348C6.58452 12.8972 6.42207 13.1099 6.27734 13.3196Z" fill="url(#paint23_radial_54_4669)"/>
<path opacity="0.1" d="M5.4505 15.786C5.51253 15.0387 5.79018 14.3121 6.23914 13.7155C6.10918 14.4805 5.82562 15.1066 5.4505 15.786Z" fill="white"/>
<path d="M4.40515 16.0962C4.02412 16.2232 3.6933 16.492 3.4895 16.8346C3.45996 16.8819 3.43338 16.938 3.44815 16.9941C3.47768 17.1034 3.63128 17.1063 3.74056 17.0827C4.22497 16.9764 4.84525 16.8139 5.21151 16.4536C5.31784 16.3472 5.41827 16.1375 5.24991 16.043C5.04019 15.9249 4.61191 16.0253 4.40219 16.0962H4.40515Z" fill="url(#paint24_radial_54_4669)"/>
<path opacity="0.1" d="M4.8657 16.1257C4.39015 16.1494 3.92938 16.3975 3.64877 16.7844C3.94414 16.622 4.80367 16.1759 4.9484 16.1464C4.91591 16.1405 4.90114 16.1257 4.8657 16.1257Z" fill="white"/>
<path d="M0.17852 15.5204C0.110584 15.547 0.119446 15.6474 0.190334 15.6622C0.53001 15.733 0.878548 15.7508 1.22118 15.8128C2.09843 15.9723 2.92251 16.4301 3.51621 17.0947C3.46008 16.7196 3.3124 16.374 3.03771 16.1111C2.68917 15.7773 2.23725 15.5676 1.78238 15.4259C1.48406 15.3313 1.16801 15.3018 0.857872 15.3402C0.594992 15.3727 0.400047 15.4288 0.17852 15.5204Z" fill="url(#paint25_radial_54_4669)"/>
<path opacity="0.1" d="M2.32287 15.8688C2.0718 15.6207 1.74099 15.4553 1.39245 15.4021C1.04391 15.349 0.677656 15.411 0.364563 15.5734C1.05868 15.5085 1.69078 15.5734 2.32287 15.8688Z" fill="white"/>
<path d="M6.2744 11.3674C5.71319 12.0822 5.31444 12.924 5.11655 13.8101C5.08405 13.9548 5.09292 14.1586 5.23765 14.1882C5.29967 14.2 5.3617 14.1734 5.41487 14.1409C5.71024 13.9578 5.88155 13.6299 6.03515 13.3168C6.38664 12.5932 6.71745 11.8606 7.02759 11.1193C7.12506 10.8859 7.1162 10.6024 6.82083 10.8121C6.61112 10.9598 6.43685 11.1636 6.27735 11.3644L6.2744 11.3674Z" fill="url(#paint26_radial_54_4669)"/>
<path opacity="0.1" d="M5.29657 13.7776C5.4029 13.0363 5.72486 12.3274 6.21222 11.7603C6.03795 12.5164 5.71304 13.1219 5.29657 13.7776Z" fill="white"/>
<path d="M4.2363 14.0229C3.84937 14.1263 3.50378 14.3744 3.27635 14.7052C3.24386 14.7525 3.21432 14.8056 3.22614 14.8618C3.24977 14.974 3.40336 14.9858 3.51265 14.9681C4.00296 14.8913 4.6321 14.7672 5.02199 14.4305C5.13423 14.333 5.24942 14.1292 5.08402 14.0229C4.88021 13.8929 4.44897 13.9668 4.2363 14.0229Z" fill="url(#paint27_radial_54_4669)"/>
<path opacity="0.1" d="M4.69688 14.0819C4.22134 14.076 3.74579 14.2976 3.44156 14.6638C3.74579 14.5191 4.6319 14.1262 4.77663 14.1056C4.74414 14.0967 4.72937 14.0819 4.69688 14.079V14.0819Z" fill="white"/>
<path d="M0.0509514 13.1928C-0.0169838 13.2164 -0.0169838 13.3168 0.0509514 13.3346C0.38472 13.4261 0.733257 13.4645 1.06998 13.5472C1.93837 13.7599 2.72996 14.2679 3.2823 14.968C3.24981 14.5899 3.1228 14.2354 2.86583 13.9578C2.53797 13.6034 2.10082 13.3671 1.65481 13.1987C1.3624 13.0865 1.0493 13.0362 0.736211 13.0569C0.473331 13.0746 0.275433 13.1189 0.0479977 13.1957L0.0509514 13.1928Z" fill="url(#paint28_radial_54_4669)"/>
<path opacity="0.1" d="M2.17185 13.6685C1.93556 13.4056 1.61656 13.2195 1.27097 13.1457C0.925389 13.0718 0.55913 13.1102 0.234222 13.2549C0.931297 13.2343 1.55748 13.3376 2.17185 13.6685Z" fill="white"/>
<path d="M6.88569 9.62761C6.38651 10.0057 5.97299 10.496 5.68648 11.0513C5.63922 11.1429 5.60969 11.2787 5.70125 11.323C5.73965 11.3437 5.78691 11.3349 5.82826 11.323C6.05865 11.2522 6.22996 11.0661 6.38356 10.8829C6.74391 10.4635 7.09245 10.0323 7.42917 9.59217C7.5355 9.45335 7.57981 9.26431 7.34351 9.34997C7.1781 9.41199 7.02451 9.51537 6.88569 9.62466V9.62761Z" fill="url(#paint29_radial_54_4669)"/>
<path opacity="0.1" d="M5.81067 11.06C6.01152 10.5845 6.3512 10.168 6.77358 9.87561C6.52547 10.3482 6.20351 10.6967 5.81067 11.06Z" fill="white"/>
<path d="M5.06058 11.0393C4.78588 11.0393 4.51119 11.1456 4.30147 11.3258C4.27194 11.3524 4.2424 11.3819 4.23945 11.4203C4.23354 11.4971 4.33396 11.5326 4.41371 11.5414C4.75339 11.5769 5.19645 11.6035 5.51249 11.4469C5.60406 11.3997 5.7163 11.2845 5.62473 11.187C5.51249 11.0659 5.21121 11.0393 5.05762 11.0393H5.06058Z" fill="url(#paint30_radial_54_4669)"/>
<path opacity="0.1" d="M5.35902 11.1603C5.04297 11.0717 4.68853 11.1367 4.41974 11.3287C4.64717 11.2874 5.30585 11.1781 5.40628 11.1899C5.3856 11.1781 5.37969 11.1662 5.35606 11.1603H5.35902Z" fill="white"/>
<path d="M2.41983 9.75162C2.36962 9.75458 2.35189 9.82251 2.3962 9.84614C2.60296 9.96429 2.82744 10.0529 3.03715 10.1651C3.57768 10.4576 4.01778 10.9361 4.26294 11.5002C4.30725 11.2432 4.28362 10.9833 4.16251 10.7529C4.00597 10.4605 3.7549 10.2242 3.48907 10.0352C3.3148 9.90817 3.11395 9.81956 2.90128 9.78116C2.72406 9.74572 2.58228 9.73981 2.41688 9.75162H2.41983Z" fill="url(#paint31_radial_54_4669)"/>
<path opacity="0.1" d="M3.74586 10.4427C3.63362 10.2271 3.45344 10.0469 3.23782 9.93762C3.0222 9.82834 2.76818 9.78994 2.52893 9.82834C2.99562 9.93467 3.39732 10.1148 3.74586 10.4427Z" fill="white"/>
<path d="M7.80991 20.8106C8.28545 21.1621 8.96185 21.2418 9.4817 20.9642C9.89227 20.7456 10.1758 20.3409 10.3649 19.9127C10.4594 19.7 10.5391 19.4726 10.545 19.2363C10.5509 19.0029 10.4771 18.7578 10.3117 18.5953C10.1108 18.3974 9.80956 18.3472 9.52896 18.3206C8.9205 18.2615 7.94282 18.1168 7.38753 18.4594C6.9238 18.7459 7.01241 19.4696 7.16305 19.9097C7.28415 20.2642 7.50568 20.5861 7.80695 20.8106H7.80991Z" fill="url(#paint32_radial_54_4669)"/>
<g style="mix-blend-mode:multiply" opacity="0.42">
<path d="M7.54703 18.3974C7.34323 18.4506 7.17191 18.6189 7.11874 18.8257C7.34323 18.8966 7.58543 18.8671 7.81877 18.8493C8.20571 18.8198 8.5956 18.8227 8.98548 18.8257C9.44036 18.8287 9.92772 18.8464 10.2999 19.1093C10.359 19.1536 10.4623 19.192 10.4919 19.127C10.4978 19.1122 10.4978 19.0974 10.4978 19.0827C10.4978 18.8375 10.3265 18.616 10.1138 18.4919C9.90113 18.3679 9.65007 18.3265 9.40786 18.294C8.71965 18.2025 7.99009 18.17 7.36686 18.4772" fill="#EA8328"/>
</g>
<path opacity="0.1" d="M7.48229 20.0719C7.60635 20.3171 7.77471 20.5386 7.94307 20.7572C8.01396 20.8487 8.10257 20.9492 8.22072 20.9551C8.26798 20.7867 8.21481 20.6065 8.17641 20.4352C8.13506 20.2609 8.11143 20.0808 8.10257 19.9006C8.09371 19.7116 8.09962 19.5137 8.01987 19.3423C7.9283 19.1415 7.71859 18.9997 7.49706 18.9908C7.10127 18.9731 7.40254 19.9065 7.48525 20.0719H7.48229Z" fill="white"/>
<path d="M6.79971 17.2982C6.77904 17.5168 6.77904 17.7472 6.87356 17.9451C6.97694 18.1637 7.18369 18.3202 7.40818 18.4059C7.63266 18.4945 7.87781 18.5211 8.11706 18.5417C8.75211 18.592 9.39602 18.592 10.0281 18.5152C10.1492 18.5004 10.2733 18.4827 10.3826 18.4266C10.548 18.3439 10.6661 18.1844 10.7547 18.0219C10.8788 17.7856 10.9585 17.5257 10.9851 17.2628C10.9969 17.1358 10.9969 17.0029 10.9349 16.8906C10.8404 16.7193 10.6336 16.6484 10.4416 16.6012C9.86566 16.4564 9.27196 16.3826 8.67827 16.3796C8.37994 16.3796 8.06685 16.3796 7.76853 16.4121C7.54995 16.4387 7.21914 16.4535 7.02715 16.5716C6.82334 16.6986 6.82039 17.0885 6.79971 17.2982Z" fill="#EAA017"/>
<g style="mix-blend-mode:multiply" opacity="0.42">
<path d="M6.85888 16.8524C6.85888 16.8524 6.82935 16.9705 7.10109 16.9498C8.04627 16.873 8.74335 16.9351 9.7033 17.0562C10.0075 17.0946 10.5392 17.195 10.7814 17.384C10.7991 17.3988 10.8198 17.4136 10.8405 17.4195C10.8877 17.4283 10.9291 17.384 10.9527 17.3397C11.0591 17.1123 10.8877 16.8464 10.678 16.7106C10.4358 16.554 10.1464 16.4979 9.85985 16.4566C9.09484 16.3443 8.31801 16.3916 7.54414 16.4034C6.94159 16.4122 6.86184 16.8553 6.86184 16.8553L6.85888 16.8524Z" fill="#EA8328"/>
</g>
<path opacity="0.1" d="M6.93241 17.6528C6.96195 17.8419 7.05351 18.0279 7.20415 18.1431C7.27209 18.1933 7.35479 18.2317 7.4375 18.2199C7.45226 18.2199 7.46999 18.214 7.47589 18.1993C7.4818 18.1904 7.4818 18.1756 7.4818 18.1638C7.46703 17.9807 7.35775 17.8212 7.31344 17.644C7.278 17.4963 7.28686 17.3368 7.2396 17.192C7.22188 17.1359 7.19234 17.0768 7.13917 17.0473C6.87038 16.8849 6.91174 17.5376 6.92946 17.6499L6.93241 17.6528Z" fill="white"/>
<path d="M6.6168 16.1525C6.60793 16.244 6.60498 16.3386 6.64338 16.4213C6.69359 16.5365 6.80288 16.6103 6.91807 16.6635C7.40248 16.8939 7.96664 16.8377 8.50421 16.8466C8.80549 16.8525 9.10677 16.882 9.40805 16.8968C9.88064 16.9204 10.3532 16.9086 10.8258 16.8968C10.9026 16.8968 10.9883 16.8909 11.0503 16.8436C11.1271 16.7846 11.1478 16.6782 11.1625 16.5837C11.1891 16.3711 11.2069 16.1584 11.2098 15.9457C11.2098 15.801 11.2069 15.6474 11.1212 15.5292C11.0444 15.4259 10.9203 15.3727 10.8022 15.3314C10.046 15.0803 9.12449 15.1187 8.32699 15.1187C7.86621 15.1187 7.58856 15.2102 7.13074 15.2102C6.78516 15.2102 6.64633 15.8778 6.6227 16.1495L6.6168 16.1525Z" fill="url(#paint33_radial_54_4669)"/>
<g style="mix-blend-mode:multiply" opacity="0.42">
<path d="M10.5332 15.3079C10.7695 15.3404 10.9851 15.4112 11.1475 15.5855C11.1948 15.6357 11.2332 15.7007 11.2332 15.7716C11.2332 15.8425 11.1771 15.9134 11.1091 15.9134C11.0707 15.9134 11.0353 15.8957 11.0028 15.8779C10.4032 15.5678 9.71204 15.4999 9.03564 15.5058C8.36219 15.5117 7.68875 15.5885 7.01531 15.5471C6.75243 15.5294 6.8115 15.3226 7.0094 15.2399C7.22206 15.1513 7.51448 15.1572 7.74192 15.1425C8.32675 15.1041 8.84365 15.1513 9.42553 15.2163C9.7593 15.2547 10.1994 15.2606 10.5302 15.3079H10.5332Z" fill="#EA8328"/>
</g>
<path opacity="0.1" d="M6.75557 16.1317C6.74967 16.1878 6.74671 16.2469 6.76148 16.3001C6.7792 16.3621 6.8176 16.4153 6.85895 16.4655C6.92393 16.5393 7.00664 16.6102 7.10411 16.6132C7.15432 16.6132 7.21635 16.5866 7.21635 16.5364C7.21635 16.5009 7.18681 16.4743 7.16023 16.4507C7.00959 16.3119 6.92984 16.0903 6.99187 15.8954C7.01845 15.8127 7.0598 15.538 6.88849 15.6562C6.77625 15.7329 6.76739 16.0106 6.75557 16.1287V16.1317Z" fill="white"/>
<path d="M6.91783 15.095C6.97985 15.1482 7.0596 15.1689 7.13935 15.1866C7.91322 15.3727 8.71368 15.4022 9.50822 15.4318C9.75929 15.4406 10.0104 15.4495 10.2585 15.4318C10.4209 15.4199 10.5863 15.3963 10.7399 15.3402C10.8138 15.3136 10.8847 15.2782 10.9408 15.222C11.0353 15.1216 11.053 14.971 11.056 14.8292C11.0619 14.5722 11.0294 14.2916 10.8522 14.1085C10.6986 13.952 10.4711 13.8958 10.2555 13.8545C9.50822 13.7097 8.74912 13.6448 7.99002 13.6536C7.66807 13.6566 7.1364 13.6654 6.96508 14.0022C6.83512 14.2532 6.66676 14.8794 6.91783 15.095Z" fill="#EAA017"/>
<g style="mix-blend-mode:multiply" opacity="0.42">
<path d="M10.3381 13.8633C10.4798 13.9046 10.6216 13.9549 10.7486 14.0346C10.8727 14.1144 10.982 14.2296 11.0292 14.3684C11.0499 14.4334 11.044 14.5308 10.9761 14.5456C10.9406 14.5545 10.9022 14.5338 10.8697 14.5161C10.3115 14.2059 9.66461 14.1144 9.02957 14.0641C8.63377 14.0317 8.23502 14.011 7.83922 14.0051C7.64133 14.0021 7.44047 14.0021 7.24258 14.0051C7.20122 14.0051 6.98856 14.0346 6.97379 13.9992C6.94721 13.9401 7.08898 13.8662 7.12147 13.8397C7.36368 13.6654 7.72994 13.6595 8.0194 13.6329C8.39157 13.5975 8.76373 13.5975 9.1359 13.6329C9.54647 13.6684 9.94522 13.754 10.341 13.8633H10.3381Z" fill="#EA8328"/>
</g>
<path opacity="0.1" d="M7.02984 14.7258C7.01802 14.7967 7.01212 14.8705 7.04756 14.9326C7.09187 15.0064 7.18343 15.033 7.26318 15.0507C7.36656 15.0773 7.48471 15.098 7.56741 15.0359C7.61172 15.0034 7.6383 14.9503 7.65898 14.9001C7.72987 14.7317 7.76826 14.5486 7.77122 14.3654C7.77122 14.3064 7.77122 14.2443 7.74168 14.1882C7.66193 14.0228 7.38724 13.9903 7.25137 14.1055C7.10663 14.2296 7.05347 14.5486 7.02688 14.7228L7.02984 14.7258Z" fill="white"/>
<path d="M6.88582 13.2165C6.88287 13.3435 6.88878 13.4735 6.95081 13.5828C7.066 13.7836 7.32297 13.8309 7.54745 13.8427C8.27111 13.887 9.00363 13.8279 9.72138 13.9343C9.90156 13.9608 10.0817 13.9992 10.2619 13.9815C10.4421 13.9668 10.6282 13.887 10.7286 13.7305C10.7995 13.6212 10.8202 13.4883 10.832 13.3583C10.8615 13.0659 10.8467 12.7646 10.7552 12.4899C10.6636 12.2123 10.4893 11.9582 10.2471 11.8106C10.064 11.6983 9.84839 11.6481 9.63868 11.6127C9.06566 11.5152 8.47787 11.5004 7.89894 11.5654C7.69514 11.589 7.41454 11.6008 7.25799 11.7603C7.14575 11.8755 7.11621 12.0675 7.06895 12.2182C6.96262 12.5431 6.89468 12.8709 6.88582 13.2165Z" fill="url(#paint34_radial_54_4669)"/>
<g style="mix-blend-mode:multiply" opacity="0.42">
<path d="M10.3505 11.8962C9.83657 11.6392 9.34331 11.7514 8.77029 11.7308C8.19727 11.7101 7.61243 11.7987 7.10144 12.0557C7.08372 12.1177 7.05123 12.2122 7.03351 12.2743C7.63902 12.1118 8.24748 12.1502 8.87071 12.224C9.49394 12.2979 10.1142 12.419 10.7404 12.4367C10.7256 12.3776 10.5366 11.9848 10.3535 11.8932L10.3505 11.8962Z" fill="#EA8328"/>
</g>
<path opacity="0.1" d="M7.07486 13.2433C7.05418 13.3673 7.05418 13.518 7.15756 13.5859C7.2698 13.6598 7.4234 13.5859 7.55336 13.6184C7.6213 13.6332 7.68923 13.6775 7.75421 13.6539C7.80443 13.6332 7.83101 13.58 7.85168 13.5298C7.93734 13.3171 7.99937 13.0956 8.03186 12.8711C8.05549 12.7087 8.05844 12.5196 7.9403 12.4074C7.88122 12.3513 7.79852 12.3217 7.71581 12.307C7.64197 12.2922 7.56518 12.2863 7.49133 12.307C7.19301 12.3985 7.11326 12.9893 7.07191 13.2433H7.07486Z" fill="white"/>
<path d="M8.76066 8.21295C8.49778 8.21295 8.2349 8.26611 8.04291 8.31928C7.86273 8.36949 7.72095 8.51127 7.67369 8.69145C7.45807 9.49485 6.85552 11.7869 6.93822 11.9553C7.03865 12.1561 7.54373 11.9553 8.55685 11.8549C9.56997 11.7544 10.5801 12.0557 10.781 11.9553C10.9818 11.8549 9.97168 8.72098 9.77082 8.41675C9.56997 8.11252 9.01763 8.2159 8.76066 8.2159V8.21295Z" fill="url(#paint35_radial_54_4669)"/>
<path opacity="0.1" d="M8.105 8.72112C7.99572 8.80973 7.92483 8.93379 7.86575 9.06079C7.71216 9.38866 7.63241 9.74901 7.55561 10.1035C7.53494 10.1921 7.51722 10.2807 7.52903 10.3722C7.54085 10.4609 7.5881 10.5524 7.67081 10.5879C7.76533 10.6292 7.87757 10.5908 7.95732 10.5288C8.03707 10.4668 8.0991 10.3811 8.16998 10.3073C8.36788 10.1035 8.64848 10.003 8.88773 9.84353C9.12403 9.68403 9.3367 9.41229 9.26876 9.13464C9.22741 8.96923 9.09154 8.83927 8.93795 8.76542C8.69574 8.64432 8.33835 8.52913 8.105 8.72112Z" fill="white"/>
<path d="M10.5093 30.079C10.8903 30.1322 11.2359 30.3478 11.5047 30.6255C11.7735 30.9031 11.9743 31.2369 12.1604 31.5736C12.2608 31.7567 12.3613 31.9428 12.3997 32.1466C12.441 32.3504 12.4144 32.5779 12.2845 32.7403C12.1013 32.9707 11.7705 33.0121 11.4781 32.9973C10.6274 32.953 9.79746 32.5572 9.23034 31.9192C9.08266 31.7538 8.94974 31.5677 8.89362 31.355C8.67505 30.5457 9.85358 29.9875 10.5093 30.079Z" fill="url(#paint36_radial_54_4669)"/>
<g style="mix-blend-mode:multiply" opacity="0.42">
<path d="M8.86145 31.107C8.86145 31.1661 8.87031 31.2252 8.90871 31.2695C8.98255 31.361 9.12433 31.3404 9.23952 31.3079C9.43152 31.2488 9.62055 31.172 9.81254 31.1129C10.3058 30.9623 10.8316 30.9268 11.3396 31.0125C11.4518 31.0302 11.5995 31.0391 11.6438 30.9328C11.6763 30.856 11.6261 30.7703 11.573 30.7053C11.2599 30.3243 10.935 30.1884 10.4446 30.1382C9.96318 30.088 9.59397 30.1323 9.25725 30.4306C9.05639 30.6108 8.8644 30.8146 8.8644 31.1041L8.86145 31.107Z" fill="#EA8328"/>
</g>
<path d="M11.4047 26.3221C11.6203 26.8184 12.0191 27.2142 12.4769 27.5007C12.7398 27.6631 13.0292 27.796 13.3394 27.8108C13.6466 27.8256 13.9744 27.7045 14.1487 27.4504C14.3377 27.1698 14.3052 26.777 14.1133 26.4994C13.9213 26.2217 13.5934 26.0563 13.2596 26.0061C12.9259 25.9559 12.5832 26.009 12.2583 26.1006C12.1727 26.1242 12.087 26.1508 11.9984 26.139C11.9364 26.1301 11.8803 26.1036 11.8241 26.077C11.6765 26.0061 11.5199 25.9234 11.4549 25.7727C11.4106 25.6694 11.4195 25.5512 11.4342 25.4419C11.4667 25.1879 11.5347 24.9073 11.7119 24.7124C11.7798 24.6385 12.0102 24.5381 11.8743 24.4288C11.7592 24.3343 11.6351 24.5027 11.5701 24.5794C11.1714 25.0609 11.1596 25.7668 11.4018 26.3221H11.4047Z" fill="url(#paint37_radial_54_4669)"/>
<g style="mix-blend-mode:multiply" opacity="0.42">
<path d="M12.9111 27.6896C13.1149 27.7575 13.3335 27.7959 13.5461 27.7664C13.7588 27.7398 13.9685 27.6394 14.1044 27.474C14.2403 27.3056 14.2905 27.0664 14.2078 26.8655C14.1871 26.8153 14.1576 26.768 14.1162 26.7356C14.0335 26.6706 13.9124 26.6735 13.8149 26.7149C13.7175 26.7562 13.6377 26.8271 13.558 26.8951C13.3985 27.0309 13.2242 27.155 13.0233 27.22C12.8254 27.2849 12.595 27.2879 12.4119 27.1816C12.3381 27.1373 12.2731 27.0782 12.1933 27.0486C12.1077 27.0132 11.9777 27.0132 12.025 27.1254C12.0634 27.2141 12.2081 27.3027 12.282 27.3588C12.471 27.5006 12.6807 27.6128 12.9052 27.6896H12.9111Z" fill="#EA8328"/>
</g>
<path d="M8.08534 27.9645C7.88153 28.6143 7.87267 29.3202 8.0558 29.9759C8.10897 30.165 8.18576 30.357 8.34231 30.4722C8.49295 30.5844 8.6938 30.6021 8.87988 30.5933C9.20479 30.5785 9.5297 30.4958 9.80735 30.3274C10.085 30.1591 10.3124 29.8991 10.4158 29.592C10.5162 29.2995 10.5044 28.9776 10.4542 28.6734C10.3951 28.3041 10.2799 27.9379 10.085 27.6189C10.0082 27.4919 9.91368 27.3708 9.80144 27.2763C9.55333 27.0665 9.03052 26.8864 8.70857 27.0016C8.38071 27.1197 8.1769 27.6691 8.08534 27.9645Z" fill="#EAA017"/>
<path opacity="0.1" d="M8.23623 29.7456C8.24509 29.8696 8.26872 30.0055 8.36324 30.0853C8.42822 30.1414 8.51978 30.1561 8.60544 30.1709C8.74426 30.1945 8.88309 30.2152 9.02191 30.2388C9.13711 29.5477 9.20799 28.8506 9.23458 28.1535C9.24639 27.87 9.24639 27.4653 8.99533 27.2704C8.72359 27.0607 8.62316 27.2556 8.54046 27.5037C8.30121 28.2274 8.17715 28.9865 8.23918 29.7485L8.23623 29.7456Z" fill="white"/>
<path d="M11.8238 29.8636C11.7293 30.6523 11.9951 31.432 12.4086 32.1114C12.4825 32.2325 12.5829 32.3624 12.7247 32.3743C12.8901 32.389 13.02 32.2384 13.1057 32.0966C13.3538 31.7008 13.5251 31.2637 13.6787 30.8236C13.9357 30.094 14.1543 29.3054 13.9652 28.5581C13.8589 28.1387 13.4838 27.5774 12.9669 27.7399C12.7837 27.799 12.6656 27.8728 12.5593 28.0205C12.3968 28.2509 12.2048 28.5876 12.0985 28.8505C11.9774 29.1488 11.8592 29.5446 11.8208 29.8636H11.8238Z" fill="#EAA017"/>
<path opacity="0.1" d="M12.0367 30.6492C12.0544 30.7526 12.0839 30.856 12.146 30.9387C12.211 31.0214 12.3202 31.0775 12.4207 31.048C12.465 30.788 12.3645 30.5311 12.3202 30.2711C12.2671 29.9699 12.2966 29.6538 12.4 29.3643C12.5152 29.0453 12.716 28.7647 12.8135 28.4369C12.9848 27.855 12.6038 28.3571 12.4738 28.5846C12.1164 29.2019 11.9067 29.9315 12.0367 30.6463V30.6492Z" fill="white"/>
<path d="M7.8958 26.1301C7.90466 26.2393 7.91943 26.3516 7.96964 26.4491C8.00804 26.5288 8.07007 26.5967 8.138 26.6529C8.3359 26.8183 8.59878 26.8862 8.85575 26.9276C9.27518 26.9925 9.74482 26.9778 10.0609 26.6942C10.3562 26.4313 10.436 26.003 10.4389 25.6102C10.4419 25.2499 10.3917 24.8806 10.2381 24.5528C10.0845 24.2249 9.81866 23.9414 9.47899 23.8173C8.14687 23.327 7.81605 25.2321 7.89285 26.1271L7.8958 26.1301Z" fill="url(#paint38_radial_54_4669)"/>
<g style="mix-blend-mode:multiply" opacity="0.42">
<path d="M8.39195 24.3845C8.42148 24.4199 8.46874 24.4406 8.516 24.4524C8.81137 24.5381 9.12742 24.4701 9.43165 24.5174C9.59706 24.541 9.75656 24.6031 9.89833 24.6917C10.0283 24.7744 10.1583 24.8837 10.3089 24.8718C10.3443 24.8039 10.303 24.7212 10.2616 24.6562C10.2114 24.5765 10.1583 24.4967 10.0992 24.4229C10.0135 24.3077 9.91901 24.1984 9.80677 24.1068C9.57047 23.9119 9.20422 23.7642 8.89408 23.779C8.69027 23.7878 8.20291 24.16 8.39195 24.3845Z" fill="#EA8328"/>
</g>
<path opacity="0.1" d="M8.08178 25.6101C8.07292 25.7991 8.07883 25.997 8.14972 26.1742C8.26196 26.4519 8.54551 26.6557 8.84384 26.6734C8.91177 26.6764 8.99448 26.6616 9.01811 26.5996C9.0506 26.5139 8.95017 26.4401 8.87042 26.3928C8.63708 26.251 8.47758 26.0029 8.40374 25.7371C8.32989 25.4742 8.32989 25.1936 8.35648 24.9189C8.36238 24.8569 8.38897 24.6679 8.31513 24.6324C8.22947 24.5911 8.20288 24.8333 8.18812 24.8953C8.132 25.1316 8.09655 25.3708 8.08474 25.613L8.08178 25.6101Z" fill="white"/>
<path d="M7.76606 22.2578C7.70403 22.6477 7.67154 23.0907 7.92851 23.3861C8.06143 23.5397 8.25637 23.6283 8.45132 23.6844C8.82644 23.7937 9.22814 23.8026 9.60622 23.711C9.78935 23.6667 9.96952 23.5958 10.1024 23.4659C10.2974 23.2709 10.3535 22.9755 10.3476 22.7008C10.3387 22.3287 10.2383 21.9654 10.1202 21.6139C10.0463 21.3983 9.9518 21.1649 9.75095 21.0556C9.61212 20.9788 9.44672 20.9788 9.28722 20.9759C8.9564 20.9759 8.47495 20.9523 8.19139 21.1649C7.89307 21.3894 7.81627 21.9152 7.76311 22.2519L7.76606 22.2578Z" fill="#EAA017"/>
<g style="mix-blend-mode:multiply" opacity="0.42">
<path d="M7.87838 21.7466C7.87247 21.7731 7.86951 21.7997 7.88428 21.8204C7.8961 21.8381 7.91677 21.844 7.93745 21.8499C8.04083 21.8736 8.15012 21.8588 8.25645 21.8499C8.83242 21.7997 9.41725 21.8883 9.95187 22.1069C10.0228 22.1364 10.1143 22.163 10.1645 22.1069C10.1911 22.0774 10.1941 22.0331 10.1911 21.9917C10.1852 21.8588 10.1439 21.7288 10.0937 21.6077C10.0257 21.4423 9.9312 21.2828 9.79238 21.1706C9.53245 20.9609 9.178 20.9609 8.86491 20.9845C8.58726 21.0081 8.36574 21.0288 8.16784 21.2326C8.02606 21.3773 7.91677 21.5457 7.87838 21.7495V21.7466Z" fill="#EA8328"/>
</g>
<path d="M8.59893 8.85711C8.59893 8.95762 8.51615 9.04039 8.41564 9.04039C8.31513 9.04039 8.23236 8.95762 8.23236 8.85711C8.23236 8.7566 8.31513 8.67383 8.41564 8.67383C8.51615 8.67383 8.59893 8.7566 8.59893 8.85711Z" fill="#1C0003"/>
<path d="M8.41291 8.74772C8.4218 8.76253 8.41587 8.78326 8.40106 8.79215C8.38625 8.80104 8.36551 8.79511 8.35662 8.7803C8.34774 8.76549 8.35366 8.74475 8.36847 8.73587C8.38328 8.72698 8.40402 8.7329 8.41291 8.74772Z" fill="white"/>
<path d="M8.4389 9.03137C8.4389 9.03137 8.5335 8.96929 8.53941 8.88061C8.53941 8.82444 8.53055 8.76827 8.50098 8.71802C8.52759 8.72984 8.54533 8.75349 8.56011 8.77714C8.58376 8.81557 8.59262 8.86583 8.5808 8.90721C8.56897 8.9486 8.54828 8.9752 8.51576 9.00181C8.49507 9.01659 8.46551 9.02841 8.4389 9.02841V9.03137Z" fill="#303030"/>
<path d="M9.42019 8.97505C9.35811 9.05783 9.24282 9.07261 9.16301 9.01349C9.08023 8.95141 9.06545 8.83612 9.12458 8.7563C9.18666 8.67353 9.30195 8.65875 9.38176 8.71787C9.46158 8.77699 9.47932 8.89524 9.42019 8.97505Z" fill="#1C0003"/>
<path d="M9.33443 8.77432C9.33443 8.79209 9.31666 8.80394 9.29888 8.80394C9.28111 8.80394 9.26926 8.78617 9.26926 8.76839C9.26926 8.75062 9.28703 8.73877 9.30481 8.73877C9.32258 8.73877 9.33443 8.75654 9.33443 8.77432Z" fill="white"/>
<path d="M9.1835 9.01643C9.1835 9.01643 9.29879 9.0253 9.352 8.95435C9.38747 8.91001 9.41112 8.8568 9.41999 8.80359C9.43477 8.83019 9.43477 8.8568 9.43182 8.88636C9.42886 8.9307 9.40521 8.97505 9.36974 9.00461C9.33722 9.03121 9.3047 9.04008 9.26036 9.04008C9.23375 9.04008 9.20419 9.03121 9.18054 9.01643H9.1835Z" fill="#303030"/>
<path opacity="0.1" d="M12.3824 26.4016C12.6335 26.3927 12.8786 26.3189 13.1267 26.3041C13.4103 26.2894 13.6998 26.3514 13.9538 26.4843C13.7972 26.2126 13.4989 26.0294 13.1858 26.0117C12.9259 25.997 12.6748 26.0885 12.4208 26.1505C12.2111 26.2037 12.0102 26.2185 11.7946 26.183C11.8064 26.375 12.2377 26.4075 12.3795 26.4016H12.3824Z" fill="white"/>
<g style="mix-blend-mode:multiply" opacity="0.42">
<path d="M8.80846 10.0264C8.79664 10.3808 8.74939 10.7323 8.67554 11.0779C8.63419 11.2728 8.57807 11.4737 8.44811 11.6243C8.21772 11.8931 7.82783 11.9404 7.47634 11.9699C7.37591 11.9788 7.27549 11.9876 7.17801 11.964C7.08054 11.9404 6.98898 11.8783 6.95058 11.7868C6.94172 11.8783 7.01261 11.961 7.09826 11.9965C7.18392 12.0319 7.27844 12.026 7.37001 12.0201C8.10252 11.9551 8.82027 11.6775 9.54984 11.7543C9.82749 11.7838 10.0963 11.8636 10.3739 11.9138C10.5275 11.9433 10.69 11.961 10.8347 11.899C10.6043 11.8518 10.3739 11.8015 10.1406 11.7543C9.91905 11.707 9.69752 11.6598 9.49372 11.5653C9.28991 11.4707 9.10088 11.323 9.0034 11.1192C8.91479 10.9391 8.90298 10.7323 8.89116 10.5315C8.87935 10.3129 8.86753 10.0943 8.85572 9.87573C8.85572 10.0116 8.82618 10.1475 8.77597 10.2715" fill="#EA8328"/>
</g>
<path d="M4.02995 22.6148L4.28988 22.1422L4.5498 22.6148C4.79496 23.0638 5.16417 23.43 5.61018 23.6752L6.08278 23.9351L5.61018 24.195C5.16122 24.4402 4.79496 24.8094 4.5498 25.2554L4.28988 25.728L4.02995 25.2554C3.78479 24.8065 3.41558 24.4402 2.96957 24.195L2.49698 23.9351L2.96957 23.6752C3.41853 23.43 3.78479 23.0608 4.02995 22.6148Z" fill="white"/>
<path d="M12.3474 20.9047L12.4892 20.6477L12.631 20.9047C12.7639 21.1498 12.9648 21.3477 13.2099 21.4836L13.4669 21.6254L13.2099 21.7672C12.9648 21.9001 12.7669 22.1009 12.631 22.3461L12.4892 22.6031L12.3474 22.3461C12.2145 22.1009 12.0137 21.903 11.7685 21.7672L11.5115 21.6254L11.7685 21.4836C12.0137 21.3507 12.2116 21.1498 12.3474 20.9047Z" fill="white"/>
<defs>
<radialGradient id="paint0_radial_54_4669" cx="0" cy="0" r="1" gradientUnits="userSpaceOnUse" gradientTransform="translate(8.66071 8.43133) scale(1.28781 1.28782)">
<stop stop-color="#E17921"/>
<stop offset="0.47" stop-color="#EAA628"/>
<stop offset="0.93" stop-color="#EAA628"/>
</radialGradient>
<radialGradient id="paint1_radial_54_4669" cx="0" cy="0" r="1" gradientUnits="userSpaceOnUse" gradientTransform="translate(8.8554 0.146189) rotate(180) scale(1.28782)">
<stop stop-color="#E17921"/>
<stop offset="0.47" stop-color="#EAA628"/>
<stop offset="0.93" stop-color="#EAA628"/>
</radialGradient>
<radialGradient id="paint2_radial_54_4669" cx="0" cy="0" r="1" gradientUnits="userSpaceOnUse" gradientTransform="translate(14.0936 2.77204) rotate(180) scale(2.17393)">
<stop stop-color="#E17921"/>
<stop offset="0.47" stop-color="#EAA628"/>
<stop offset="0.93" stop-color="#EAA628"/>
</radialGradient>
<radialGradient id="paint3_radial_54_4669" cx="0" cy="0" r="1" gradientUnits="userSpaceOnUse" gradientTransform="translate(12.8404 8.1302) rotate(180) scale(4.02295)">
<stop stop-color="#E17921"/>
<stop offset="0.47" stop-color="#EAA628"/>
<stop offset="0.93" stop-color="#EAA628"/>
</radialGradient>
<radialGradient id="paint4_radial_54_4669" cx="0" cy="0" r="1" gradientUnits="userSpaceOnUse" gradientTransform="translate(10.0231 8.90696) rotate(180) scale(4.3065)">
<stop stop-color="#E17921"/>
<stop offset="0.47" stop-color="#EAA628"/>
<stop offset="0.93" stop-color="#EAA628"/>
</radialGradient>
<radialGradient id="paint5_radial_54_4669" cx="0" cy="0" r="1" gradientUnits="userSpaceOnUse" gradientTransform="translate(11.287 15.612) rotate(174.51) scale(3.68031)">
<stop stop-color="#E17921"/>
<stop offset="0.47" stop-color="#EAA628"/>
<stop offset="0.93" stop-color="#EAA628"/>
</radialGradient>
<radialGradient id="paint6_radial_54_4669" cx="0" cy="0" r="1" gradientUnits="userSpaceOnUse" gradientTransform="translate(12.2947 19.1061) rotate(180) scale(3.20182)">
<stop stop-color="#E17921"/>
<stop offset="0.47" stop-color="#EAA628"/>
<stop offset="0.93" stop-color="#EAA628"/>
</radialGradient>
<radialGradient id="paint7_radial_54_4669" cx="0" cy="0" r="1" gradientUnits="userSpaceOnUse" gradientTransform="translate(13.7008 21.0195) rotate(-176.25) scale(4.66685)">
<stop stop-color="#E17921"/>
<stop offset="0.47" stop-color="#EAA628"/>
<stop offset="0.93" stop-color="#EAA628"/>
</radialGradient>
<radialGradient id="paint8_radial_54_4669" cx="0" cy="0" r="1" gradientUnits="userSpaceOnUse" gradientTransform="translate(11.0011 12.8781) rotate(169.2) scale(3.68031)">
<stop stop-color="#E17921"/>
<stop offset="0.47" stop-color="#EAA628"/>
<stop offset="0.93" stop-color="#EAA628"/>
</radialGradient>
<radialGradient id="paint9_radial_54_4669" cx="0" cy="0" r="1" gradientUnits="userSpaceOnUse" gradientTransform="translate(12.3354 16.2572) rotate(174.69) scale(3.20182)">
<stop stop-color="#E17921"/>
<stop offset="0.47" stop-color="#EAA628"/>
<stop offset="0.93" stop-color="#EAA628"/>
</radialGradient>
<radialGradient id="paint10_radial_54_4669" cx="0" cy="0" r="1" gradientUnits="userSpaceOnUse" gradientTransform="translate(13.9331 18.0375) rotate(178.44) scale(4.66685 4.66685)">
<stop stop-color="#E17921"/>
<stop offset="0.47" stop-color="#EAA628"/>
<stop offset="0.93" stop-color="#EAA628"/>
</radialGradient>
<radialGradient id="paint11_radial_54_4669" cx="0" cy="0" r="1" gradientUnits="userSpaceOnUse" gradientTransform="translate(10.9718 10.9434) rotate(165.71) scale(3.68032 3.68031)">
<stop stop-color="#E17921"/>
<stop offset="0.47" stop-color="#EAA628"/>
<stop offset="0.93" stop-color="#EAA628"/>
</radialGradient>
<radialGradient id="paint12_radial_54_4669" cx="0" cy="0" r="1" gradientUnits="userSpaceOnUse" gradientTransform="translate(12.5227 14.2326) rotate(171.2) scale(3.20182)">
<stop stop-color="#E17921"/>
<stop offset="0.47" stop-color="#EAA628"/>
<stop offset="0.93" stop-color="#EAA628"/>
</radialGradient>
<radialGradient id="paint13_radial_54_4669" cx="0" cy="0" r="1" gradientUnits="userSpaceOnUse" gradientTransform="translate(14.2152 15.9233) rotate(174.95) scale(4.66685 4.66685)">
<stop stop-color="#E17921"/>
<stop offset="0.47" stop-color="#EAA628"/>
<stop offset="0.93" stop-color="#EAA628"/>
</radialGradient>
<radialGradient id="paint14_radial_54_4669" cx="0" cy="0" r="1" gradientUnits="userSpaceOnUse" gradientTransform="translate(10.3522 9.43156) rotate(150.97) scale(2.53428)">
<stop stop-color="#E17921"/>
<stop offset="0.47" stop-color="#EAA628"/>
<stop offset="0.93" stop-color="#EAA628"/>
</radialGradient>
<radialGradient id="paint15_radial_54_4669" cx="0" cy="0" r="1" gradientUnits="userSpaceOnUse" gradientTransform="translate(11.9528 11.3473) rotate(156.46) scale(2.20642 2.20642)">
<stop stop-color="#E17921"/>
<stop offset="0.47" stop-color="#EAA628"/>
<stop offset="0.93" stop-color="#EAA628"/>
</radialGradient>
<radialGradient id="paint16_radial_54_4669" cx="0" cy="0" r="1" gradientUnits="userSpaceOnUse" gradientTransform="translate(13.3867 12.1675) rotate(160.21) scale(3.21363)">
<stop stop-color="#E17921"/>
<stop offset="0.47" stop-color="#EAA628"/>
<stop offset="0.93" stop-color="#EAA628"/>
</radialGradient>
<radialGradient id="paint17_radial_54_4669" cx="0" cy="0" r="1" gradientUnits="userSpaceOnUse" gradientTransform="translate(3.62238 2.77204) scale(2.17393)">
<stop stop-color="#E17921"/>
<stop offset="0.47" stop-color="#EAA628"/>
<stop offset="0.93" stop-color="#EAA628"/>
</radialGradient>
<radialGradient id="paint18_radial_54_4669" cx="0" cy="0" r="1" gradientUnits="userSpaceOnUse" gradientTransform="translate(4.87116 8.1302) scale(4.02294)">
<stop stop-color="#E17921"/>
<stop offset="0.47" stop-color="#EAA628"/>
<stop offset="0.93" stop-color="#EAA628"/>
</radialGradient>
<radialGradient id="paint19_radial_54_4669" cx="0" cy="0" r="1" gradientUnits="userSpaceOnUse" gradientTransform="translate(7.69266 8.90696) scale(4.3065)">
<stop stop-color="#E17921"/>
<stop offset="0.47" stop-color="#EAA628"/>
<stop offset="0.93" stop-color="#EAA628"/>
</radialGradient>
<radialGradient id="paint20_radial_54_4669" cx="0" cy="0" r="1" gradientUnits="userSpaceOnUse" gradientTransform="translate(6.43474 15.6344) rotate(5.49) scale(3.68032)">
<stop stop-color="#E17921"/>
<stop offset="0.47" stop-color="#EAA628"/>
<stop offset="0.93" stop-color="#EAA628"/>
</radialGradient>
<radialGradient id="paint21_radial_54_4669" cx="0" cy="0" r="1" gradientUnits="userSpaceOnUse" gradientTransform="translate(5.42124 19.1061) scale(3.20182)">
<stop stop-color="#E17921"/>
<stop offset="0.47" stop-color="#EAA628"/>
<stop offset="0.93" stop-color="#EAA628"/>
</radialGradient>
<radialGradient id="paint22_radial_54_4669" cx="0" cy="0" r="1" gradientUnits="userSpaceOnUse" gradientTransform="translate(4.0019 21.0155) rotate(-3.75) scale(4.66685)">
<stop stop-color="#E17921"/>
<stop offset="0.47" stop-color="#EAA628"/>
<stop offset="0.93" stop-color="#EAA628"/>
</radialGradient>
<radialGradient id="paint23_radial_54_4669" cx="0" cy="0" r="1" gradientUnits="userSpaceOnUse" gradientTransform="translate(6.70785 12.8732) rotate(10.8) scale(3.68031)">
<stop stop-color="#E17921"/>
<stop offset="0.47" stop-color="#EAA628"/>
<stop offset="0.93" stop-color="#EAA628"/>
</radialGradient>
<radialGradient id="paint24_radial_54_4669" cx="0" cy="0" r="1" gradientUnits="userSpaceOnUse" gradientTransform="translate(5.38 16.2395) rotate(5.31) scale(3.20182)">
<stop stop-color="#E17921"/>
<stop offset="0.47" stop-color="#EAA628"/>
<stop offset="0.93" stop-color="#EAA628"/>
</radialGradient>
<radialGradient id="paint25_radial_54_4669" cx="0" cy="0" r="1" gradientUnits="userSpaceOnUse" gradientTransform="translate(3.79042 18.0158) rotate(1.56) scale(4.66685 4.66685)">
<stop stop-color="#E17921"/>
<stop offset="0.47" stop-color="#EAA628"/>
<stop offset="0.93" stop-color="#EAA628"/>
</radialGradient>
<radialGradient id="paint26_radial_54_4669" cx="0" cy="0" r="1" gradientUnits="userSpaceOnUse" gradientTransform="translate(6.73121 10.9541) rotate(14.29) scale(3.68032 3.68031)">
<stop stop-color="#E17921"/>
<stop offset="0.47" stop-color="#EAA628"/>
<stop offset="0.93" stop-color="#EAA628"/>
</radialGradient>
<radialGradient id="paint27_radial_54_4669" cx="0" cy="0" r="1" gradientUnits="userSpaceOnUse" gradientTransform="translate(5.20221 14.2275) rotate(8.8) scale(3.20181 3.20182)">
<stop stop-color="#E17921"/>
<stop offset="0.47" stop-color="#EAA628"/>
<stop offset="0.93" stop-color="#EAA628"/>
</radialGradient>
<radialGradient id="paint28_radial_54_4669" cx="0" cy="0" r="1" gradientUnits="userSpaceOnUse" gradientTransform="translate(3.50656 15.9001) rotate(5.05) scale(4.66685 4.66685)">
<stop stop-color="#E17921"/>
<stop offset="0.47" stop-color="#EAA628"/>
<stop offset="0.93" stop-color="#EAA628"/>
</radialGradient>
<radialGradient id="paint29_radial_54_4669" cx="0" cy="0" r="1" gradientUnits="userSpaceOnUse" gradientTransform="translate(7.25935 9.42792) rotate(29.03) scale(2.53428)">
<stop stop-color="#E17921"/>
<stop offset="0.47" stop-color="#EAA628"/>
<stop offset="0.93" stop-color="#EAA628"/>
</radialGradient>
<radialGradient id="paint30_radial_54_4669" cx="0" cy="0" r="1" gradientUnits="userSpaceOnUse" gradientTransform="translate(5.66519 11.3472) rotate(23.54) scale(2.20642)">
<stop stop-color="#E17921"/>
<stop offset="0.47" stop-color="#EAA628"/>
<stop offset="0.93" stop-color="#EAA628"/>
</radialGradient>
<radialGradient id="paint31_radial_54_4669" cx="0" cy="0" r="1" gradientUnits="userSpaceOnUse" gradientTransform="translate(4.24517 12.1573) rotate(19.79) scale(3.21363 3.21363)">
<stop stop-color="#E17921"/>
<stop offset="0.47" stop-color="#EAA628"/>
<stop offset="0.93" stop-color="#EAA628"/>
</radialGradient>
<radialGradient id="paint32_radial_54_4669" cx="0" cy="0" r="1" gradientUnits="userSpaceOnUse" gradientTransform="translate(10.8759 21.038) scale(7.68554 7.68554)">
<stop stop-color="#E17921"/>
<stop offset="0.47" stop-color="#EAA628"/>
<stop offset="0.93" stop-color="#EAA628"/>
</radialGradient>
<radialGradient id="paint33_radial_54_4669" cx="0" cy="0" r="1" gradientUnits="userSpaceOnUse" gradientTransform="translate(11.2452 17.334) scale(11.4663)">
<stop stop-color="#E17921"/>
<stop offset="0.47" stop-color="#EAA628"/>
<stop offset="0.93" stop-color="#EAA628"/>
</radialGradient>
<radialGradient id="paint34_radial_54_4669" cx="0" cy="0" r="1" gradientUnits="userSpaceOnUse" gradientTransform="translate(11.978 15.3845) scale(11.3275 11.3275)">
<stop stop-color="#E17921"/>
<stop offset="0.47" stop-color="#EAA628"/>
<stop offset="0.93" stop-color="#EAA628"/>
</radialGradient>
<radialGradient id="paint35_radial_54_4669" cx="0" cy="0" r="1" gradientUnits="userSpaceOnUse" gradientTransform="translate(10.4945 12.0587) scale(8.81385)">
<stop stop-color="#E17921"/>
<stop offset="0.47" stop-color="#EAA628"/>
<stop offset="0.93" stop-color="#EAA628"/>
</radialGradient>
<radialGradient id="paint36_radial_54_4669" cx="0" cy="0" r="1" gradientUnits="userSpaceOnUse" gradientTransform="translate(13.2887 32.3475) scale(8.09906 8.09906)">
<stop stop-color="#E17921"/>
<stop offset="0.47" stop-color="#EAA628"/>
<stop offset="0.93" stop-color="#EAA628"/>
</radialGradient>
<radialGradient id="paint37_radial_54_4669" cx="0" cy="0" r="1" gradientUnits="userSpaceOnUse" gradientTransform="translate(11.1861 23.2975) scale(8.06361)">
<stop stop-color="#E17921"/>
<stop offset="0.47" stop-color="#EAA628"/>
<stop offset="0.93" stop-color="#EAA628"/>
</radialGradient>
<radialGradient id="paint38_radial_54_4669" cx="0" cy="0" r="1" gradientUnits="userSpaceOnUse" gradientTransform="translate(10.8436 27.0162) scale(9.68815 9.68815)">
<stop stop-color="#E17921"/>
<stop offset="0.47" stop-color="#EAA628"/>
<stop offset="0.93" stop-color="#EAA628"/>
</radialGradient>
</defs>
</svg>
