<svg width="30" height="31" viewBox="0 0 30 31" fill="none" xmlns="http://www.w3.org/2000/svg">
<path d="M10.1609 14.7765C8.696 15.192 7.18617 15.4435 5.66512 15.5226C3.98691 15.613 2.12348 15.418 0.961646 14.1916C0.23199 13.4229 -0.107581 12.3067 0.0299315 11.2526C0.167444 10.1985 0.77362 9.22354 1.63237 8.60748C1.25631 9.44397 0.967259 10.45 1.36857 11.2724C1.71375 11.9817 2.47428 12.3999 3.23481 12.5836C4.05707 12.7814 4.91582 12.7616 5.75773 12.6882C7.21985 12.5638 8.67074 12.2869 10.0795 11.8658C9.99535 12.9171 10.1076 13.7225 10.1581 14.7765H10.1609Z" fill="url(#paint0_radial_58_440)"/>
<path d="M26.971 16.9497C26.6595 15.6696 25.7951 14.5081 24.608 13.9542C24.2825 13.8016 23.9289 13.6999 23.5669 13.649C22.9242 11.7104 21.4817 10.0487 19.652 9.16139C17.7268 8.226 15.8634 8.226 13.767 8.65837C12.4396 8.93249 11.1768 9.51463 10.1019 10.3455C9.40875 10.8824 8.77451 11.5521 8.50791 12.3886C8.14028 13.536 8.51633 14.7483 8.71277 15.955C8.61736 15.9296 8.5051 15.9183 8.36759 15.938C7.49481 16.0567 6.30491 17.1984 5.97376 17.9812C5.83063 18.3175 5.76889 18.6792 5.72961 19.0409C5.67067 19.5637 5.65383 20.0922 5.67909 20.6178C6.08321 20.4963 6.49013 20.3748 6.8718 20.1883C7.59023 19.8407 8.19921 19.2698 8.60333 18.5775C8.59771 18.6368 8.5921 18.6962 8.59491 18.7555C8.61174 19.2953 8.94851 19.77 9.33298 20.1487C9.71465 20.5274 10.1581 20.8467 10.4836 21.2763C11.1627 22.1777 11.2189 23.407 11.0729 24.5289C10.9972 25.1167 10.8737 25.7074 10.9214 26.298C10.9663 26.8886 11.2161 27.5019 11.7184 27.8127C12.2544 28.1462 12.9392 28.0642 13.5453 28.2423C13.8989 28.3468 14.2245 28.539 14.5809 28.6351C14.9373 28.734 15.3611 28.717 15.6221 28.457C16.4696 28.2875 17.2329 28.2253 17.9485 27.7364C18.3919 27.434 18.7652 26.8547 19.1637 26.4958C19.4724 26.216 19.7783 25.9024 19.8933 25.5011C19.9972 25.1337 19.927 24.7381 19.8035 24.3792C19.7474 24.2124 19.6773 24.0457 19.6829 23.8677C19.6941 23.4975 20.0224 23.229 20.3171 23.0086C21.2572 22.3021 22.1581 21.5334 22.9326 20.6433C23.4181 20.0865 23.8644 19.462 24.0159 18.7357C24.0973 18.3486 24.0889 17.9501 24.0804 17.5545C24.0748 17.3454 24.0692 17.1362 24.0608 16.9243C25.0346 16.8932 26.0253 16.7491 26.9766 16.9441L26.971 16.9497Z" fill="url(#paint1_radial_58_440)"/>
<path d="M16.2261 19.9539C16.2261 19.4565 16.2261 18.9563 16.2289 18.4589C16.2289 18.3233 16.2317 18.1763 16.3075 18.0633C16.3693 17.97 16.4731 17.9107 16.5713 17.857C17.1382 17.549 17.7023 17.241 18.2692 16.9329C18.1738 17.0262 18.098 17.1901 18.0026 17.2805C18.0026 17.3964 18.0026 17.5122 17.9998 17.6281C17.9998 17.7638 17.9998 17.8994 17.9717 18.0294C17.91 18.3459 17.7079 18.6228 17.4525 18.8122C17.1971 19.0043 16.8884 19.1174 16.5769 19.1796C16.4675 19.4367 16.3356 19.6911 16.2261 19.951V19.9539Z" fill="#27292D"/>
<path d="M17.7108 17.4417C17.7697 17.7413 17.7052 18.0606 17.5452 18.3178C17.3852 18.5749 17.1355 18.7756 16.8548 18.8886C16.7089 18.948 16.5489 18.9875 16.3918 18.9734C16.2739 18.6512 16.3721 18.2584 16.6219 18.0239C16.7005 17.9504 16.7959 17.8911 16.8885 17.8345C17.1467 17.6848 17.4301 17.535 17.7108 17.4389V17.4417Z" fill="url(#paint2_radial_58_440)"/>
<path d="M16.9362 18.264C17.0681 18.2951 17.2 18.2414 17.2983 18.1566C17.3319 18.1284 17.36 18.0945 17.3796 18.0549C17.3937 18.021 17.4021 17.9843 17.4021 17.9447C17.4049 17.8684 17.3853 17.7836 17.3263 17.7271C17.2702 17.6734 17.1916 17.6536 17.1186 17.6621C17.0457 17.6678 16.9783 17.6988 16.911 17.7271C16.8071 17.7723 16.6416 17.8204 16.6612 17.9701C16.6809 18.103 16.8071 18.2386 16.9334 18.2669L16.9362 18.264Z" fill="#27292D"/>
<path d="M17.4631 17.7863C17.5136 17.8456 17.508 17.9332 17.4519 17.9812C17.3958 18.0293 17.3088 18.0236 17.2583 17.9643C17.2077 17.9049 17.2134 17.8173 17.2695 17.7693C17.3256 17.7213 17.4126 17.7269 17.4631 17.7863Z" fill="white"/>
<path d="M16.0431 27.2167C16.7363 27.0613 17.4575 27.0754 18.1647 27.1348C17.7775 27.2111 17.393 27.2874 17.0057 27.3609C16.8205 27.3976 16.6353 27.4343 16.4501 27.4767C15.9 27.6039 14.5137 28.0391 13.8963 28.3302C13.871 27.8187 15.6755 27.2987 16.0431 27.2167Z" fill="black"/>
<path d="M12.5972 28.2651C13.8376 28.3669 14.6486 27.6971 14.8956 27.5897C15.8049 27.1941 17.1323 27.3382 18.0892 27.0782C19.0125 26.8267 19.7197 26.2135 19.9386 25.2753C20.1603 24.3371 19.4559 23.1502 18.5158 22.9806C17.8872 22.8676 17.0228 23.153 16.4896 23.5062C15.9564 23.8595 15.3586 24.289 14.7525 24.4953C13.6383 24.874 11.8338 24.4049 11.0481 25.5466C10.0714 26.9624 11.281 28.1549 12.5972 28.2623V28.2651Z" fill="#FFE99D"/>
<path d="M12.3248 25.976C12.2154 26.1342 12.2406 26.3942 12.4146 26.479C12.5774 26.5581 12.7626 26.4592 12.917 26.3631C13.0292 26.2925 13.1471 26.2275 13.2678 26.1738C13.3548 26.137 13.5736 26.1201 13.6382 26.0636C13.7561 25.9647 13.6859 25.9307 13.5372 25.8403C13.206 25.6397 12.569 25.6199 12.322 25.976H12.3248Z" fill="black"/>
<path d="M17.0426 24.772C17.2194 24.8483 17.3344 25.0801 17.2334 25.244C17.138 25.3966 16.9275 25.4135 16.7479 25.4164C16.616 25.4164 16.4813 25.422 16.3494 25.4446C16.2568 25.4587 16.0604 25.5633 15.9762 25.552C15.8246 25.5322 15.8639 25.4644 15.9425 25.309C16.1193 24.9614 16.6469 24.6053 17.0426 24.7749V24.772Z" fill="black"/>
<path d="M26.9991 0C28.043 1.78035 27.9673 4.16264 26.8166 5.87517C25.6352 7.63008 23.5781 8.53722 21.5996 9.26066C20.1824 9.77781 18.7203 10.2526 17.2133 10.2752C17.0308 10.7019 17.0533 11.3264 17.1375 11.7842C17.2582 12.4399 17.4995 13.0927 17.9541 13.5787C18.406 14.0648 19.0963 14.3615 19.7446 14.2259C21.4032 13.8755 23.0056 13.2453 24.4509 12.3523C25.464 11.7277 26.4602 11.0551 27.2965 10.2017C28.1328 9.35109 28.8036 8.30266 29.0561 7.13554C29.3255 5.89212 29.1094 4.59501 28.7895 3.36572C28.4415 2.03752 28.0795 0.844961 27.0019 0.00282596L26.9991 0Z" fill="url(#paint3_radial_58_440)"/>
<path d="M15.2992 17.176C14.9007 17.6762 14.7464 18.329 14.6846 18.9677C14.5752 20.1009 14.7155 21.2567 15.0915 22.3305C14.9849 20.6491 14.9147 18.8207 15.8745 17.4416C16.2365 16.9217 16.7248 16.5006 17.0728 15.9721C17.4601 15.3787 17.7997 14.4066 17.5752 13.7001C17.3619 14.1579 17.3394 14.7089 17.129 15.178C16.7305 16.0626 15.8801 16.4554 15.302 17.1788L15.2992 17.176Z" fill="#27292D"/>
<path d="M27.6481 6.39203C27.5499 7.53089 26.8595 8.53128 26.0794 9.36494C25.3581 10.1364 24.5359 10.8288 23.6434 11.394C23.4077 11.5437 21.9624 12.2587 21.9343 11.719C21.9119 11.2979 23.5115 10.9079 23.8006 10.7581C25.5546 9.85665 27.1823 8.39281 27.6481 6.39203Z" fill="white"/>
<path d="M5.8474 14.4006C4.65189 14.6097 3.36938 14.6126 2.28331 14.0672C1.19725 13.5217 0.377787 12.3151 0.56862 11.1112C0.79313 12.2981 1.54804 13.4737 2.70427 13.8015C3.05506 13.9004 3.4227 13.9202 3.78472 13.9202C4.60418 13.9202 5.42083 13.8411 6.22345 13.6772C6.05227 13.9541 5.79689 14.0785 5.84459 14.4006H5.8474Z" fill="white"/>
<path opacity="0.45" d="M12.4537 17.7978C12.9251 18.8434 13.1889 19.9822 13.2226 21.1296C13.7727 19.2842 12.2516 17.3513 12.6024 15.4579C12.6838 15.0114 12.869 14.5903 13.0065 14.1551C13.405 12.9004 13.4191 11.4789 12.9869 10.2299C13.1412 11.5015 13.0234 12.3776 12.4312 13.4938C11.5276 15.1922 11.6791 16.0881 12.4509 17.7949L12.4537 17.7978Z" fill="white"/>
<path d="M11.0368 19.6855C10.4166 18.7982 9.74588 18.3178 9.20986 17.357C8.91238 16.8228 8.86468 16.399 8.63736 15.8394C8.86748 16.7635 8.89274 17.3767 9.30247 18.233C9.95635 19.5951 11.6121 20.9148 11.6374 22.4578C11.8198 21.5055 11.5869 20.4768 11.0368 19.6827V19.6855Z" fill="#27292D"/>
<path d="M21.1596 16.0427C21.8724 16.3988 22.6666 16.5881 23.4637 16.5938C24.5076 16.5994 25.5881 16.2971 26.5787 16.6362C26.1634 16.1642 25.5235 15.9466 24.9005 15.8788C24.2775 15.8082 23.6461 15.8647 23.0202 15.8364C22.3692 15.8053 21.7293 15.6838 21.0895 15.5623C20.7808 15.503 20.4468 15.4125 20.1662 15.3278C20.4524 15.6273 20.792 15.8619 21.1596 16.0456V16.0427Z" fill="#27292D"/>
<path d="M23.3233 30.7745C22.7115 28.3979 22.8518 25.8291 23.7218 23.5316C24.589 21.2369 26.183 19.2248 28.2092 17.8599C26.8369 19.8974 25.4225 22.014 24.4571 24.2748C23.4917 26.5356 23.1437 28.3187 23.3233 30.7745Z" fill="url(#paint4_radial_58_440)"/>
<path d="M6.84423 23.6954L7.09119 23.2433L7.33815 23.6954C7.57108 24.125 7.92188 24.4754 8.34564 24.71L8.79466 24.9586L8.34564 25.2073C7.91907 25.4419 7.57108 25.7951 7.33815 26.2218L7.09119 26.674L6.84423 26.2218C6.6113 25.7923 6.26051 25.4419 5.83674 25.2073L5.38773 24.9586L5.83674 24.71C6.26331 24.4754 6.6113 24.1222 6.84423 23.6954Z" fill="#FFE99D"/>
<path d="M2.87993 21.5202L3.01463 21.2743L3.14934 21.5202C3.27562 21.7547 3.46646 21.944 3.69939 22.074L3.94354 22.2097L3.69939 22.3453C3.46646 22.4725 3.27843 22.6647 3.14934 22.8992L3.01463 23.1451L2.87993 22.8992C2.75364 22.6647 2.56281 22.4753 2.32988 22.3453L2.08572 22.2097L2.32988 22.074C2.56281 21.9469 2.75083 21.7547 2.87993 21.5202Z" fill="#FFE99D"/>
<defs>
<radialGradient id="paint0_radial_58_440" cx="0" cy="0" r="1" gradientUnits="userSpaceOnUse" gradientTransform="translate(5.07859 12.0749) scale(4.33865 4.36893)">
<stop offset="0.05" stop-color="#548BEB"/>
<stop offset="0.46" stop-color="#78A1D6"/>
<stop offset="1" stop-color="#8FAED6"/>
</radialGradient>
<radialGradient id="paint1_radial_58_440" cx="0" cy="0" r="1" gradientUnits="userSpaceOnUse" gradientTransform="translate(14.7268 2.13323) scale(30.6063 30.8199)">
<stop offset="0.17" stop-color="#EA8928"/>
<stop offset="0.47" stop-color="#EAA628"/>
<stop offset="0.93" stop-color="#EAA628"/>
</radialGradient>
<radialGradient id="paint2_radial_58_440" cx="0" cy="0" r="1" gradientUnits="userSpaceOnUse" gradientTransform="translate(16.1633 18.5117) rotate(-40.9472) scale(4.59364 4.59826)">
<stop offset="0.17" stop-color="#EA8928"/>
<stop offset="0.47" stop-color="#EAA628"/>
<stop offset="0.93" stop-color="#EAA628"/>
</radialGradient>
<radialGradient id="paint3_radial_58_440" cx="0" cy="0" r="1" gradientUnits="userSpaceOnUse" gradientTransform="translate(23.1235 7.12706) scale(6.58374 6.6297)">
<stop offset="0.05" stop-color="#548BEB"/>
<stop offset="0.46" stop-color="#78A1D6"/>
<stop offset="1" stop-color="#8FAED6"/>
</radialGradient>
<radialGradient id="paint4_radial_58_440" cx="0" cy="0" r="1" gradientUnits="userSpaceOnUse" gradientTransform="translate(25.6894 24.3291) rotate(-5.31665) scale(4.87776 4.91122)">
<stop offset="0.17" stop-color="#EA8928"/>
<stop offset="0.47" stop-color="#EAA628"/>
<stop offset="0.93" stop-color="#EAA628"/>
</radialGradient>
</defs>
</svg>
