<svg width="202" height="30" viewBox="0 0 202 30" fill="none" xmlns="http://www.w3.org/2000/svg">
<path d="M8.64 22.4C9.96 22.22 10.08 20.75 8.19 17.63L5.07 12.5L4.62 13.01V20.24C4.62 21.71 5.31 22.4 6 22.4V23H0.45V22.4C1.14 22.4 1.83 21.71 1.83 20.24V4.67C1.83 3.2 1.14 2.51 0.45 2.51V1.91H6V2.51C5.31 2.51 4.62 3.2 4.62 4.67V11.81L10.8 4.91C12.06 3.5 11.28 2.6 10.8 2.6V2H15.51V2.6C14.4 2.6 12.96 3.47 11.79 4.79L7.05 10.22L11.91 18.38C13.62 21.23 14.58 21.98 15.36 22.4V23H8.64V22.4ZM24.1027 10.16C24.1027 9.17 23.3827 8.51 22.5427 8.51C21.2827 8.51 19.6927 9.98 19.6927 14.09V20.24C19.6927 21.71 20.3827 22.4 21.0727 22.4V23H15.5527V22.4C16.1527 22.4 16.7527 21.86 16.9027 20.75V8.36C16.0327 8.75 15.3127 9.44 14.9227 10.22V8.36C15.4327 7.67 16.1827 7.37 16.9927 7.37C18.6427 7.37 19.6627 8.6 19.6927 10.13V10.43C19.8727 8.78 21.1627 7.43 22.9327 7.43C24.5527 7.43 25.9627 8.6 25.9627 10.07C25.9627 11.39 24.8227 12.59 23.4427 12.59C22.4227 12.59 21.7627 11.93 21.7627 11.06C21.7627 10.22 22.3627 9.74 23.0227 9.74C23.3827 9.74 23.7727 9.89 24.1027 10.16ZM27.5735 3.98C27.5735 2.87 28.2935 2.15 29.4035 2.15C30.5135 2.15 31.2335 2.87 31.2335 3.98C31.2335 5.09 30.5135 5.81 29.4035 5.81C28.2935 5.81 27.5735 5.09 27.5735 3.98ZM27.1535 23V22.4C27.8435 22.4 28.5335 21.71 28.5335 20.24V8.12C27.8135 8.45 27.0335 9.26 26.5535 10.22V8.36C27.0635 7.67 27.8135 7.37 28.6235 7.37C30.2735 7.37 31.2935 8.6 31.3235 10.13V20.24C31.3235 21.71 32.0135 22.4 32.7035 22.4V23H27.1535ZM38.7741 22.31C40.8141 22.31 42.4641 21.26 42.4641 19.91C42.4641 16.76 33.5841 16.73 33.5841 11.75C33.5841 8.9 36.4641 7.52 39.1641 7.52C41.5341 7.52 43.7541 8.57 43.7541 10.61C43.7541 11.93 42.8241 13.16 41.2941 13.16C40.1541 13.16 39.4341 12.5 39.4341 11.69C39.4341 10.85 40.1841 10.4 41.0241 10.4C41.4141 10.4 41.8641 10.49 42.2541 10.73C42.2541 9.02 40.8141 8.27 39.2541 8.27C37.5441 8.27 35.7141 9.2 35.7141 10.73C35.7141 14.09 44.5041 14.15 44.5041 18.83C44.5041 21.29 42.1041 23.06 38.8641 23.06C35.6541 23.06 33.4641 21.35 33.4641 19.43C33.4641 18.17 34.3941 16.94 35.9241 16.94C37.0341 16.94 37.7841 17.6 37.7841 18.41C37.7841 19.25 37.0341 19.7 36.1641 19.7C35.7741 19.7 35.3241 19.61 34.9341 19.37C34.9341 20.51 36.0741 22.31 38.7741 22.31ZM49.429 11.42C49.729 9.35 51.799 7.31 54.019 7.31C56.539 7.31 58.339 9.95 58.339 13.64V20.24C58.339 21.71 59.029 22.4 59.719 22.4V23H54.199V22.4C54.889 22.4 55.579 21.71 55.579 20.24V13.52C55.579 10.16 54.559 8.78 53.359 8.78C51.589 8.78 49.429 11.78 49.429 16.01V20.24C49.429 21.71 50.119 22.4 50.809 22.4V23H45.259V22.4C45.949 22.4 46.639 21.71 46.639 20.24V1.46C45.769 1.85 45.049 2.54 44.659 3.32V1.46C45.169 0.769998 45.919 0.469999 46.729 0.469999C48.379 0.469999 49.399 1.7 49.429 3.23V11.42ZM64.4876 11.42C64.7876 9.35 66.8576 7.31 69.0776 7.31C71.5976 7.31 73.3976 9.95 73.3976 13.64V20.24C73.3976 21.71 74.0876 22.4 74.7776 22.4V23H69.2576V22.4C69.9476 22.4 70.6376 21.71 70.6376 20.24V13.52C70.6376 10.16 69.6176 8.78 68.4176 8.78C66.6476 8.78 64.4876 11.78 64.4876 16.01V20.24C64.4876 21.71 65.1776 22.4 65.8676 22.4V23H60.3476V22.4C60.9476 22.4 61.5476 21.86 61.6976 20.75V8.36C60.8276 8.75 60.1076 9.44 59.7176 10.22V8.36C60.2276 7.67 60.9776 7.37 61.7876 7.37C63.4376 7.37 64.4576 8.6 64.4876 10.13V11.42ZM79.4562 12.71C78.0762 12.71 76.9362 11.51 76.9362 10.16C76.9362 8.6 78.4962 7.55 80.8662 7.55C84.9162 7.55 86.8062 10.64 86.8062 14.21V20.6C86.8062 21.38 86.8662 22.07 87.1962 22.07C87.5262 22.07 87.7062 21.26 87.7062 20.66L88.1562 21.44C87.9762 22.34 87.3462 23.3 86.1162 23.3C84.7062 23.3 84.2262 22.01 84.0762 20.99C83.1162 22.31 81.6162 23.21 79.5462 23.21C76.8462 23.21 74.6262 21.59 74.6262 18.86C74.6262 14.54 80.2362 12.29 83.9862 12.65C83.8062 10.4 82.7262 8.3 80.7462 8.3C79.5162 8.3 78.5862 9.14 78.5862 10.28C78.9462 10.04 79.3362 9.95 79.6962 9.95C80.4762 9.95 81.1362 10.4 81.1362 11.24C81.1362 12.05 80.4762 12.71 79.4562 12.71ZM84.0162 13.52C81.0162 13.19 77.4462 15.23 77.4462 18.77C77.4462 20.69 78.4962 21.95 79.9362 21.95C82.4562 21.95 84.0162 18.59 84.0162 15.83V13.52ZM89.9435 29.78C88.1435 29.78 86.7935 28.7 86.7935 27.2C86.7935 25.79 87.9635 24.62 89.2835 24.62C90.2735 24.62 90.9935 25.25 90.9935 26.09C90.9935 26.93 90.3335 27.38 89.5535 27.38C89.1935 27.38 88.8035 27.29 88.4435 27.05C88.4435 28.19 89.1035 29.03 90.0935 29.03C92.0435 29.03 93.5435 25.64 94.2035 23L89.7635 11.54C88.6835 8.72 87.8435 8.42 87.3635 8.27V7.64H93.0335V8.27C92.4635 8.27 91.9235 9.11 92.7635 11.39L95.6435 19.31L98.2535 11.39C99.0035 9.08 98.5535 8.27 97.9835 8.27V7.64H101.824V8.27C101.344 8.42 100.144 8.66 99.1535 11.54L95.2235 23C94.2335 25.91 93.3335 29.78 89.9435 29.78ZM105.325 12.71C103.945 12.71 102.805 11.51 102.805 10.16C102.805 8.6 104.365 7.55 106.735 7.55C110.785 7.55 112.675 10.64 112.675 14.21V20.6C112.675 21.38 112.735 22.07 113.065 22.07C113.395 22.07 113.575 21.26 113.575 20.66L114.025 21.44C113.845 22.34 113.215 23.3 111.985 23.3C110.575 23.3 110.095 22.01 109.945 20.99C108.985 22.31 107.485 23.21 105.415 23.21C102.715 23.21 100.495 21.59 100.495 18.86C100.495 14.54 106.105 12.29 109.855 12.65C109.675 10.4 108.595 8.3 106.615 8.3C105.385 8.3 104.455 9.14 104.455 10.28C104.815 10.04 105.205 9.95 105.565 9.95C106.345 9.95 107.005 10.4 107.005 11.24C107.005 12.05 106.345 12.71 105.325 12.71ZM109.885 13.52C106.885 13.19 103.315 15.23 103.315 18.77C103.315 20.69 104.365 21.95 105.805 21.95C108.325 21.95 109.885 18.59 109.885 15.83V13.52ZM118.394 11.42C118.694 9.35 120.764 7.31 122.984 7.31C125.504 7.31 127.304 9.95 127.304 13.64V20.24C127.304 21.71 127.994 22.4 128.684 22.4V23H123.164V22.4C123.854 22.4 124.544 21.71 124.544 20.24V13.52C124.544 10.16 123.524 8.78 122.324 8.78C120.554 8.78 118.394 11.78 118.394 16.01V20.24C118.394 21.71 119.084 22.4 119.774 22.4V23H114.254V22.4C114.854 22.4 115.454 21.86 115.604 20.75V8.36C114.734 8.75 114.014 9.44 113.624 10.22V8.36C114.134 7.67 114.884 7.37 115.694 7.37C117.344 7.37 118.364 8.6 118.394 10.13V11.42ZM150.561 17.27L148.911 13.19H142.581L140.451 18.41C139.761 20.15 139.641 22.19 140.931 22.34V23H136.791V22.34C137.811 22.1 138.681 20.69 139.671 18.26L145.311 4.31L144.351 1.91H147.381L154.491 19.46C155.331 21.56 155.871 22.1 156.891 22.34V23H150.561V22.34C151.851 22.19 151.671 20.03 150.561 17.27ZM142.881 12.44H148.611L145.731 5.36L142.881 12.44ZM162.641 22.31C164.681 22.31 166.331 21.26 166.331 19.91C166.331 16.76 157.451 16.73 157.451 11.75C157.451 8.9 160.331 7.52 163.031 7.52C165.401 7.52 167.621 8.57 167.621 10.61C167.621 11.93 166.691 13.16 165.161 13.16C164.021 13.16 163.301 12.5 163.301 11.69C163.301 10.85 164.051 10.4 164.891 10.4C165.281 10.4 165.731 10.49 166.121 10.73C166.121 9.02 164.681 8.27 163.121 8.27C161.411 8.27 159.581 9.2 159.581 10.73C159.581 14.09 168.371 14.15 168.371 18.83C168.371 21.29 165.971 23.06 162.731 23.06C159.521 23.06 157.331 21.35 157.331 19.43C157.331 18.17 158.261 16.94 159.791 16.94C160.901 16.94 161.651 17.6 161.651 18.41C161.651 19.25 160.901 19.7 160.031 19.7C159.641 19.7 159.191 19.61 158.801 19.37C158.801 20.51 159.941 22.31 162.641 22.31ZM170.612 20.36V8.18H169.472V7.43C170.672 7.43 172.532 7.73 172.532 6.05C172.532 4.31 170.522 3.95 169.112 3.92L171.482 3.68C172.862 3.68 174.542 4.22 174.542 5.69C174.542 6.56 173.942 7.1 173.462 7.43H176.402V8.18H173.402V20.36C173.372 20.93 173.462 22.07 173.822 22.07C174.122 22.07 174.302 21.26 174.302 20.66L174.752 21.44C174.572 22.34 173.942 23.3 172.712 23.3C170.972 23.3 170.612 21.38 170.612 20.36ZM185.587 10.16C185.587 9.17 184.867 8.51 184.027 8.51C182.767 8.51 181.177 9.98 181.177 14.09V20.24C181.177 21.71 181.867 22.4 182.557 22.4V23H177.037V22.4C177.637 22.4 178.237 21.86 178.387 20.75V8.36C177.517 8.75 176.797 9.44 176.407 10.22V8.36C176.917 7.67 177.667 7.37 178.477 7.37C180.127 7.37 181.147 8.6 181.177 10.13V10.43C181.357 8.78 182.647 7.43 184.417 7.43C186.037 7.43 187.447 8.6 187.447 10.07C187.447 11.39 186.307 12.59 184.927 12.59C183.907 12.59 183.247 11.93 183.247 11.06C183.247 10.22 183.847 9.74 184.507 9.74C184.867 9.74 185.257 9.89 185.587 10.16ZM187.595 15.32C187.595 10.88 190.565 7.49 194.435 7.49C198.305 7.49 201.275 10.88 201.275 15.35C201.275 19.82 198.305 23.24 194.435 23.24C190.565 23.24 187.595 19.79 187.595 15.32ZM194.435 22.49C197.135 22.49 198.515 19.07 198.515 15.44C198.515 11.84 197.135 8.24 194.435 8.24C191.735 8.24 190.385 11.84 190.385 15.47C190.385 19.07 191.705 22.49 194.435 22.49Z" fill="url(#paint0_linear_193_140)"/>
<defs>
<linearGradient id="paint0_linear_193_140" x1="20.4881" y1="6.50005" x2="125.049" y2="88.7962" gradientUnits="userSpaceOnUse">
<stop stop-color="#C05AFF"/>
<stop offset="1" stop-color="#4D73F8"/>
</linearGradient>
</defs>
</svg>
