<svg width="32" height="33" viewBox="0 0 32 33" fill="none" xmlns="http://www.w3.org/2000/svg">
<path d="M19.9339 1.46331L25.2339 11.1935C28.1259 8.23524 31.0755 4.83631 31.0755 4.83631C31.3376 4.55403 31.0208 3.37881 30.3294 2.10853C29.6324 0.826736 28.8057 -0.0806036 28.4312 0.00580968C28.2728 0.0288532 23.9118 0.65391 19.9339 1.46331Z" fill="url(#paint0_radial_54_4903)"/>
<path d="M21.9819 14.2871C22.9267 13.4921 24.076 12.3774 25.2339 11.1935L19.9339 1.46338C18.3093 1.79463 16.751 2.15469 15.57 2.51762L21.9819 14.29V14.2871Z" fill="url(#paint1_radial_54_4903)"/>
<path d="M15.57 2.5173L21.9819 14.2897C22.9267 13.4947 24.076 12.3799 25.2339 11.1961L25.2282 11.1846C25.5796 10.7554 24.7932 8.45966 23.3962 5.89318C21.9992 3.32671 20.4985 1.41986 19.9454 1.48323L19.9368 1.46594C18.3122 1.79719 16.7539 2.15725 15.5729 2.52018L15.57 2.5173Z" fill="url(#paint2_radial_54_4903)"/>
<path d="M12.0784 8.24106C12.0813 9.01301 11.7702 9.36731 11.1019 9.3097C10.3444 9.24345 9.48026 8.97845 9.48026 8.97845C9.48026 8.97845 10.7736 11.4124 11.246 12.2996C11.246 12.2996 11.246 12.3054 11.2488 12.3054C11.3439 12.4811 11.4044 12.5963 11.413 12.6164H11.4188C11.9085 13.4921 13.2536 15.8973 13.2536 15.8973C13.2536 15.8973 13.4985 15.0274 13.8528 14.3562C14.1667 13.7629 14.6362 13.6937 15.2815 14.1143C16.0361 14.6068 17.9862 16.9458 20.8321 15.1541C21.1576 14.9496 21.5435 14.6529 21.9727 14.2957C21.9756 14.2957 21.9785 14.2957 21.9814 14.2929C22.5661 13.976 21.604 11.0812 19.8326 7.82915C18.0669 4.58577 16.1629 2.20941 15.5724 2.51762C15.0309 2.6818 14.5671 2.84887 14.2157 3.01305C11.1682 4.43311 12.0755 7.3366 12.0813 8.23818L12.0784 8.24106Z" fill="url(#paint3_radial_54_4903)"/>
<path d="M9.40228 8.99558C9.74794 8.80835 10.8713 10.2054 11.914 12.118C12.9567 14.0306 13.5213 15.7329 13.1757 15.9202C12.83 16.1074 11.7066 14.7104 10.6639 12.7978C9.6212 10.8852 9.05663 9.18281 9.40228 8.99558Z" fill="url(#paint4_radial_54_4903)"/>
<path opacity="0.45" d="M19.3944 10.6632C20.1376 11.7405 20.5696 13.0309 20.8087 14.3156C20.4919 14.5144 20.1693 14.7131 19.8207 14.8514C19.4722 14.9896 19.0891 15.0616 18.7204 14.9983C18.6311 13.7165 18.2336 12.5528 17.574 11.464C18.2826 11.2191 18.6455 11.0089 19.3944 10.6661V10.6632Z" fill="#FFE99D"/>
<path d="M10.6116 10.986C7.50355 12.1209 5.48724 15.1309 4.13344 18.1496C2.04799 22.7929 1.0168 27.825 0 32.814H4.2861C4.44164 28.8533 4.82762 24.9359 5.53045 21.2375C6.23328 17.539 7.81752 13.5121 10.6116 10.9888V10.986Z" fill="#FFE99D"/>
<path d="M10.865 32.5377C10.0787 29.1215 9.48817 25.6966 9.18572 22.3726C8.84295 18.6223 9.25773 14.316 11.251 11.1216C8.57507 13.0688 7.4661 16.5167 6.9937 19.7917C6.38593 24.0058 6.56164 28.2833 6.86696 32.5377H10.8679H10.865Z" fill="#FFE99D"/>
<path d="M3.33239 6.29091L3.62908 5.74939L3.92576 6.29091C4.20517 6.80075 4.62571 7.2213 5.13555 7.5007L5.67707 7.79738L5.13555 8.09407C4.62571 8.37347 4.20517 8.79402 3.92576 9.30386L3.62908 9.84538L3.33239 9.30386C3.05299 8.79402 2.63245 8.37347 2.12261 8.09407L1.58109 7.79738L2.12261 7.5007C2.63245 7.2213 3.05299 6.80075 3.33239 6.29091Z" fill="#FFE99D"/>
<path d="M7.08004 3.13389L7.24135 2.84009L7.40265 3.13389C7.55532 3.4133 7.78287 3.64085 8.06227 3.79351L8.35608 3.95482L8.06227 4.11612C7.78287 4.26879 7.55532 4.49634 7.40265 4.77575L7.24135 5.06955L7.08004 4.77575C6.92738 4.49634 6.69983 4.26879 6.42042 4.11612L6.12662 3.95482L6.42042 3.79351C6.69983 3.64085 6.92738 3.4133 7.08004 3.13389Z" fill="#FFE99D"/>
<defs>
<radialGradient id="paint0_radial_54_4903" cx="0" cy="0" r="1" gradientUnits="userSpaceOnUse" gradientTransform="translate(24.4378 0.348022) rotate(-118.57) scale(14.094)">
<stop offset="0.17" stop-color="#EA8928"/>
<stop offset="0.47" stop-color="#EAA628"/>
<stop offset="0.93" stop-color="#EAA628"/>
</radialGradient>
<radialGradient id="paint1_radial_54_4903" cx="0" cy="0" r="1" gradientUnits="userSpaceOnUse" gradientTransform="translate(10.4482 18.8549) rotate(-118.57) scale(55.3016 55.3016)">
<stop offset="0.47" stop-color="#EAA628"/>
<stop offset="0.93" stop-color="#EAA628"/>
</radialGradient>
<radialGradient id="paint2_radial_54_4903" cx="0" cy="0" r="1" gradientUnits="userSpaceOnUse" gradientTransform="translate(18.4419 -0.303359) rotate(-118.57) scale(14.9034 14.9034)">
<stop offset="0.05" stop-color="#548BEB"/>
<stop offset="0.46" stop-color="#78A1D6"/>
<stop offset="1" stop-color="#8FAED6"/>
</radialGradient>
<radialGradient id="paint3_radial_54_4903" cx="0" cy="0" r="1" gradientUnits="userSpaceOnUse" gradientTransform="translate(14.9385 1.88321) rotate(-118.57) scale(16.7239 16.7238)">
<stop offset="0.17" stop-color="#EA8928"/>
<stop offset="0.47" stop-color="#EAA628"/>
<stop offset="0.93" stop-color="#EAA628"/>
</radialGradient>
<radialGradient id="paint4_radial_54_4903" cx="0" cy="0" r="1" gradientUnits="userSpaceOnUse" gradientTransform="translate(8.86316 7.98887) rotate(-118.57) scale(10.7786 10.7786)">
<stop offset="0.05" stop-color="#548BEB"/>
<stop offset="0.46" stop-color="#78A1D6"/>
<stop offset="1" stop-color="#8FAED6"/>
</radialGradient>
</defs>
</svg>
