<svg width="20" height="34" viewBox="0 0 20 34" fill="none" xmlns="http://www.w3.org/2000/svg">
<path d="M5.81934 12.262C5.90731 12.4753 5.99528 12.6912 6.00861 12.9205C6.02726 13.2297 5.90464 13.5389 5.71538 13.7841C5.52611 14.0294 5.27287 14.2187 5.0063 14.3786C4.71308 14.5545 4.40119 14.6958 4.07864 14.8051C4.04132 14.8184 4.01733 14.8264 3.98001 14.8371C4.34788 15.3862 4.81704 15.954 5.15025 16.5112C5.49679 16.3725 5.85133 16.2126 6.16055 16.0047C6.53108 15.7568 6.88295 15.4475 7.03756 15.0317C7.1282 14.7918 7.14686 14.5305 7.14419 14.2746C7.14153 14.048 7.12287 13.8188 7.05889 13.6002C6.98425 13.3443 6.85363 13.1097 6.70702 12.8858C6.58973 12.7072 6.45911 12.5339 6.29383 12.4033C6.1259 12.2727 5.91797 12.1821 5.70472 12.1954C5.75803 12.23 5.79535 12.2061 5.81934 12.2647V12.262Z" fill="url(#paint0_radial_54_332)"/>
<path d="M9.17544 0C9.00484 0.0453168 8.86889 0.181267 8.79425 0.325215C8.71694 0.469162 8.67962 0.623773 8.66096 0.778383C8.63164 1.08494 8.65563 1.37017 8.69029 1.65806C8.72761 1.94329 8.78092 2.21786 8.81557 2.48443C8.85289 2.751 8.87688 3.0149 8.85556 3.24948C8.83423 3.48939 8.77292 3.72398 8.67696 3.9239C8.62631 4.02253 8.57033 4.1105 8.50635 4.18514C8.43971 4.25711 8.36774 4.31309 8.2931 4.35308C8.14382 4.43305 7.97588 4.44905 7.73863 4.43039C7.62401 4.41972 7.49606 4.40373 7.35744 4.3824C7.21616 4.36374 7.07488 4.34242 6.89094 4.33709C6.71501 4.33442 6.5364 4.34508 6.34981 4.38773C6.16321 4.43038 5.96595 4.49703 5.77135 4.63298C5.67538 4.69695 5.58209 4.78492 5.49945 4.88089C5.41948 4.98218 5.35017 5.09414 5.30485 5.21143C5.20622 5.44868 5.18756 5.72591 5.23021 5.95516C5.2702 6.18708 5.3555 6.37634 5.44614 6.54428C5.53943 6.70955 5.64073 6.8535 5.74736 6.98679C5.84866 7.11474 5.97927 7.24802 6.05391 7.33066C6.13655 7.42396 6.21119 7.51193 6.26984 7.59723C6.32848 7.67987 6.3738 7.75717 6.39512 7.81582C6.41645 7.87446 6.41378 7.90379 6.40845 7.90912H6.40312C6.40045 7.90912 6.39779 7.90912 6.39779 7.90912C6.39246 7.90379 6.39779 7.90112 6.39246 7.89579C6.39246 7.88779 6.37913 7.89579 6.34181 7.91178C6.26984 7.94377 6.11522 7.96776 6.00327 7.94377C5.84066 7.91978 5.63273 7.85047 5.37416 7.75984C5.24354 7.71452 5.0996 7.66121 4.93965 7.61589C4.85968 7.5919 4.77438 7.57057 4.68375 7.54925C4.58778 7.52792 4.48382 7.51193 4.38519 7.4986C3.98267 7.45861 3.54016 7.47194 3.05234 7.71186C2.81243 7.83448 2.56985 8.02907 2.39658 8.28231C2.21531 8.53555 2.11402 8.84211 2.08203 9.12734C2.05004 9.41257 2.08203 9.67914 2.15134 9.92438C2.22064 10.1696 2.32461 10.3935 2.46589 10.6041C2.75645 11.0173 3.09766 11.2706 3.41488 11.4625C3.73209 11.6518 4.01466 11.7717 4.26257 11.8837C4.77171 12.1076 5.23555 12.2942 5.62474 12.5074C5.7207 12.5608 5.814 12.6141 5.90197 12.67C5.98461 12.726 6.06724 12.782 6.14188 12.8433C6.29916 12.9633 6.43244 13.1046 6.5444 13.2458C6.65903 13.3898 6.739 13.5391 6.79764 13.691C6.8243 13.7683 6.84296 13.8456 6.85362 13.9283C6.85629 13.9496 6.86162 13.9709 6.86428 13.9896V14.0535C6.86695 14.0962 6.87228 14.1388 6.86428 14.1842C6.85362 14.3601 6.80564 14.552 6.71234 14.7466C6.61904 14.9412 6.48576 15.1358 6.32581 15.3224C6.00593 15.7009 5.49945 16.0155 5.01163 16.2981L5.14225 16.514C5.43814 16.5246 5.7367 16.49 6.03525 16.4207C6.33381 16.354 6.62704 16.2474 6.9096 16.0981C7.19217 15.9489 7.46673 15.7569 7.70931 15.509C7.95455 15.2638 8.16514 14.9519 8.30643 14.5947C8.44504 14.2375 8.51168 13.8323 8.4797 13.4351C8.45037 13.0379 8.33308 12.6594 8.17048 12.3208C8.00787 11.9796 7.79195 11.6837 7.55203 11.4145C7.43208 11.2786 7.29879 11.1586 7.16551 11.0413C7.03489 10.9267 6.89894 10.8227 6.76299 10.7241C6.21119 10.3376 5.65139 10.0817 5.14225 9.86307C4.88367 9.75111 4.64909 9.65781 4.48382 9.57251C4.40118 9.52986 4.32921 9.49254 4.2759 9.45789C4.24924 9.43923 4.22525 9.42323 4.20392 9.40724C4.19326 9.39924 4.18526 9.39124 4.1746 9.38325C4.16927 9.37792 4.16394 9.37791 4.1586 9.37258C4.13728 9.35659 4.11329 9.3326 4.09729 9.31127C4.0813 9.28995 4.0733 9.27662 4.06264 9.28728C4.05464 9.29528 4.03332 9.32727 4.00933 9.35126C3.988 9.36992 3.95868 9.37792 3.96134 9.36459C3.96401 9.33793 4.09729 9.28195 4.24657 9.28195C4.28389 9.28195 4.31855 9.28195 4.3612 9.28728C4.40918 9.29261 4.45983 9.30061 4.51314 9.31127C4.62244 9.3326 4.74506 9.36192 4.87834 9.39657C5.14758 9.46588 5.47812 9.55652 5.87265 9.57784C6.31249 9.59384 6.72833 9.50853 7.13885 9.25796C7.34144 9.13267 7.54137 8.94607 7.68532 8.70349C7.75729 8.58354 7.81061 8.44759 7.84526 8.30897C7.86126 8.24233 7.87192 8.17302 7.87991 8.10638C7.88525 8.03707 7.88791 7.96776 7.88525 7.90112C7.87458 7.62655 7.78928 7.38398 7.69065 7.19471C7.58935 7.00278 7.47473 6.85084 7.35744 6.71755C7.24015 6.58693 7.12286 6.47497 7.00823 6.37101C6.88295 6.25905 6.81097 6.20307 6.731 6.12044C6.57639 5.97116 6.46177 5.80322 6.43244 5.71792C6.41911 5.67526 6.41378 5.6646 6.41378 5.64328C6.41378 5.61929 6.41378 5.60329 6.44577 5.5713C6.50708 5.50199 6.69901 5.42735 6.90427 5.41403C6.99757 5.40336 7.13619 5.40603 7.26947 5.4087C7.40809 5.41136 7.55737 5.41669 7.71997 5.4087C7.87992 5.40336 8.05852 5.3847 8.23978 5.33672C8.42105 5.28874 8.60498 5.2061 8.75959 5.09148C8.91687 4.97952 9.04749 4.83824 9.14879 4.69162C9.25008 4.54234 9.32472 4.38507 9.3807 4.22513C9.49 3.90791 9.52465 3.58536 9.51132 3.27081C9.47133 2.63371 9.25808 2.10856 9.12213 1.58342C9.05015 1.32485 8.99418 1.05828 8.98085 0.807706C8.97285 0.565127 9.03683 0.301224 9.23142 0.213256L9.16478 0.0133285L9.17544 0Z" fill="url(#paint1_radial_54_332)"/>
<path d="M6.07255 16.4288C7.42939 17.0099 8.47967 18.2628 8.81288 19.6996C9.18608 21.315 8.69026 22.997 8.10114 24.5458C7.51202 26.0946 6.81361 27.654 6.77096 29.3094C6.73364 30.7569 7.22146 32.2097 8.12513 33.3426C8.0345 32.4789 8.49033 31.6445 9.07146 30.9968C10.7882 29.0801 13.4752 28.435 15.9889 27.8886C17.0259 27.662 18.0975 27.4354 19.1425 27.6353C18.3881 25.2309 17.4977 22.6425 15.4025 21.2457C15.2532 21.147 15.0853 21.0511 14.9067 21.0644C14.9333 18.7772 13.6218 16.61 11.8091 15.2132C9.99645 13.8164 7.73861 13.11 5.47543 12.7634C5.6567 14.043 6.13653 15.1386 6.07788 16.4288H6.07255Z" fill="url(#paint2_radial_54_332)"/>
<path d="M1.74841 28.1737C1.50849 28.6908 1.4845 29.3013 1.6791 29.8344C1.61246 29.5385 1.83371 29.2586 2.05763 29.0507C2.93464 28.235 4.12887 27.6565 4.56338 26.5423C5.04054 25.324 4.37145 23.9139 3.38514 23.0529C2.64941 22.4104 1.78306 21.912 1.6791 20.843C0.634146 21.9679 1.27391 22.8689 1.91635 23.9565C2.96663 25.7399 2.54278 26.457 1.74841 28.171V28.1737Z" fill="url(#paint3_radial_54_332)"/>
<path d="M11.9476 14.2936C10.7881 14.2403 10.0577 14.6801 9.44989 15.3332C9.29261 14.9947 9.10868 14.7041 8.89276 14.4082C8.38894 13.7232 6.7682 12.6436 6.7682 12.6436L5.34472 12.7555L2.34048 15.917C2.34048 15.917 2.5564 16.5301 2.48443 16.8527C2.41245 17.1779 0 20.6326 0 20.6326C0 20.6326 0.146613 20.8219 0.271901 21.483C0.397188 22.1441 0.181267 22.6133 0.829031 22.9731C1.47679 23.333 1.0103 23.7302 2.26851 23.261L3.52938 22.7919C3.52938 22.7919 4.96885 22.3254 5.47267 23.3676C5.97649 24.4126 7.74118 23.4743 8.85544 22.1441C9.97236 20.8112 10.151 18.4015 9.93504 17.0686C9.89772 16.8394 9.85774 16.6341 9.81509 16.4422C10.2709 16.4608 10.7294 16.5195 11.1773 16.4368C12.2862 16.2316 13.0406 15.2266 13.6803 14.2963C13.1285 14.4829 12.5288 14.3149 11.9476 14.2883V14.2936Z" fill="url(#paint4_linear_54_332)"/>
<path d="M5.47003 17.3695C5.67796 17.1269 5.88855 16.887 6.09647 16.6444C6.15512 16.5777 6.21643 16.5084 6.30173 16.4844C6.37104 16.4658 6.44568 16.4818 6.51765 16.4951C6.92284 16.5831 7.32802 16.6737 7.73321 16.7617C7.6479 16.767 7.54394 16.815 7.45597 16.8177C7.40799 16.8736 7.35734 16.9296 7.30936 16.9856C7.25338 17.0496 7.19474 17.1162 7.12809 17.1695C6.96549 17.2975 6.75223 17.3455 6.54697 17.3321C6.34171 17.3188 6.14445 17.2415 5.96319 17.1402C5.80324 17.2202 5.62997 17.2868 5.47003 17.3668V17.3695Z" fill="#27292D"/>
<path d="M7.24809 16.7749C7.15213 16.9455 6.98685 17.0708 6.80025 17.1295C6.61366 17.1881 6.4084 17.1801 6.22446 17.1161C6.1285 17.0841 6.0352 17.0362 5.96323 16.9615C6.04053 16.7563 6.25112 16.607 6.47237 16.5963C6.54168 16.5963 6.61366 16.6043 6.68296 16.6176C6.87223 16.6523 7.07216 16.7003 7.25076 16.7722L7.24809 16.7749Z" fill="url(#paint5_radial_54_332)"/>
<path d="M6.52256 16.8472C6.57325 16.9166 6.66129 16.9486 6.744 16.9486C6.77068 16.9486 6.80002 16.9459 6.8267 16.9326C6.84805 16.9219 6.86672 16.9059 6.8854 16.8899C6.92008 16.8525 6.94409 16.8045 6.94142 16.7512C6.93609 16.7005 6.90407 16.6578 6.86672 16.6311C6.82937 16.6044 6.78402 16.5884 6.73866 16.5751C6.66929 16.5537 6.56791 16.5084 6.51722 16.5884C6.4692 16.6605 6.47454 16.7805 6.52523 16.8472H6.52256Z" fill="#27292D"/>
<path d="M6.98181 16.8362C6.98181 16.8869 6.94183 16.9269 6.89385 16.9269C6.84586 16.9269 6.80588 16.8869 6.80588 16.8362C6.80588 16.7856 6.84586 16.7456 6.89385 16.7456C6.94183 16.7456 6.98181 16.7856 6.98181 16.8362Z" fill="white"/>
<path d="M0.255719 21.2055C0.463643 21.3441 0.631582 21.5414 0.73821 21.7653C0.73821 21.5121 0.895486 21.2855 1.09008 21.1229C1.28468 20.9629 1.51393 20.851 1.72452 20.7124C1.78316 20.6724 1.84714 20.6137 1.82848 20.5444C1.96443 20.6964 1.98042 20.939 1.8658 21.1069C1.74584 21.2828 1.52726 21.3521 1.32733 21.4321C1.13007 21.5094 0.916811 21.6347 0.87416 21.8426C0.8555 21.9306 0.871494 22.0212 0.887489 22.1065C0.908814 22.2158 0.938137 22.3251 0.996782 22.4184C1.14606 22.653 1.45795 22.725 1.73518 22.7276C2.57754 22.7356 3.37725 22.2931 3.94771 21.6747C3.99036 21.7173 3.96104 21.7893 3.92638 21.8373C3.68647 22.1785 3.33993 22.4371 2.95873 22.6024C2.57754 22.7676 2.15903 22.8449 1.74318 22.8636C1.54058 22.8716 1.31133 22.8583 1.17005 22.7143C1.06876 22.7756 0.916811 22.7516 0.812849 22.6956C0.671567 22.621 0.551611 22.5091 0.463643 22.3731C0.455646 22.3624 0.450315 22.3411 0.463643 22.3358C0.575602 22.3731 0.658239 22.4664 0.748872 22.5437C0.839506 22.6183 0.967459 22.6797 1.07409 22.6317C0.956797 22.549 0.871494 22.4291 0.812849 22.2958C0.75687 22.1652 0.724881 22.0239 0.70089 21.8826C0.562274 21.736 0.420992 21.608 0.263716 21.4828C0.277044 21.3548 0.314364 21.3148 0.245056 21.2055H0.255719Z" fill="#27292D"/>
<path d="M9.30872 11.9956C9.08747 12.0596 8.86355 12.1235 8.67695 12.2542C8.42104 12.4328 8.25577 12.718 8.18113 13.0192C8.10649 13.3204 8.11449 13.6377 8.15447 13.9442C8.19713 14.2828 8.27976 14.616 8.39705 14.9359C8.41038 14.9732 8.41838 14.9972 8.43437 15.0345C7.77595 15.0878 7.03755 15.0718 6.39512 15.1571C6.28849 14.7999 6.19519 14.4214 6.16587 14.0482C6.13121 13.6057 6.1552 13.1365 6.38445 12.7553C6.51774 12.5367 6.70967 12.3608 6.91226 12.2035C7.09086 12.0649 7.28279 11.9396 7.49338 11.8516C7.73863 11.7504 8.0052 11.7077 8.27176 11.6837C8.48502 11.665 8.70094 11.6597 8.9062 11.7104C9.11413 11.7583 9.31139 11.8676 9.43667 12.0436C9.37536 12.0249 9.3727 11.9769 9.31139 11.9956H9.30872Z" fill="url(#paint6_radial_54_332)"/>
<path d="M16.8471 1.75671C16.9164 1.91666 16.8951 2.10859 16.8284 2.2552C16.7645 2.40714 16.6658 2.52977 16.5565 2.64172C16.3353 2.85498 16.0954 3.01226 15.8475 3.1642C15.6022 3.31081 15.3516 3.44143 15.1197 3.57738C14.8878 3.71333 14.6666 3.85995 14.4933 4.02255C14.3173 4.18783 14.1707 4.38242 14.0748 4.57968C14.0295 4.67832 13.9948 4.77961 13.9761 4.87558C13.9601 4.97154 13.9628 5.06218 13.9761 5.14748C14.0055 5.31275 14.0961 5.4567 14.2587 5.62997C14.3387 5.71527 14.432 5.80324 14.5333 5.8992C14.6346 5.99783 14.7412 6.09647 14.8585 6.23775C14.9704 6.3737 15.0717 6.52031 15.1544 6.69358C15.237 6.86685 15.3063 7.06411 15.3223 7.29869C15.333 7.41332 15.3223 7.54127 15.2957 7.66389C15.2663 7.78918 15.2237 7.91447 15.157 8.02376C15.0318 8.25035 14.8265 8.43428 14.6212 8.54357C14.4133 8.65553 14.2134 8.70618 14.0268 8.73817C13.8402 8.77016 13.6616 8.77815 13.4936 8.77549C13.3284 8.77549 13.1444 8.75416 13.0325 8.74883C12.9072 8.74083 12.7926 8.73817 12.6886 8.7435C12.5873 8.74883 12.4993 8.76216 12.4407 8.78082C12.3821 8.79948 12.3581 8.82081 12.3607 8.8288V8.83413C12.3607 8.8368 12.3607 8.83947 12.3607 8.83947C12.3661 8.83947 12.3687 8.8368 12.3741 8.8368C12.3821 8.83413 12.3794 8.84746 12.3927 8.88478C12.4114 8.95942 12.4887 9.09804 12.5766 9.17001C12.6966 9.28197 12.8779 9.40193 13.1125 9.54854C13.2297 9.62318 13.3604 9.70315 13.4963 9.79912C13.5656 9.8471 13.6349 9.90041 13.7069 9.95906C13.7815 10.0204 13.8588 10.0923 13.9308 10.1643C14.2107 10.4575 14.4773 10.8094 14.5892 11.3426C14.6426 11.6065 14.6372 11.9183 14.5493 12.2116C14.464 12.5101 14.2854 12.782 14.0801 12.982C13.8748 13.1845 13.6456 13.3232 13.411 13.4218C13.1764 13.5204 12.9365 13.5764 12.6833 13.5977C12.1795 13.6244 11.7689 13.5151 11.4224 13.3871C11.0759 13.2539 10.8066 13.1099 10.5667 12.982C10.0762 12.7207 9.64172 12.4728 9.23387 12.2995C9.13257 12.2569 9.03127 12.2169 8.93264 12.1822C8.83668 12.1503 8.74338 12.1209 8.64741 12.1023C8.45548 12.0543 8.26089 12.0356 8.07962 12.0356C7.89569 12.0356 7.72775 12.065 7.57314 12.1129C7.49583 12.1396 7.42386 12.1716 7.35455 12.2142C7.33589 12.2249 7.31723 12.2329 7.29857 12.2436L7.24792 12.2809C7.21327 12.3049 7.17595 12.3289 7.14663 12.3635C7.01601 12.4808 6.89339 12.6381 6.80009 12.8327C6.70679 13.0273 6.63481 13.2512 6.5895 13.4911C6.49087 13.9763 6.56017 14.568 6.64014 15.1252L6.39224 15.1572C6.2003 14.9306 6.04036 14.6747 5.90974 14.4001C5.77646 14.1255 5.68049 13.827 5.62185 13.5124C5.56587 13.1979 5.54454 12.8647 5.5872 12.5181C5.62718 12.1742 5.74181 11.8144 5.9364 11.4838C6.131 11.1533 6.40823 10.8521 6.73878 10.6281C7.06932 10.4042 7.43985 10.2629 7.80505 10.1803C8.17292 10.0977 8.54079 10.0817 8.90065 10.103C9.08192 10.1137 9.25786 10.143 9.43379 10.175C9.6044 10.207 9.76967 10.2496 9.93228 10.2949C10.5774 10.4869 11.1265 10.7694 11.6117 11.0333C11.8596 11.1666 12.0782 11.2919 12.2488 11.3692C12.3341 11.4065 12.406 11.4412 12.47 11.4598C12.4993 11.4705 12.5287 11.4785 12.5527 11.4838C12.566 11.4892 12.5766 11.4892 12.59 11.4918C12.598 11.4918 12.6006 11.4945 12.6086 11.4972C12.6353 11.5052 12.6699 11.5078 12.6939 11.5078C12.7179 11.5078 12.7366 11.5078 12.7339 11.5185C12.7339 11.5292 12.7206 11.5665 12.7179 11.5985C12.7179 11.6278 12.7286 11.6544 12.7366 11.6438C12.7552 11.6251 12.7179 11.4838 12.6246 11.3692C12.6006 11.3399 12.5793 11.3132 12.55 11.2839C12.5153 11.2493 12.4807 11.2146 12.438 11.1799C12.3554 11.108 12.2568 11.0307 12.1448 10.9454C11.9236 10.7748 11.6463 10.5722 11.3877 10.2789C11.1025 9.94306 10.9133 9.56453 10.8546 9.08738C10.828 8.85013 10.8493 8.57823 10.9506 8.31432C11.0012 8.1837 11.0732 8.05575 11.1585 7.94379C11.2011 7.89048 11.2491 7.83983 11.2971 7.78918C11.3478 7.74386 11.4011 7.69588 11.4544 7.6559C11.6756 7.49329 11.9182 7.41065 12.1288 7.37067C12.3421 7.33068 12.534 7.32802 12.7099 7.33601C12.8859 7.34668 13.0458 7.368 13.1978 7.39466C13.363 7.42398 13.451 7.44264 13.5656 7.45597C13.7789 7.48529 13.9815 7.4693 14.0668 7.43998C14.1094 7.42398 14.1201 7.42132 14.1387 7.40799C14.1574 7.39466 14.1681 7.384 14.1761 7.33868C14.1921 7.24805 14.1307 7.05078 14.0161 6.88018C13.9655 6.80021 13.8802 6.69358 13.7949 6.58962C13.7069 6.48299 13.6109 6.36837 13.515 6.23775C13.419 6.10713 13.323 5.95785 13.2484 5.78458C13.1738 5.61397 13.1231 5.41671 13.1178 5.22478C13.1098 5.03285 13.1364 4.84359 13.1898 4.67032C13.2457 4.49971 13.323 4.34244 13.411 4.19849C13.5923 3.91593 13.8242 3.68934 14.0801 3.50541C14.6052 3.14021 15.149 2.98293 15.6449 2.76435C15.8928 2.66038 16.1354 2.54043 16.3406 2.39381C16.5352 2.2472 16.7031 2.03661 16.6498 1.82869L16.8498 1.75671H16.8471Z" fill="url(#paint7_radial_54_332)"/>
<path opacity="0.45" d="M6.66147 23.453C8.07695 23.2344 9.30317 22.1761 9.83098 20.8459C10.3588 19.5157 10.2148 17.9616 9.55375 16.6927C9.82565 19.4651 8.93797 21.8455 6.66147 23.453Z" fill="white"/>
<path opacity="0.45" d="M11.8488 16.1462C12.5872 15.7596 13.155 15.1039 13.5655 14.3815C12.8031 15.1865 11.7129 15.6077 10.6226 15.8183C10.4147 15.8583 9.78824 15.8876 9.65496 16.0689C9.48168 16.3061 9.85755 16.4154 10.0468 16.45C10.6546 16.562 11.3024 16.4341 11.8488 16.1488V16.1462Z" fill="white"/>
<path d="M17.2679 24.6896C14.9861 25.1028 12.6803 25.7559 10.8329 27.1581C8.98562 28.5602 7.6661 30.8367 7.93534 33.1399C7.42886 30.7221 7.98865 28.1417 9.26818 26.0278C10.5477 23.9166 12.5097 22.2612 14.7169 21.1549C16.0257 21.9839 16.7055 23.2448 17.2653 24.6896H17.2679Z" fill="url(#paint8_radial_54_332)"/>
<path d="M17.6366 14.6029L17.8712 14.1764L18.1057 14.6029C18.327 15.0081 18.6602 15.3386 19.0627 15.5599L19.4892 15.7945L19.0627 16.029C18.6575 16.2503 18.327 16.5835 18.1057 16.986L17.8712 17.4125L17.6366 16.986C17.4153 16.5808 17.0821 16.2503 16.6796 16.029L16.2531 15.7945L16.6796 15.5599C17.0848 15.3386 17.4153 15.0054 17.6366 14.6029Z" fill="white"/>
<path d="M17.6312 19.745L17.7059 19.609L17.7805 19.745C17.8498 19.8729 17.9565 19.9769 18.0817 20.0462L18.2177 20.1208L18.0817 20.1955C17.9538 20.2648 17.8498 20.3714 17.7805 20.4967L17.7059 20.6326L17.6312 20.4967C17.5619 20.3687 17.4553 20.2648 17.33 20.1955L17.1941 20.1208L17.33 20.0462C17.458 19.9769 17.5619 19.8702 17.6312 19.745Z" fill="white"/>
<defs>
<radialGradient id="paint0_radial_54_332" cx="0" cy="0" r="1" gradientUnits="userSpaceOnUse" gradientTransform="translate(4.03148 15.4828) rotate(-128.33) scale(6.72555)">
<stop offset="0.05" stop-color="#548BEB"/>
<stop offset="0.46" stop-color="#78A1D6"/>
<stop offset="1" stop-color="#8FAED6"/>
</radialGradient>
<radialGradient id="paint1_radial_54_332" cx="0" cy="0" r="1" gradientUnits="userSpaceOnUse" gradientTransform="translate(7.24324 8.41735) rotate(-128.33) scale(6.73888)">
<stop offset="0.05" stop-color="#548BEB"/>
<stop offset="0.46" stop-color="#78A1D6"/>
<stop offset="1" stop-color="#8FAED6"/>
</radialGradient>
<radialGradient id="paint2_radial_54_332" cx="0" cy="0" r="1" gradientUnits="userSpaceOnUse" gradientTransform="translate(8.43169 29.9572) scale(27.7765 27.7765)">
<stop offset="0.17" stop-color="#EA8928"/>
<stop offset="0.47" stop-color="#EAA628"/>
<stop offset="0.93" stop-color="#EAA628"/>
</radialGradient>
<radialGradient id="paint3_radial_54_332" cx="0" cy="0" r="1" gradientUnits="userSpaceOnUse" gradientTransform="translate(2.42549 19.2196) scale(20.4592 20.4592)">
<stop offset="0.05" stop-color="#548BEB"/>
<stop offset="0.46" stop-color="#78A1D6"/>
<stop offset="1" stop-color="#8FAED6"/>
</radialGradient>
<linearGradient id="paint4_linear_54_332" x1="-0.709075" y1="21.4483" x2="20.5498" y2="11.3827" gradientUnits="userSpaceOnUse">
<stop offset="0.17" stop-color="#EA8928"/>
<stop offset="0.47" stop-color="#EAA628"/>
<stop offset="0.93" stop-color="#EAA628"/>
</linearGradient>
<radialGradient id="paint5_radial_54_332" cx="0" cy="0" r="1" gradientUnits="userSpaceOnUse" gradientTransform="translate(6.04053 16.639) scale(2.95626 2.95626)">
<stop offset="0.17" stop-color="#EA8928"/>
<stop offset="0.47" stop-color="#EAA628"/>
<stop offset="0.93" stop-color="#EAA628"/>
</radialGradient>
<radialGradient id="paint6_radial_54_332" cx="0" cy="0" r="1" gradientUnits="userSpaceOnUse" gradientTransform="translate(7.88524 15.3997) scale(6.72555)">
<stop offset="0.05" stop-color="#548BEB"/>
<stop offset="0.46" stop-color="#78A1D6"/>
<stop offset="1" stop-color="#8FAED6"/>
</radialGradient>
<radialGradient id="paint7_radial_54_332" cx="0" cy="0" r="1" gradientUnits="userSpaceOnUse" gradientTransform="translate(11.4384 8.49826) scale(6.73888)">
<stop offset="0.05" stop-color="#548BEB"/>
<stop offset="0.46" stop-color="#78A1D6"/>
<stop offset="1" stop-color="#8FAED6"/>
</radialGradient>
<radialGradient id="paint8_radial_54_332" cx="0" cy="0" r="1" gradientUnits="userSpaceOnUse" gradientTransform="translate(12.5097 27.1474) scale(5.41136)">
<stop offset="0.18" stop-color="#EAA628"/>
<stop offset="0.93" stop-color="#EAA628"/>
</radialGradient>
</defs>
</svg>
