<svg width="26" height="33" viewBox="0 0 26 33" fill="none" xmlns="http://www.w3.org/2000/svg">
<path d="M10.5774 2.59527C9.67952 1.79536 8.33125 1.5939 7.18283 1.95534C6.03441 2.31382 5.08287 3.17891 4.47436 4.20991C5.50644 4.37582 6.57134 4.33138 7.58552 4.07955C5.46766 4.1951 3.51386 5.79788 3.00677 7.84507C3.73758 7.45104 4.5191 7.00072 4.83231 6.23636C4.44751 8.23614 3.2991 10.0789 1.66745 11.3114C2.83675 11.4595 3.88374 10.6537 4.7816 9.89818C3.22154 11.3054 2.53249 13.6015 3.06643 15.625C3.16487 14.3747 3.87778 13.2667 4.57279 12.2179C4.15519 13.557 4.25959 15.0324 4.93074 16.2679C5.26184 15.8649 5.52434 15.4087 5.70033 14.9169C5.43485 15.6931 5.60786 16.5404 5.61084 17.3611C5.61979 19.0172 4.88302 20.6644 3.64213 21.7695C4.60262 21.4554 5.40204 20.6911 5.75402 19.749C5.50047 20.1933 5.25588 20.8214 5.06795 21.2955C4.79353 21.9828 4.58771 22.7175 4.62649 23.4552C4.68316 24.4951 5.21412 25.4402 5.73016 26.3467C5.57505 26.1868 5.66155 25.9231 5.76595 25.7276C6.04336 25.1913 6.37745 24.6817 6.75926 24.2107C6.46693 25.1972 6.40429 26.3971 6.78312 27.354C6.91139 27.6829 7.08141 27.9969 7.32004 28.2577C7.91662 28.9065 8.85624 29.1198 9.56915 29.6412C9.51546 29.1731 9.46176 28.708 9.40807 28.2399C9.66758 28.9539 10.2731 29.4871 10.9025 29.9197C11.5289 30.3552 12.209 30.7285 12.74 31.2766L12.8682 29.6649C13.3873 30.6574 13.5394 31.8839 13.4529 33.0008C14.0465 32.7934 14.6401 32.5416 15.0905 32.1061C15.3321 31.8721 15.523 31.5906 15.702 31.3032C16.227 30.4589 16.6625 29.5168 16.6655 28.5243C16.9608 28.9687 17.1189 29.4575 17.0503 29.9849C17.7721 29.1938 18.3598 28.2814 18.7803 27.2948C18.7953 28.2606 18.9772 29.2887 19.544 30.0737C19.2576 28.8413 19.7617 27.5792 20.1584 26.3764C20.5552 25.1735 20.8296 23.7781 20.1584 22.7027C20.6894 23.1264 21.0861 23.6685 21.1965 24.3381C21.8497 23.4848 22.148 22.3976 22.1689 21.3251C22.1898 20.2526 21.9422 19.192 21.5872 18.1788C22.0138 19.1268 22.7208 19.7045 23.6753 20.1252C22.9296 19.0083 22.506 17.681 22.4642 16.3419C23.0369 16.6797 23.7677 16.7478 24.3942 16.5167C23.9348 16.6234 23.547 16.1582 23.383 15.7198C22.8938 14.4073 23.2249 12.7749 22.3002 11.7202C22.7923 12.7601 23.9258 13.4356 25.0802 13.4889C24.3494 12.9023 23.9646 11.9928 23.72 11.0921C23.4754 10.1915 23.3382 9.25825 22.9713 8.39908C22.6044 7.53992 21.9512 6.73704 21.0473 6.48818C21.5157 6.53558 21.9959 6.45855 22.4254 6.26598C22.0794 6.34301 21.7961 6.01119 21.5902 5.72382C21.2054 5.18758 20.7699 4.66319 20.1972 4.32842C19.6245 3.99364 18.8877 3.87217 18.2911 4.16251C19.007 3.32704 20.0749 2.92412 21.1637 2.74637C19.5022 2.95079 18.1808 1.19691 16.5104 1.07544C16.0719 1.04285 15.6334 1.12877 15.2128 1.2532C14.4044 1.49317 13.6438 1.89313 12.9846 2.41751C13.092 1.44577 13.6557 0.533275 14.479 0C13.0233 0.0533275 11.6542 1.08729 11.2187 2.46788C11.3261 1.6413 10.9204 0.770286 10.2135 0.317002C10.5147 1.02211 10.6609 1.83091 10.5774 2.59231V2.59527Z" fill="url(#paint0_linear_104_192)"/>
<path d="M7.35586 7.65543C6.92931 8.08205 6.58926 8.60051 6.37151 9.16341C6.03146 8.55607 5.71527 7.90133 5.73018 7.20511C5.73317 7.00365 5.76896 6.7933 5.87933 6.62443C5.98969 6.45556 6.18955 6.33113 6.39239 6.35187C7.0009 6.42001 7.17689 7.07475 7.35885 7.65543H7.35586Z" fill="#27292D"/>
<path d="M17.9153 5.85725C18.0913 5.74467 18.3091 5.64394 18.5059 5.718C18.5805 5.74467 18.6431 5.79503 18.6998 5.84836C19.0548 6.18017 19.2159 6.6779 19.2308 7.16377C19.2487 7.64668 19.1383 8.12663 19.0279 8.60065C19.0279 8.23625 18.7923 7.91628 18.5387 7.65557C18.2613 7.36523 17.9452 7.11044 17.6051 6.89417C17.4082 6.76974 17.2054 6.67494 16.9757 6.62753C17.2561 6.3609 17.5812 6.07352 17.9123 5.86317L17.9153 5.85725Z" fill="#27292D"/>
<path d="M9.22017 7.19913C9.14261 6.85546 8.68325 6.77251 8.49532 7.07174C8.41777 7.19617 8.3432 7.35319 8.28354 7.55168C8.01209 8.44936 8.31337 8.6923 7.80329 9.40926C7.29322 10.1262 7.10828 10.4047 7.10828 10.4047C7.10828 10.4047 7.1739 9.8655 7.35586 11.729C7.53781 13.5925 7.46026 13.4503 7.35287 14.2117C7.24549 14.9731 7.34691 14.9731 7.56466 15.3138C7.78241 15.6575 7.63923 15.8737 7.89576 16.4574C8.15229 17.041 8.93083 17.7876 8.93083 17.7876C8.93083 17.7876 8.88012 18.9875 9.05611 19.3697C9.23508 19.7518 9.87342 20.2792 10.64 20.3058C11.4066 20.3325 11.687 20.4362 12.3403 19.6007C12.9935 18.7653 12.9369 18.3653 13.602 18.3327C14.2672 18.3001 14.6908 18.4246 14.6908 18.4246C14.6908 18.4246 16.0719 17.2573 16.5462 16.1819C17.0204 15.1064 18.1062 13.3555 18.1062 13.3555C18.1062 13.3555 17.2233 13.0059 16.9876 12.4252C16.752 11.8416 17.1547 11.966 17.1547 11.966C17.1547 11.966 17.3396 11.6875 16.925 10.6625C16.5104 9.63738 16.1315 9.29372 16.1315 9.29372C16.1315 9.29372 15.9466 9.59294 15.5678 9.2078C15.1889 8.82265 15.6781 8.2479 15.523 7.60501C15.3679 6.96212 15.3739 6.52365 14.649 6.31626C14.2165 6.19183 14.0077 5.9489 12.9697 7.02137C11.9316 8.09088 10.4849 9.73811 10.4849 9.73811C10.4849 9.73811 9.96291 9.43296 9.55127 8.28938C9.38721 7.8361 9.28878 7.47465 9.22613 7.20209L9.22017 7.19913Z" fill="url(#paint1_linear_104_192)"/>
<path d="M14.0524 9.87155C13.8824 9.80933 13.7243 9.71453 13.5543 9.65231C13.3843 9.5901 13.1904 9.56047 13.0233 9.62861C12.7519 9.73527 12.6326 10.0463 12.5431 10.3248C12.4775 10.5293 12.4118 10.7337 12.3462 10.9381C12.2657 11.1929 12.1822 11.4506 12.1822 11.7173C12.2627 11.4832 12.3432 11.2462 12.4715 11.0359C12.5998 10.8255 12.7847 10.6389 13.0144 10.55C13.1516 10.4967 13.3007 10.4819 13.4409 10.4433C13.6975 10.3722 13.9242 10.23 14.1658 10.1204C14.3627 10.0286 14.6162 9.9308 14.8369 9.9782C14.5655 9.8834 14.2941 9.96932 14.0465 9.87451L14.0524 9.87155Z" fill="#27292D"/>
<path d="M8.54005 10.1384C8.71903 10.0554 8.94274 9.97541 9.10084 10.091C9.23507 10.1887 9.25595 10.3783 9.25296 10.5442C9.24103 11.2642 9.02328 11.9782 8.63252 12.5825C8.79658 12.0315 8.95766 11.4804 9.02925 10.9116C9.03223 10.8849 9.03521 10.8583 9.01732 10.8375C8.99047 10.8079 8.94573 10.8375 8.90993 10.8375C8.62656 10.8672 8.47144 10.8701 8.25668 10.7368C8.08367 10.6272 7.87188 10.4909 7.67203 10.4376C7.94347 10.5087 8.3044 10.242 8.54005 10.1324V10.1384Z" fill="#27292D"/>
<path d="M8.14631 13.9927C8.376 13.8683 8.63849 13.8238 8.898 13.7794C9.24402 13.7201 9.59004 13.6609 9.93904 13.6668C10.2493 13.6698 10.5565 13.7231 10.8578 13.7883C11.0308 13.8238 11.2098 13.8683 11.344 13.9808C11.4782 14.0964 11.4096 14.3215 11.3678 14.4904C11.338 14.6148 11.2963 14.7422 11.2098 14.837C11.1232 14.9318 10.986 14.9941 10.8637 14.9555C10.7563 14.923 10.6818 14.8252 10.5833 14.7778C10.461 14.7185 10.3149 14.7363 10.1926 14.7926C10.0166 14.8726 9.87639 15.0266 9.81972 15.2103C9.74216 15.4533 9.8048 15.714 9.88236 15.9569C9.94202 16.1436 10.0106 16.3243 10.0912 16.502C10.1299 16.5909 10.1717 16.6768 10.2314 16.7509C10.3208 16.8546 10.4431 16.9227 10.5684 16.982C10.7713 17.0768 10.986 17.1538 11.1978 17.2279C11.4752 17.3257 11.7497 17.4234 12.0271 17.5212C12.215 17.5864 12.4059 17.6545 12.6028 17.6693C12.8026 17.6841 13.0114 17.6397 13.1606 17.5064C13.2381 17.4382 13.2948 17.3494 13.3634 17.2753C13.4111 17.2249 13.4947 17.1805 13.5483 17.2249C13.5633 17.2397 13.5722 17.2575 13.5782 17.2782C13.6438 17.4649 13.5304 17.6693 13.3753 17.7937C13.1427 17.9804 12.8235 18.0396 12.5252 18.013C12.2269 17.9863 11.9406 17.8886 11.6572 17.7878C11.2455 17.6427 10.8369 17.5004 10.4252 17.3553C10.3238 17.3197 10.2194 17.2842 10.112 17.2812C9.90622 17.2753 9.7183 17.3908 9.56021 17.5241C9.4051 17.6575 9.2649 17.8115 9.08593 17.9152C9.0382 17.9419 8.97556 17.9685 8.92485 17.9419C8.87712 17.9152 8.86221 17.853 8.87712 17.7997C8.89204 17.7493 8.93082 17.7078 8.96959 17.6693C9.27981 17.3671 9.71233 17.1597 9.87639 16.7598C9.78094 16.3509 9.67356 15.9243 9.42598 15.5866C9.22612 15.317 8.93678 15.1007 8.83238 14.7807C8.81448 14.7274 8.78764 14.6593 8.73096 14.6622C8.67429 14.6682 8.65937 14.7422 8.62954 14.7896C8.59673 14.8459 8.52812 14.8726 8.4625 14.8755C8.39688 14.8785 8.33424 14.8578 8.27458 14.8341C8.20001 14.8044 8.12245 14.763 8.08069 14.6948C8.02998 14.6148 8.03595 14.5111 8.04788 14.4163C8.06876 14.2593 8.09262 14.1497 8.13736 13.9986L8.14631 13.9927Z" fill="#27292D"/>
<path d="M12.7698 10.1797C12.7967 10.242 12.8564 10.2776 12.9072 10.2598C12.9579 10.239 12.9788 10.1708 12.9519 10.1086C12.9251 10.0463 12.8654 10.0107 12.8146 10.0285C12.7639 10.0493 12.743 10.1175 12.7698 10.1797Z" fill="white"/>
<path d="M8.6892 10.4019C8.71607 10.4642 8.77577 10.4997 8.82653 10.482C8.87728 10.4612 8.89818 10.393 8.87131 10.3307C8.84444 10.2685 8.78473 10.2329 8.73398 10.2507C8.68323 10.2714 8.66233 10.3396 8.6892 10.4019Z" fill="white"/>
<path d="M13.7572 10.0612C13.5305 10.2863 13.1964 10.4019 12.8772 10.3604C13.0025 10.4522 13.1606 10.47 13.3067 10.4226C13.4529 10.3722 13.5782 10.2745 13.6885 10.1678C13.7214 10.1352 13.7542 10.1026 13.7721 10.0612C13.7721 10.0582 13.775 10.0523 13.7721 10.0493C13.7691 10.0463 13.7512 10.0582 13.7542 10.0612H13.7572Z" fill="#575457"/>
<path d="M13.1635 25.618C13.3902 26.7764 13.8287 27.8874 14.0823 29.0398C14.3388 30.1923 14.4014 31.4425 13.9033 32.515C15.9347 29.9671 17.104 26.5512 16.2658 23.4079C15.9943 22.3887 15.523 21.4377 14.995 20.5311C14.6639 19.9623 14.2404 18.6558 13.7929 19.6483C12.9846 21.4407 12.7907 23.7071 13.1665 25.618H13.1635Z" fill="url(#paint2_linear_104_192)"/>
<path opacity="0.15" d="M16.6685 17.8913C16.2359 18.8957 16.5939 20.0659 17.1219 21.0228C17.6498 21.9798 18.3538 22.8597 18.673 23.9055C19.1562 25.4816 18.7028 27.2207 19.1323 28.8116C19.1174 28.2013 19.186 27.5881 19.3411 26.9985C19.6335 25.8905 20.2241 24.8032 20.063 23.6714C19.8482 22.1753 18.4254 21.1888 17.62 19.9059C16.9966 18.9134 16.743 17.6988 16.919 16.5433C16.5998 17.2396 16.4447 18.0098 16.4775 18.7772" fill="#D43217"/>
<path d="M18.7625 13.4267C18.7177 14.5851 18.4165 15.7168 18.2971 16.8693C18.1778 18.0217 18.2584 19.2572 18.8997 20.223C19.2696 20.7799 19.8035 21.2125 20.2539 21.7102C20.7043 22.2079 21.0921 22.8271 21.0593 23.4937C21.8438 21.6984 21.8199 19.5712 20.9967 17.7936C20.5612 16.8574 19.9169 16.0071 19.6424 15.0117C19.4008 14.1288 19.4694 13.1926 19.2755 12.2979C19.0309 11.1603 18.3538 10.1263 17.4082 9.43896C18.3896 10.4137 18.8132 12.0876 18.7625 13.4237V13.4267Z" fill="url(#paint3_linear_104_192)"/>
<path d="M4.92779 15.4769C4.91586 14.357 5.90916 13.5126 6.40432 12.5053C7.04565 11.2136 6.97107 9.61677 7.25743 8.22729C6.28501 8.28951 5.36627 10.6181 5.11273 11.4032C4.64143 12.852 4.90989 14.0281 4.92779 15.4769Z" fill="url(#paint4_linear_104_192)"/>
<path d="M7.27532 24.6818C7.14705 26.2816 7.72872 27.991 9.01435 28.9598C8.53709 28.3525 8.61464 27.4755 8.8831 26.7527C9.14858 26.0298 9.57812 25.3632 9.75113 24.6107C10.124 22.996 9.32159 21.331 8.9875 19.7756C8.93083 20.5755 8.552 21.0466 8.17914 21.7517C7.69889 22.6612 7.35586 23.6508 7.27234 24.6788L7.27532 24.6818Z" fill="url(#paint5_linear_104_192)"/>
<path d="M20.1346 8.99459C20.0929 9.82709 19.9139 10.6507 19.9169 11.4862C19.9228 13.0653 20.6119 14.6295 21.7782 15.705C22.3897 16.2679 23.1831 16.7152 24.0154 16.6441C23.5113 16.5019 23.1294 16.0694 22.9266 15.5894C22.7238 15.1095 22.676 14.5792 22.6462 14.0577C22.5627 12.6179 22.5955 11.1514 22.1869 9.7708C21.8617 8.67759 21.0235 7.15183 19.8125 6.84668C19.7886 7.14294 20.0093 7.51327 20.072 7.82731C20.1466 8.21246 20.1585 8.60649 20.1376 8.99756L20.1346 8.99459Z" fill="url(#paint6_linear_104_192)"/>
<path d="M9.59601 6.79924C9.44687 7.34733 9.49161 7.928 9.58706 8.48498C9.71234 9.21083 9.93606 9.93371 10.3477 10.547C10.288 9.80928 10.7802 9.13972 11.3261 8.63607C11.8749 8.13539 12.5133 7.70877 12.916 7.08661C13.4111 6.32521 13.7273 4.15953 12.2418 4.42616C11.1083 4.62762 9.89132 5.69714 9.59601 6.79627V6.79924Z" fill="url(#paint7_linear_104_192)"/>
<path d="M17.5245 9.80347C18.3418 10.8374 18.5447 12.2239 18.4194 13.5068C18.3508 14.7866 17.7363 16.0043 17.6826 17.2664C17.6319 18.5077 18.1599 19.755 19.0607 20.629C19.5171 21.0882 20.1197 21.3459 20.6029 21.7844C21.0802 22.2288 21.3546 22.9931 21.1846 23.5768C21.277 22.9428 21.0294 22.2703 20.5432 21.8496C20.057 21.4289 19.4396 21.1741 18.9712 20.7238C18.0257 19.8409 17.4768 18.5521 17.5126 17.2604C17.5812 15.9687 18.1927 14.7807 18.2882 13.492C18.4522 12.2239 18.2345 10.8522 17.5245 9.80347Z" fill="#D48517"/>
<path d="M13.7452 5.13739C15.4216 4.32266 17.4321 3.59089 19.2576 4.38191C19.9765 4.67521 20.4925 5.26774 21.104 5.70325C21.3963 5.92545 21.7304 6.10321 22.1003 6.16838C21.7602 6.18912 21.3576 5.96692 21.0533 5.77732C20.4269 5.36847 19.8989 4.80557 19.195 4.52116C17.3993 3.75976 15.4246 4.51819 13.7422 5.13442L13.7452 5.13739Z" fill="#D48517"/>
<path d="M10.3328 4.97744C8.25965 4.27233 6.29094 4.16864 4.80844 6.02325L4.09851 6.77576L3.36471 7.50754L3.35278 7.49569L4.71 5.93734C5.15744 5.42184 5.6526 4.90338 6.30287 4.63378C7.59446 4.09754 9.13961 4.4175 10.3328 4.97448V4.97744Z" fill="#D48517"/>
<path d="M7.20967 14.0638C5.97475 15.3318 7.06649 17.0708 7.22161 18.5433C7.29021 19.0854 7.19476 19.6572 6.97701 20.1579C6.75926 20.6586 6.46395 21.103 6.19847 21.5533C5.6526 22.4421 5.33045 23.4435 5.31553 24.4863C5.27974 25.0018 5.39607 25.5618 5.47363 26.0447C5.15744 25.0374 5.14849 23.9412 5.43187 22.922C5.69138 21.8881 6.40131 21.0526 6.8219 20.0898C7.03368 19.6098 7.12914 19.0795 7.06948 18.5551C6.91437 17.1212 5.87334 15.1866 7.20967 14.0608V14.0638Z" fill="#D48517"/>
<path opacity="0.45" d="M8.69219 28.4473C8.01508 27.2415 7.89576 25.5232 8.19405 24.1752C8.37899 23.3338 9.39019 21.4762 8.8652 20.6704C8.70413 21.1918 8.38197 21.7844 8.25669 22.1369C8.02402 22.8065 7.7675 23.2242 7.62432 23.9204C7.31708 25.4254 7.65116 27.3067 8.68921 28.4503L8.69219 28.4473Z" fill="white"/>
<path opacity="0.45" d="M9.77498 6.87051C9.53038 7.92817 9.76006 9.04805 10.2164 10.0346C9.80481 8.98583 9.83165 7.77708 10.291 6.74904C10.7623 5.6973 11.6274 4.94776 12.6714 4.48855C11.2127 4.39967 10.0971 5.47214 9.77498 6.87051Z" fill="white"/>
<path opacity="0.45" d="M22.8431 16.2471C21.1279 15.2783 19.9795 13.3822 19.9258 11.421C19.9019 10.624 20.0481 9.83004 20.0809 9.03309C20.1048 8.41686 20.1018 7.61399 19.7438 7.0896C19.6186 7.66139 19.7498 8.30428 19.6901 8.89681C19.5828 9.94855 19.3382 10.8966 19.541 11.9572C19.89 13.7881 21.1339 15.4591 22.8431 16.2501V16.2471Z" fill="white"/>
<path opacity="0.45" d="M11.8958 26.1483C12.4268 28.0799 13.8795 29.8456 13.617 31.8306C14.0465 30.8085 13.8556 29.6294 13.4947 28.5836C13.1308 27.5348 12.6028 26.5423 12.3492 25.4639C11.9764 23.8848 12.3373 22.442 12.558 20.8955C11.4454 22.0687 11.5021 24.7173 11.8958 26.1542V26.1483Z" fill="white"/>
<path opacity="0.45" d="M11.1232 29.3005C11.5766 29.6561 12.1374 29.9494 12.3462 30.4856C12.3015 29.4161 11.5468 28.5243 10.8786 27.6829C10.3328 26.9926 9.6825 26.095 9.74812 25.1736C9.53633 26.7201 9.81971 28.2755 11.1232 29.3005Z" fill="white"/>
<path d="M1.54812 16.9374L1.81062 16.4634L2.07311 16.9374C2.3207 17.3877 2.69356 17.7551 3.14398 18.001L3.62124 18.2617L3.14398 18.5224C2.69057 18.7683 2.3207 19.1386 2.07311 19.586L1.81062 20.06L1.54812 19.586C1.30054 19.1357 0.927682 18.7683 0.477264 18.5224L0 18.2617L0.477264 18.001C0.930664 17.7551 1.30054 17.3848 1.54812 16.9374Z" fill="white"/>
<path d="M1.53918 22.6552L1.6227 22.5042L1.70623 22.6552C1.78378 22.7975 1.9031 22.913 2.04329 22.99L2.19542 23.073L2.04329 23.1559C1.90011 23.233 1.78378 23.3515 1.70623 23.4907L1.6227 23.6418L1.53918 23.4907C1.46163 23.3485 1.34231 23.233 1.20212 23.1559L1.04999 23.073L1.20212 22.99C1.34529 22.913 1.46163 22.7945 1.53918 22.6552Z" fill="white"/>
<defs>
<linearGradient id="paint0_linear_104_192" x1="1.61965" y1="16.3808" x2="25.0462" y2="16.6114" gradientUnits="userSpaceOnUse">
<stop stop-color="#E17921"/>
<stop offset="0.47" stop-color="#EAA628"/>
<stop offset="0.93" stop-color="#EAA628"/>
</linearGradient>
<linearGradient id="paint1_linear_104_192" x1="10.6635" y1="19.7898" x2="14.5231" y2="3.82853" gradientUnits="userSpaceOnUse">
<stop stop-color="#E17921"/>
<stop offset="0.49" stop-color="#EAA628"/>
<stop offset="1" stop-color="#FFD282"/>
</linearGradient>
<linearGradient id="paint2_linear_104_192" x1="13.4023" y1="22.7853" x2="19.5084" y2="41.7929" gradientUnits="userSpaceOnUse">
<stop stop-color="#E17921"/>
<stop offset="0.47" stop-color="#EAA628"/>
<stop offset="0.93" stop-color="#EAA628"/>
</linearGradient>
<linearGradient id="paint3_linear_104_192" x1="18.6905" y1="15.8888" x2="28.5838" y2="25.8657" gradientUnits="userSpaceOnUse">
<stop stop-color="#E17921"/>
<stop offset="0.47" stop-color="#EAA628"/>
<stop offset="0.93" stop-color="#EAA628"/>
</linearGradient>
<linearGradient id="paint4_linear_104_192" x1="4.7587" y1="8.41186" x2="7.89501" y2="16.6254" gradientUnits="userSpaceOnUse">
<stop stop-color="#E17921"/>
<stop offset="0.47" stop-color="#EAA628"/>
<stop offset="0.93" stop-color="#EAA628"/>
</linearGradient>
<linearGradient id="paint5_linear_104_192" x1="7.33887" y1="21.4613" x2="13.0182" y2="33.2977" gradientUnits="userSpaceOnUse">
<stop stop-color="#E17921"/>
<stop offset="0.47" stop-color="#EAA628"/>
<stop offset="0.93" stop-color="#EAA628"/>
</linearGradient>
<linearGradient id="paint6_linear_104_192" x1="17.7608" y1="7.29961" x2="28.6816" y2="20.7113" gradientUnits="userSpaceOnUse">
<stop stop-color="#E17921"/>
<stop offset="0.47" stop-color="#EAA628"/>
<stop offset="0.93" stop-color="#EAA628"/>
</linearGradient>
<linearGradient id="paint7_linear_104_192" x1="12.9583" y1="3.33319" x2="3.31896" y2="23.8925" gradientUnits="userSpaceOnUse">
<stop stop-color="#E17921"/>
<stop offset="0.47" stop-color="#EAA628"/>
<stop offset="0.93" stop-color="#EAA628"/>
</linearGradient>
</defs>
</svg>
