<svg width="31" height="32" viewBox="0 0 31 32" fill="none" xmlns="http://www.w3.org/2000/svg">
<path d="M15.3985 31.31C18.9149 31.31 21.7656 30.5451 21.7656 29.6015C21.7656 28.658 18.9149 27.8931 15.3985 27.8931C11.882 27.8931 9.0314 28.658 9.0314 29.6015C9.0314 30.5451 11.882 31.31 15.3985 31.31Z" fill="url(#paint0_radial_54_47)"/>
<path d="M21.7653 28.9232H9.03116V29.6512H21.7653V28.9232Z" fill="url(#paint1_radial_54_47)"/>
<path d="M21.7658 28.9322C21.7658 29.8774 18.9155 30.6407 15.3988 30.6407C11.882 30.6407 9.03168 29.8745 9.03168 28.9322C9.03168 27.9899 11.882 27.2238 15.3988 27.2238C18.9155 27.2238 21.7658 27.9899 21.7658 28.9322Z" fill="url(#paint2_radial_54_47)"/>
<path d="M18.9532 28.9321C18.9532 29.4605 17.3622 29.8861 15.3984 29.8861C13.4345 29.8861 11.8435 29.4575 11.8435 28.9321C11.8435 28.4066 13.4345 27.978 15.3984 27.978C17.3622 27.978 18.9532 28.4066 18.9532 28.9321Z" fill="url(#paint3_radial_54_47)"/>
<path d="M25.9695 7.47379C25.6114 7.59414 25.3853 7.89944 24.7894 7.89944C24.1935 7.89944 23.1632 7.10685 20.9029 5.95614C18.8509 4.9111 11.7705 4.9111 9.71862 5.95614C7.4583 7.10685 6.425 7.89944 5.83203 7.89944C5.23906 7.89944 5.01009 7.59121 4.65196 7.47379C4.29383 7.35343 3.87112 7.82605 4.04725 8.37792C4.18816 8.82118 4.74003 9.28499 5.47684 9.29086C6.63342 9.29967 6.70681 8.73605 10.0797 7.50608C13.0445 6.42582 17.5857 6.42582 20.5477 7.50608C23.9205 8.73605 23.9939 9.29967 25.1505 9.29086C25.8873 9.28499 26.4363 8.82118 26.5801 8.37792C26.7562 7.82898 26.3306 7.35637 25.9754 7.47379H25.9695Z" fill="url(#paint4_radial_54_47)"/>
<path d="M16.0796 22.1953L15.7743 7.35636L16.0855 6.56965C16.6344 5.18703 16.6403 3.64884 16.1031 2.26035L15.9769 1.93744L16.3321 0.114502H14.286L14.6412 1.93744L14.515 2.26035C13.9778 3.64884 13.9837 5.18703 14.5326 6.56965L14.8438 7.35636L14.5385 22.1953L13.4758 28.3745H17.1423L16.0796 22.1953Z" fill="url(#paint5_radial_54_47)"/>
<path d="M10.8543 20.9564H1.12903C1.12903 21.7519 2.13884 23.2138 5.99314 23.2138C9.60966 23.2138 10.8573 21.749 10.8573 20.9564H10.8543Z" fill="url(#paint6_radial_54_47)"/>
<path d="M10.8514 20.9565C10.8514 21.5143 8.67324 21.9663 5.9902 21.9663C3.30716 21.9663 1.12903 21.5143 1.12903 20.9565C1.12903 20.3988 3.30716 19.9467 5.9902 19.9467C8.67324 19.9467 10.8514 20.3988 10.8514 20.9565Z" fill="url(#paint7_radial_54_47)"/>
<path d="M10.8603 20.9564C10.8603 21.0709 10.7781 21.1619 10.6959 21.2265C10.6108 21.294 10.5169 21.3468 10.4171 21.3909C10.2233 21.4819 10.0178 21.5465 9.80941 21.6052C9.39551 21.7167 8.9728 21.793 8.55009 21.8547C7.70173 21.9721 6.84456 22.0249 5.99034 22.0367C5.13317 22.0455 4.27601 22.0132 3.42178 21.9163C2.99613 21.8664 2.56755 21.7989 2.14778 21.6962C1.93642 21.6433 1.728 21.5817 1.51958 21.4907C1.41684 21.4466 1.3141 21.3938 1.21723 21.3204C1.12623 21.25 1.00881 21.1414 1 20.9594C1.00881 20.7803 1.12329 20.6687 1.21723 20.5983C1.3141 20.5249 1.41684 20.4721 1.51958 20.428C1.72507 20.337 1.93642 20.2783 2.14778 20.2225C2.57049 20.1169 2.99613 20.0523 3.42178 20.0024C4.27601 19.9026 5.13317 19.8732 5.99034 19.882C6.8475 19.8938 7.70173 19.9466 8.55009 20.064C8.9728 20.1257 9.39551 20.1991 9.80941 20.3135C10.0149 20.3723 10.2204 20.4368 10.4171 20.5278C10.5139 20.5719 10.6108 20.6247 10.6959 20.6922C10.7781 20.7568 10.8603 20.8478 10.8603 20.9623V20.9564ZM10.8456 20.9564C10.8427 20.8507 10.7664 20.7627 10.6842 20.701C10.5991 20.6365 10.5051 20.5866 10.4083 20.5425C10.2145 20.4545 10.009 20.3928 9.80354 20.337C9.38964 20.2314 8.96986 20.1609 8.54715 20.1051C7.70173 19.9965 6.84456 19.9584 5.99327 19.9554C5.13904 19.9554 4.28482 19.9995 3.43939 20.1081C3.01668 20.1638 2.59397 20.2343 2.183 20.3429C1.97752 20.3987 1.77203 20.4603 1.57829 20.5484C1.48142 20.5924 1.38748 20.6423 1.30529 20.7069C1.2231 20.7686 1.14971 20.8566 1.14677 20.9564C1.14971 21.0592 1.2231 21.1443 1.30529 21.2059C1.38748 21.2705 1.48142 21.3204 1.57829 21.3645C1.77203 21.4525 1.97752 21.5142 2.183 21.5699C2.59397 21.6786 3.01668 21.749 3.43939 21.8048C4.28482 21.9134 5.13904 21.9545 5.99327 21.9574C6.8475 21.9574 7.70173 21.9163 8.54715 21.8077C8.96986 21.7519 9.39257 21.6815 9.80354 21.5758C10.009 21.52 10.2145 21.4584 10.4083 21.3703C10.5051 21.3263 10.5991 21.2764 10.6842 21.2118C10.7664 21.1502 10.8427 21.0621 10.8456 20.9564Z" fill="#FFD78C"/>
<path d="M9.88557 20.7363C9.62138 20.572 9.26618 20.4545 8.95795 20.4193C8.86108 20.6365 8.7466 20.845 8.6145 21.0446C8.83466 21.1121 9.13702 21.2442 9.34544 21.344C9.5245 21.0827 9.69183 20.9301 9.88557 20.7363Z" fill="#FFD78C"/>
<path d="M1.04984 20.9623L5.75249 7.97857C5.77891 7.90224 5.88753 7.90224 5.91395 7.97857L10.8162 20.9417" stroke="url(#paint8_radial_54_47)" stroke-width="0.49" stroke-linecap="round" stroke-linejoin="round"/>
<path d="M29.8296 20.9564H20.1014C20.1014 21.7519 21.1112 23.2138 24.9655 23.2138C28.582 23.2138 29.8296 21.749 29.8296 20.9564Z" fill="url(#paint9_radial_54_47)"/>
<path d="M29.8267 20.9566C29.8267 21.5143 27.6485 21.9664 24.9655 21.9664C22.2824 21.9664 20.1043 21.5143 20.1043 20.9566C20.1043 20.3988 22.2824 19.9468 24.9655 19.9468C27.6485 19.9468 29.8267 20.3988 29.8267 20.9566Z" fill="url(#paint10_radial_54_47)"/>
<path d="M29.8355 20.9564C29.8355 21.0709 29.7533 21.1619 29.6712 21.2265C29.586 21.294 29.4921 21.3468 29.3923 21.3909C29.1985 21.4819 28.9931 21.5465 28.7846 21.6052C28.3707 21.7167 27.948 21.793 27.5253 21.8547C26.6769 21.9721 25.8198 22.0249 24.9656 22.0367C24.1084 22.0455 23.2512 22.0132 22.397 21.9163C21.9714 21.8664 21.5428 21.7989 21.123 21.6962C20.9116 21.6433 20.7032 21.5817 20.4948 21.4907C20.3921 21.4466 20.2893 21.3938 20.1924 21.3204C20.1014 21.25 19.984 21.1414 19.9752 20.9594C19.984 20.7803 20.0985 20.6687 20.1924 20.5983C20.2893 20.5249 20.3921 20.4721 20.4948 20.428C20.7003 20.337 20.9116 20.2783 21.123 20.2225C21.5457 20.1169 21.9714 20.0523 22.397 20.0024C23.2512 19.9026 24.1084 19.8732 24.9656 19.882C25.8227 19.8938 26.6769 19.9466 27.5253 20.064C27.948 20.1257 28.3707 20.1991 28.7846 20.3135C28.9901 20.3723 29.1956 20.4368 29.3923 20.5278C29.4892 20.5719 29.586 20.6247 29.6712 20.6922C29.7533 20.7568 29.8355 20.8478 29.8355 20.9623V20.9564ZM29.8209 20.9564C29.8179 20.8507 29.7416 20.7627 29.6594 20.701C29.5743 20.6365 29.4803 20.5866 29.3835 20.5425C29.1897 20.4545 28.9842 20.3928 28.7788 20.337C28.3649 20.2314 27.9451 20.1609 27.5224 20.1051C26.6769 19.9965 25.8198 19.9584 24.9685 19.9554C24.1143 19.9554 23.26 19.9995 22.4146 20.1081C21.9919 20.1638 21.5692 20.2343 21.1582 20.3429C20.9527 20.3987 20.7473 20.4603 20.5535 20.5484C20.4566 20.5924 20.3627 20.6423 20.2805 20.7069C20.1983 20.7686 20.1249 20.8566 20.122 20.9564C20.1249 21.0592 20.1983 21.1443 20.2805 21.2059C20.3627 21.2705 20.4566 21.3204 20.5535 21.3645C20.7473 21.4525 20.9527 21.5142 21.1582 21.5699C21.5692 21.6786 21.9919 21.749 22.4146 21.8048C23.26 21.9134 24.1143 21.9545 24.9685 21.9574C25.8227 21.9574 26.6769 21.9163 27.5224 21.8077C27.9451 21.7519 28.3678 21.6815 28.7788 21.5758C28.9842 21.52 29.1897 21.4584 29.3835 21.3703C29.4803 21.3263 29.5743 21.2764 29.6594 21.2118C29.7416 21.1502 29.8179 21.0621 29.8209 20.9564Z" fill="#FFD78C"/>
<path d="M28.8608 20.7363C28.5966 20.572 28.2414 20.4545 27.9332 20.4193C27.8363 20.6365 27.7218 20.845 27.5897 21.0446C27.8099 21.1121 28.1122 21.2442 28.3207 21.344C28.4997 21.0827 28.667 20.9301 28.8608 20.7363Z" fill="#FFD78C"/>
<path d="M20.0251 20.9623L24.7278 7.97857C24.7542 7.90224 24.8628 7.90224 24.8893 7.97857L29.7915 20.9417" stroke="url(#paint11_radial_54_47)" stroke-width="0.49" stroke-linecap="round" stroke-linejoin="round"/>
<path d="M15.3132 0.228968C15.8774 0.228968 16.3348 0.177712 16.3348 0.114484C16.3348 0.0512563 15.8774 0 15.3132 0C14.7491 0 14.2917 0.0512563 14.2917 0.114484C14.2917 0.177712 14.7491 0.228968 15.3132 0.228968Z" fill="#FFD78C"/>
<path d="M15.1462 8.47485L14.9143 21.984H15.4545L15.1462 8.47485Z" fill="#FFD78C"/>
<path d="M14.2744 4.2387C14.2568 3.59583 14.4506 2.65941 14.8351 2.14276C14.5592 3.78077 14.5357 5.34832 15.2255 7.06265C15.1786 7.00981 14.3302 6.3141 14.2744 4.2387Z" fill="#FFD78C"/>
<path d="M21.1846 28.4948C21.2845 28.6298 21.3843 28.7854 21.3725 28.9527C21.3549 29.2023 21.1171 29.4488 20.894 29.5604C19.802 30.1152 18.6043 30.3266 17.3802 30.3999C18.211 30.3001 19.0535 30.1416 19.7844 29.7307C20.0193 29.5986 20.2453 29.4371 20.3921 29.2111C20.486 29.0672 20.533 28.8471 20.3979 28.7385C20.668 28.6504 20.9146 28.5799 21.1817 28.4948H21.1846Z" fill="#FFD78C"/>
<path d="M10.8548 11.0697L11.1132 10.6L11.3715 11.0697C11.6151 11.5159 11.9821 11.8799 12.4253 12.1236L12.895 12.3819L12.4253 12.6402C11.9791 12.8838 11.6151 13.2508 11.3715 13.694L11.1132 14.1637L10.8548 13.694C10.6112 13.2479 10.2443 12.8838 9.80101 12.6402L9.33133 12.3819L9.80101 12.1236C10.2472 11.8799 10.6112 11.513 10.8548 11.0697Z" fill="white"/>
<path d="M18.6045 16.8555L18.7454 16.6001L18.8863 16.8555C19.0184 17.0991 19.218 17.2958 19.4616 17.4308L19.717 17.5717L19.4616 17.7126C19.218 17.8447 19.0213 18.0444 18.8863 18.288L18.7454 18.5434L18.6045 18.288C18.4724 18.0444 18.2727 17.8477 18.0291 17.7126L17.7737 17.5717L18.0291 17.4308C18.2727 17.2987 18.4694 17.0991 18.6045 16.8555Z" fill="white"/>
<defs>
<radialGradient id="paint0_radial_54_47" cx="0" cy="0" r="1" gradientUnits="userSpaceOnUse" gradientTransform="translate(16.1793 34.7593) scale(24.1268 15.6824)">
<stop offset="0.47" stop-color="#EAA628"/>
<stop offset="0.93" stop-color="#EAA628"/>
</radialGradient>
<radialGradient id="paint1_radial_54_47" cx="0" cy="0" r="1" gradientUnits="userSpaceOnUse" gradientTransform="translate(20.7889 32.4461) rotate(26.46) scale(16.9593 11.7142)">
<stop offset="0.47" stop-color="#EAA628"/>
<stop offset="0.93" stop-color="#EAA628"/>
</radialGradient>
<radialGradient id="paint2_radial_54_47" cx="0" cy="0" r="1" gradientUnits="userSpaceOnUse" gradientTransform="translate(10.5992 26.5107) scale(25.5799 16.6269)">
<stop stop-color="#E17921"/>
<stop offset="0.47" stop-color="#EAA628"/>
<stop offset="0.93" stop-color="#EAA628"/>
</radialGradient>
<radialGradient id="paint3_radial_54_47" cx="0" cy="0" r="1" gradientUnits="userSpaceOnUse" gradientTransform="translate(12.7183 27.539) scale(14.2841 9.28467)">
<stop offset="0.47" stop-color="#EAA628"/>
<stop offset="0.93" stop-color="#EAA628"/>
</radialGradient>
<radialGradient id="paint4_radial_54_47" cx="0" cy="0" r="1" gradientUnits="userSpaceOnUse" gradientTransform="translate(15.3107 7.23014) scale(8.12544)">
<stop offset="0.47" stop-color="#EAA628"/>
<stop offset="0.93" stop-color="#EAA628"/>
</radialGradient>
<radialGradient id="paint5_radial_54_47" cx="0" cy="0" r="1" gradientUnits="userSpaceOnUse" gradientTransform="translate(13.9308 -5.03142) scale(67.1846 67.1846)">
<stop offset="0.47" stop-color="#EAA628"/>
<stop offset="0.93" stop-color="#EAA628"/>
</radialGradient>
<radialGradient id="paint6_radial_54_47" cx="0" cy="0" r="1" gradientUnits="userSpaceOnUse" gradientTransform="translate(2.32671 20.5455) scale(17.8918 17.8918)">
<stop offset="0.47" stop-color="#EAA628"/>
<stop offset="0.93" stop-color="#EAA628"/>
</radialGradient>
<radialGradient id="paint7_radial_54_47" cx="0" cy="0" r="1" gradientUnits="userSpaceOnUse" gradientTransform="translate(2.32377 19.5798) scale(17.7304 17.7304)">
<stop stop-color="#E17921"/>
<stop offset="0.47" stop-color="#EAA628"/>
<stop offset="0.93" stop-color="#EAA628"/>
</radialGradient>
<radialGradient id="paint8_radial_54_47" cx="0" cy="0" r="1" gradientUnits="userSpaceOnUse" gradientTransform="translate(5.93449 14.4425) scale(5.83282 5.83282)">
<stop offset="0.26" stop-color="#78A1D6"/>
<stop offset="0.53" stop-color="#8FAED6"/>
<stop offset="1" stop-color="#B2D2FF"/>
</radialGradient>
<radialGradient id="paint9_radial_54_47" cx="0" cy="0" r="1" gradientUnits="userSpaceOnUse" gradientTransform="translate(21.2991 20.5455) scale(17.8918 17.8918)">
<stop offset="0.47" stop-color="#EAA628"/>
<stop offset="0.93" stop-color="#EAA628"/>
</radialGradient>
<radialGradient id="paint10_radial_54_47" cx="0" cy="0" r="1" gradientUnits="userSpaceOnUse" gradientTransform="translate(21.2991 19.5798) scale(17.7304 17.7304)">
<stop stop-color="#E17921"/>
<stop offset="0.47" stop-color="#EAA628"/>
<stop offset="0.93" stop-color="#EAA628"/>
</radialGradient>
<radialGradient id="paint11_radial_54_47" cx="0" cy="0" r="1" gradientUnits="userSpaceOnUse" gradientTransform="translate(24.9098 0.146673) scale(0.146775)">
<stop offset="0.26" stop-color="#78A1D6"/>
<stop offset="0.53" stop-color="#8FAED6"/>
<stop offset="1" stop-color="#B2D2FF"/>
</radialGradient>
</defs>
</svg>
