<svg width="35" height="23" viewBox="0 0 35 23" fill="none" xmlns="http://www.w3.org/2000/svg">
<path d="M16.331 10.6547C16.331 10.6677 16.3353 10.6807 16.3418 10.6915C16.3526 10.7067 16.3742 10.7132 16.3936 10.7176C16.8142 10.8239 17.1982 11.0626 17.483 11.3925C17.5499 11.0995 17.5326 10.7849 17.4334 10.5006C17.3665 10.3075 17.2608 10.1252 17.2198 9.92337C17.1465 9.57183 17.2824 9.25501 17.3687 8.92517C17.03 9.01414 16.7668 9.10528 16.5813 9.41559C16.3612 9.78232 16.2663 10.2293 16.331 10.6547Z" fill="url(#paint0_linear_54_2015)"/>
<g opacity="0.3">
<path d="M17.2025 9.03377C17.0407 9.36144 16.9544 9.74987 17.0623 10.1101C17.1313 10.2837 17.2025 10.4573 17.2802 10.6309C17.3514 10.8045 17.4118 10.9868 17.4377 11.1734C17.4053 10.9868 17.3384 10.8088 17.2608 10.6396C17.1788 10.4703 17.1011 10.2989 17.0235 10.1231C16.8983 9.75421 16.9738 9.34625 17.1292 9.00122L17.2025 9.03594V9.03377Z" fill="#D43217"/>
</g>
<g opacity="0.3">
<path d="M16.9287 9.00777C16.6914 9.53942 16.4454 10.0928 16.467 10.6873C16.4152 10.0928 16.6396 9.51772 16.8532 8.97522L16.9287 9.00777Z" fill="#D43217"/>
</g>
<g opacity="0.3">
<path d="M17.0235 9.04674C16.7754 9.60443 16.7236 10.2554 16.8854 10.8543C16.6977 10.2641 16.7171 9.60226 16.948 9.01636L17.0235 9.04891V9.04674Z" fill="#D43217"/>
</g>
<path d="M11.6519 11.5271C11.4469 12.3452 11.0888 13.1307 10.5538 13.7796C10.2885 13.3412 10.2432 12.8074 10.1806 12.2975C10.1181 11.7875 10.021 11.2494 9.68015 10.8674C9.87646 10.607 10.0749 10.3466 10.2712 10.0862C10.6315 9.61101 11.009 9.07068 10.9421 8.47827C11.2895 8.64536 11.6497 8.78424 12.0208 8.89491C11.8158 8.83415 11.8784 9.92132 11.8698 10.0645C11.8396 10.5571 11.7705 11.0454 11.6519 11.5249V11.5271Z" fill="url(#paint1_linear_54_2015)"/>
<g opacity="0.3">
<path d="M11.6692 8.7887C11.7231 9.62198 11.6756 10.4639 11.4815 11.2755C11.3823 11.6813 11.2485 12.0762 11.0738 12.4538C10.9033 12.8336 10.6531 13.1743 10.5409 13.5779C10.6466 13.1721 10.8904 12.8249 11.0544 12.4451C11.2226 12.0654 11.3499 11.6705 11.4405 11.2668C11.6196 10.4574 11.6519 9.61981 11.5872 8.79521L11.667 8.7887H11.6692Z" fill="#D43217"/>
</g>
<g opacity="0.3">
<path d="M11.2161 8.51952C11.0867 9.47866 10.7976 10.5571 9.93469 11.104C10.7803 10.5333 11.0327 9.46781 11.1363 8.50867L11.2161 8.51952Z" fill="#D43217"/>
</g>
<g opacity="0.3">
<path d="M11.4275 8.64973C11.3973 9.7651 11.0133 10.9022 10.1612 11.6508C10.9918 10.8827 11.3434 9.75642 11.3477 8.64539L11.4275 8.64973Z" fill="#D43217"/>
</g>
<g opacity="0.3">
<path d="M11.5354 8.89062C11.5893 9.5503 11.4966 10.2208 11.2722 10.8393C11.0673 11.4729 10.6164 11.9742 10.3273 12.5623C10.6035 11.9699 11.0435 11.4621 11.2334 10.8263C11.4448 10.2078 11.5225 9.54596 11.4556 8.8993L11.5354 8.89062Z" fill="#D43217"/>
</g>
<path d="M15.2955 10.7133C15.2653 11.553 14.9504 12.382 14.4132 13.0265C13.876 13.6731 13.1232 14.131 12.3055 14.3111C12.3789 14.0051 12.2128 13.6948 12.1977 13.3824C12.1804 13.0612 12.3206 12.7509 12.353 12.4319C12.394 12.0087 12.2473 11.5921 12.1761 11.1733C12.1049 10.7545 12.1308 10.2684 12.4393 9.97763C12.9096 9.53712 13.7315 9.79969 14.2622 9.43079C14.3226 9.38956 14.3808 9.33748 14.4542 9.32229C14.506 9.31144 14.5577 9.32012 14.6095 9.32663C14.8188 9.35484 15.0259 9.32229 15.2308 9.33965C15.4293 9.35701 15.371 9.34616 15.3214 9.52627C15.2179 9.89951 15.3106 10.3292 15.2977 10.7133H15.2955Z" fill="url(#paint2_linear_54_2015)"/>
<g opacity="0.3">
<path d="M15.2329 9.36351C14.7756 9.95592 14.9266 10.7718 14.8274 11.4749C14.6526 12.7357 13.5589 13.6145 12.4436 14.0572C13.5438 13.6037 14.6203 12.7205 14.7756 11.4684C14.8662 10.7458 14.6979 9.94507 15.1682 9.3136L15.2329 9.36351Z" fill="#D43217"/>
<path d="M14.8834 9.25506C14.6504 9.72378 14.2017 10.0731 13.6969 10.1816C13.1964 10.2901 12.6701 10.1751 12.1868 10.3639C12.422 10.2641 12.6808 10.2381 12.9332 10.2229C13.6861 10.2446 14.4908 9.95163 14.8101 9.22034L14.8834 9.25506Z" fill="#D43217"/>
<path d="M14.9935 9.2921C14.7626 9.8346 14.3204 10.2773 13.7876 10.5095C13.2547 10.7417 12.6615 10.7807 12.1545 11.065C12.655 10.7699 13.2526 10.7134 13.7725 10.4726C14.2924 10.2339 14.7109 9.78903 14.9201 9.26172L14.9956 9.2921H14.9935Z" fill="#D43217"/>
<path d="M15.3645 9.38745C15.1142 9.83664 15.0948 10.3705 15.0581 10.8869C14.9826 12.7032 14.0485 13.7665 12.3292 14.2396C14.0313 13.7448 14.946 12.688 14.9977 10.8826C15.0279 10.3705 15.0387 9.82362 15.2954 9.34839L15.3666 9.38745H15.3645Z" fill="#D43217"/>
<path d="M15.1122 9.34194C14.3744 10.9 13.766 11.1192 12.256 11.7138C13.7488 11.0866 14.3399 10.8675 15.041 9.30505L15.1143 9.34194H15.1122Z" fill="#D43217"/>
<path d="M15.1747 9.37436C14.8511 9.66948 14.7217 10.1187 14.6354 10.5483C14.4499 12.1086 13.4661 12.8051 12.2128 13.5408C13.4467 12.7899 14.4175 12.089 14.575 10.5375C14.657 10.1035 14.7778 9.63693 15.1186 9.3136L15.1725 9.37436H15.1747Z" fill="#D43217"/>
<path d="M15.1444 9.42648C14.8942 9.66084 14.7756 10.0037 14.6289 10.3205C14.2039 11.2449 13.4057 11.9849 12.4586 12.3386C12.4198 12.3538 12.3745 12.382 12.3745 12.4276C12.3745 12.3798 12.4198 12.3516 12.4586 12.3364C13.3927 11.9675 14.1715 11.2189 14.5749 10.2945C14.7152 9.97766 14.8252 9.62612 15.0905 9.36572L15.1466 9.42431L15.1444 9.42648Z" fill="#D43217"/>
</g>
<path d="M11.324 0C11.749 0.772519 11.6519 1.80327 11.091 2.48248C10.817 2.81232 10.4568 3.05536 10.1267 3.32878C9.40618 3.9277 8.82372 4.6937 8.4462 5.55302C8.32323 5.83512 8.21968 6.14543 8.28009 6.44923C8.48718 6.19751 8.87549 6.26044 9.19908 6.29082C9.63054 6.33205 10.0706 6.27129 10.4762 6.11722C12.1696 5.4749 13.5028 4.15772 15.3128 4.12517C14.9504 3.96676 14.9007 3.50455 14.8231 3.11395C14.5513 1.74251 13.4252 0.579389 12.0683 0.27125C11.7878 0.20832 11.5699 0.14756 11.3218 0L11.324 0Z" fill="url(#paint3_linear_54_2015)"/>
<g style="mix-blend-mode:multiply" opacity="0.3">
<path d="M14.8554 3.99489C14.3484 2.06793 13.8609 0.657436 11.6626 0.334106C13.0756 0.490346 14.1154 1.34316 14.5339 2.71242C14.6806 3.12906 14.8014 3.55221 14.933 3.97319L14.8554 3.99706V3.99489Z" fill="#D43217"/>
<path d="M14.6051 4.05129C14.1715 2.31963 13.6969 0.811483 11.6755 0.614014C13.1058 0.733364 13.876 1.52541 14.316 2.84911C14.4627 3.23537 14.5857 3.63031 14.6828 4.03176L14.603 4.04912L14.6051 4.05129Z" fill="#D43217"/>
<path d="M14.2772 4.0471C13.958 2.75161 13.259 1.20874 11.7985 0.985229C13.2763 1.18487 14.0119 2.73208 14.357 4.03408L14.2772 4.04927V4.0471Z" fill="#D43217"/>
<path d="M10.9701 5.69624C10.2496 5.80691 9.60025 5.12987 8.8905 5.39244C9.57867 5.09949 10.2582 5.74181 10.9572 5.61595L10.9701 5.69624Z" fill="#D43217"/>
<path d="M11.3023 5.43791C10.886 5.44008 10.4718 5.30989 10.1353 5.07119C9.81814 4.81947 9.45788 4.57209 9.0329 4.65672C9.45357 4.5569 9.83756 4.7956 10.159 5.03647C10.4955 5.25997 10.9011 5.37282 11.3002 5.35546V5.43791H11.3023Z" fill="#D43217"/>
<path d="M13.9946 4.14236C13.8501 3.5391 13.7012 2.90546 13.287 2.42806C13.0929 2.23276 12.8168 1.955 12.5946 1.79659C12.3465 1.60997 12.0596 1.4559 11.7446 1.4342C12.2235 1.46024 12.6248 1.77272 12.9742 2.07652L13.3172 2.40202C13.5308 2.63638 13.6818 2.92282 13.7983 3.21794C13.9127 3.51306 13.9946 3.81903 14.0745 4.125L13.9968 4.14453L13.9946 4.14236Z" fill="#D43217"/>
<path d="M12.0293 4.97353C11.792 4.91494 11.6281 4.74785 11.4598 4.6068L10.9528 4.17063C10.6185 3.9124 10.31 3.4784 9.84833 3.49359C10.31 3.46321 10.6379 3.89287 10.9787 4.14025L11.4965 4.55906C11.6669 4.69577 11.8416 4.85201 12.0444 4.89324L12.0293 4.97353Z" fill="#D43217"/>
<path d="M13.7034 4.12288C13.5243 3.46754 13.1339 2.85994 12.5945 2.44113C12.2709 2.20894 11.9064 1.96156 11.572 1.7489C11.805 1.89646 12.0423 2.031 12.2709 2.18724C12.9915 2.60388 13.5481 3.29177 13.7832 4.09901L13.7055 4.12071L13.7034 4.12288Z" fill="#D43217"/>
<path d="M12.2537 4.84553C11.4728 4.42672 11.2527 3.38946 10.4222 3.04443C11.2527 3.35474 11.5224 4.38766 12.2925 4.77392L12.2559 4.84553H12.2537Z" fill="#D43217"/>
<path d="M12.6571 4.67631C11.971 4.41375 11.7812 3.60434 11.3605 3.07052C11.2268 2.88824 11.0499 2.71681 10.8191 2.66907C11.2937 2.76889 11.5094 3.27233 11.7618 3.63472C12.0077 3.99711 12.2321 4.468 12.6786 4.5982L12.6571 4.67631Z" fill="#D43217"/>
<path d="M13.1813 4.53956C12.9224 4.48748 12.7736 4.25963 12.6355 4.05782C12.3421 3.68241 12.1674 3.20935 11.8934 2.82526C11.7532 2.6343 11.5785 2.4607 11.3649 2.35437C12.0401 2.67553 12.2321 3.48277 12.6851 4.02093C12.8167 4.21189 12.9764 4.42021 13.1943 4.4571L13.1813 4.53739V4.53956Z" fill="#D43217"/>
<path d="M13.4423 4.27918C13.2201 3.91462 12.9699 3.35043 12.6808 3.04446C12.3853 2.745 11.8783 2.40214 11.5482 2.13306C12.1091 2.55621 12.8254 2.95115 13.1382 3.61299L13.5135 4.24012L13.4445 4.28135L13.4423 4.27918Z" fill="#D43217"/>
<path d="M11.7424 5.16679C11.3304 5.03442 10.9507 4.80874 10.6422 4.50928C10.3359 4.2185 10.1288 3.79535 9.68652 3.69336C10.1288 3.77799 10.3596 4.20114 10.6702 4.4789C10.9852 4.76317 11.3627 4.97149 11.7661 5.08867L11.7424 5.16679Z" fill="#D43217"/>
<path d="M11.4361 5.2904C10.7716 5.11029 10.3078 4.54175 9.67575 4.24012C9.59162 4.19672 9.49454 4.15332 9.39746 4.18153C9.49238 4.14898 9.59377 4.19021 9.68006 4.23144L9.93894 4.36815C10.4545 4.62204 10.8838 5.09293 11.4533 5.21011L11.4361 5.2904Z" fill="#D43217"/>
<path d="M10.5948 5.93922C9.93031 5.61372 9.15801 5.77864 8.46768 5.94139C9.16448 5.74826 9.93247 5.55513 10.6293 5.86544L10.5948 5.93922Z" fill="#D43217"/>
</g>
<path d="M8.04276 6.92012C6.50678 7.44309 4.83058 7.38233 3.23204 7.1024C2.15772 6.91578 1.02947 6.63585 0.000450579 6.99824C-0.0081785 7.16533 0.108314 7.3194 0.248537 7.40837C0.390917 7.49734 0.557026 7.5364 0.716664 7.58414C1.36385 7.7751 1.96357 8.1223 2.45111 8.59102C2.63664 8.76896 2.81137 8.9686 3.03573 9.09229C3.22988 9.19862 3.44993 9.24419 3.66997 9.28108C4.74429 9.46119 5.84665 9.4677 6.92313 9.30278C6.64484 9.4677 6.38597 9.67819 6.21339 9.95161C6.04081 10.225 5.95883 10.5679 6.03865 10.8825C6.0667 10.991 6.112 11.0952 6.11631 11.2059C6.12926 11.5834 5.69996 11.8004 5.4907 12.1151C5.38716 12.2713 5.33754 12.458 5.25556 12.6272C5.09592 12.9549 4.80253 13.2153 4.45953 13.3325C4.19418 13.4236 3.90943 13.4345 3.63761 13.5061C3.36579 13.5777 3.09182 13.7361 3.00121 14.003C3.66997 14.2569 4.36461 14.437 5.07219 14.5433C5.44109 14.5976 5.82077 14.6323 6.18103 14.5433C6.46363 14.4739 6.72035 14.3328 6.97059 14.1831C7.31576 13.977 7.65013 13.7491 7.94784 13.4779C8.33183 13.1263 8.64895 12.701 8.87978 12.2323C9.19474 11.5878 9.33928 10.876 9.54853 10.1903C9.75779 9.50459 10.049 8.81453 10.5819 8.33713C10.2216 8.24165 9.88506 8.05503 9.61109 7.79897C9.53774 7.72953 9.46655 7.65358 9.41262 7.56678C9.27024 7.33459 9.56147 6.57943 9.38889 6.59245C9.02216 6.62066 8.2779 6.83332 8.0406 6.91361L8.04276 6.92012Z" fill="url(#paint4_linear_54_2015)"/>
<path d="M11.818 4.93456C12.7996 4.28573 13.9796 3.94721 15.1531 3.97759C16.0182 4.00146 16.866 4.21846 17.6987 4.45282C18.8032 4.76313 19.9164 5.11684 20.857 5.77652C21.0684 5.92625 21.2755 6.09334 21.4157 6.31251C21.5559 6.53168 21.625 6.80944 21.5473 7.05682C21.4653 7.31721 21.2431 7.50166 21.0231 7.66007C19.8991 8.47165 18.5681 8.97075 17.2026 9.20945C15.8392 9.44815 14.4391 9.43296 13.0628 9.28106C12.3012 9.19643 11.5332 9.0684 10.83 8.76243C10.5884 8.65827 10.3489 8.53024 10.0879 8.5042C9.52699 8.44778 9.03728 8.86008 8.62309 9.24417C8.8647 8.95773 8.91216 8.51939 8.73527 8.18738C8.55837 7.85537 8.17006 7.65139 7.79901 7.69479C8.28008 7.55591 8.49365 7.27164 8.79567 6.90926C9.00924 6.65103 9.29184 6.61631 9.58955 6.48394C10.4223 6.11287 11.0673 5.43366 11.8202 4.93673L11.818 4.93456Z" fill="url(#paint5_radial_54_2015)"/>
<g style="mix-blend-mode:multiply" opacity="0.4">
<path d="M10.1354 8.32194C9.4321 8.84491 9.27246 9.7997 8.94456 10.5701C8.24992 12.6207 6.75061 14.8015 4.30427 14.1636C3.87928 14.0854 3.4543 13.99 3.02069 14.0073C3.4543 13.9878 3.88144 14.0789 4.30642 14.1549C6.7463 14.7712 8.21108 12.5947 8.88847 10.5505C9.21853 9.75847 9.36522 8.80368 10.0901 8.25684L10.1354 8.32411V8.32194Z" fill="#D43217"/>
<path d="M9.78806 8.07887C8.41819 9.1834 8.52174 11.1603 7.60706 12.5643C6.82828 13.7881 5.60943 13.9986 4.26976 13.8706C3.85125 13.8576 3.42195 13.8597 3.02286 13.9986C3.42195 13.8554 3.85125 13.8511 4.26976 13.8597C5.60295 13.9747 6.81102 13.7621 7.5747 12.5404C8.25855 11.4641 8.34053 10.123 8.94241 9.00329C9.14303 8.62788 9.40191 8.27851 9.73844 8.0116L9.78806 8.0767V8.07887Z" fill="#D43217"/>
<path d="M9.40192 7.92928C8.29955 8.51084 7.853 9.7933 7.60491 10.9521C7.43665 11.7485 7.05481 12.5188 6.47019 13.0895C5.66984 13.823 4.50707 13.4671 3.54493 13.7145C3.35077 13.7666 3.16093 13.8577 3.01855 14.0053C3.16093 13.8577 3.34862 13.7644 3.54493 13.7101C5.20603 13.3912 6.23289 13.9554 7.1562 12.0848C7.56392 11.3709 7.5855 10.5203 7.88104 9.75858C8.15286 8.99475 8.62962 8.25261 9.3674 7.85767L9.40408 7.92928H9.40192Z" fill="#D43217"/>
<path d="M9.16044 7.8749C8.44206 8.12228 7.84019 8.69299 7.55543 9.40475C7.26204 10.1143 7.19732 10.9129 6.81548 11.6008C6.44227 12.2843 5.84471 12.8377 5.13928 13.1523C4.60428 13.378 4.03045 13.4692 3.48897 13.6775C3.31208 13.7404 3.12224 13.825 3.02084 13.9943C3.12224 13.825 3.30992 13.7382 3.48681 13.6731C4.02613 13.4605 4.60212 13.3628 5.13065 13.135C5.82961 12.816 6.41854 12.2605 6.78097 11.5834C7.15202 10.902 7.20811 10.1078 7.49934 9.38305C7.7841 8.65393 8.39676 8.06152 9.13455 7.79895L9.16044 7.8749Z" fill="#D43217"/>
<path d="M8.81728 7.08285C7.49488 7.82716 5.91575 7.87707 4.45312 7.65139C3.34429 7.51034 2.28291 7.11106 1.17407 6.99171C0.803024 6.9635 0.429816 6.97652 0.0630798 7.03511C0.429816 6.97435 0.803024 6.95699 1.17623 6.98303C2.28723 7.09153 3.35292 7.47996 4.4596 7.61233C5.91144 7.82282 7.47978 7.75989 8.77845 7.01341L8.81944 7.08502L8.81728 7.08285Z" fill="#D43217"/>
<path d="M8.62534 7.59727C7.97169 7.95966 7.2339 8.10939 6.50474 8.22657C5.77559 8.31988 5.02917 8.39583 4.29786 8.26346C3.19765 8.08769 2.19452 7.58859 1.16981 7.1828C0.826806 7.05911 0.449284 6.97231 0.0890198 7.07213C0.449284 6.96797 0.828964 7.0526 1.17197 7.17412C2.19883 7.56906 3.20843 8.05948 4.30433 8.2244C5.39159 8.38281 6.51337 8.20921 7.57044 7.93362C7.92207 7.83163 8.27155 7.71228 8.58435 7.52783L8.62534 7.59727Z" fill="#D43217"/>
<path d="M8.73101 7.74913C7.60707 8.86668 5.85968 9.32454 4.33449 8.93395C3.57513 8.70393 2.9107 8.25908 2.22468 7.87282C1.55377 7.47354 0.833243 7.09596 0.0393677 7.04822C0.833243 7.08945 1.56024 7.46269 2.23547 7.85546C3.72399 8.7495 4.88891 9.35493 6.66219 8.84281C7.41076 8.63015 8.13345 8.26125 8.67061 7.69271L8.72886 7.74913H8.73101Z" fill="#D43217"/>
<path d="M8.24344 8.42621C7.20148 9.39837 5.27072 9.6566 3.93537 9.26383C3.2019 9.03598 2.6065 8.53688 2.01325 8.07684C1.42215 7.61897 0.77713 7.16544 0.019928 7.06128C0.779287 7.15893 1.43078 7.60812 2.02619 8.05948C2.62375 8.51518 3.22348 9.0056 3.94832 9.2226C5.03127 9.53725 6.21777 9.37884 7.25541 8.97088C7.60058 8.82766 7.92848 8.63453 8.18735 8.36762L8.2456 8.42404L8.24344 8.42621Z" fill="#D43217"/>
</g>
<path opacity="0.1" d="M14.3959 9.24852C12.7823 9.31579 11.1514 8.80801 9.85919 7.83802C11.695 7.91614 13.4813 7.94652 15.2135 7.32373C15.1553 8.04851 14.8597 8.69083 14.3981 9.24852H14.3959Z" fill="white"/>
<path d="M16.7193 8.10052C15.8176 8.24808 14.9417 8.56273 14.1478 9.01843C14.3938 9.17033 14.685 9.24628 14.9741 9.23326C15.2372 9.22024 15.494 9.13778 15.7377 9.03796C16.1023 8.8904 16.4518 8.70595 16.7797 8.48895C16.8703 8.43036 17.1961 8.26761 17.1982 8.15043C17.2025 7.98117 16.8121 8.08533 16.7171 8.10052H16.7193Z" fill="#FFD78C"/>
<path opacity="0.38" d="M11.3866 5.68324C11.3003 5.69626 11.2248 5.76353 11.201 5.84599C11.2571 5.91977 11.3672 5.91977 11.4578 5.90241C11.585 5.87637 11.708 5.82863 11.818 5.76136C11.859 5.73749 11.9022 5.68975 11.8763 5.64852C11.8655 5.62899 11.8418 5.62031 11.8202 5.61597C11.6498 5.57257 11.4578 5.61163 11.3197 5.7223" fill="#FFD78C"/>
<path opacity="0.38" d="M14.9871 4.51368C14.9871 4.5658 15.0281 4.61141 15.0777 4.62662C15.1274 4.64399 15.1814 4.63747 15.231 4.62662C15.2807 4.61576 15.3304 4.60055 15.38 4.58318C15.4102 4.57232 15.4405 4.55712 15.4642 4.5354C15.488 4.51368 15.5031 4.47893 15.4966 4.44636C15.4642 4.27044 14.9892 4.30953 14.9871 4.51368Z" fill="#FFD78C"/>
<path opacity="0.38" d="M12.0683 5.09952C12.0683 5.12122 12.0855 5.14075 12.1071 5.14726C12.1287 5.15377 12.1502 5.1516 12.1718 5.14726C12.1934 5.14292 12.215 5.13641 12.2344 5.12773C12.2473 5.12339 12.2603 5.11688 12.2711 5.1082C12.2818 5.09952 12.2883 5.08433 12.2862 5.07131C12.2732 4.99536 12.0683 5.01272 12.0683 5.09952Z" fill="#FFD78C"/>
<path opacity="0.38" d="M13.2029 5.3533C13.2029 5.375 13.2202 5.39453 13.2417 5.40104C13.2633 5.40755 13.2849 5.40538 13.3065 5.40104C13.328 5.3967 13.3496 5.39019 13.369 5.38151C13.382 5.37717 13.3949 5.37066 13.4057 5.36198C13.4165 5.3533 13.423 5.33811 13.4208 5.32509C13.4079 5.24914 13.2029 5.2665 13.2029 5.3533Z" fill="#FFD78C"/>
<path opacity="0.38" d="M12.8858 5.07986C12.8858 5.10156 12.9031 5.12109 12.9247 5.1276C12.9462 5.13411 12.9678 5.13194 12.9894 5.1276C13.011 5.12326 13.0325 5.11675 13.0519 5.10807C13.0649 5.10373 13.0778 5.09722 13.0886 5.08854C13.0994 5.07986 13.1059 5.06467 13.1037 5.05165C13.0908 4.9757 12.8858 4.99306 12.8858 5.07986Z" fill="#FFD78C"/>
<path opacity="0.38" d="M14.3075 4.47452C14.3075 4.49622 14.3247 4.51575 14.3463 4.52226C14.3679 4.52877 14.3894 4.5266 14.411 4.52226C14.4326 4.51792 14.4542 4.51141 14.4736 4.50273C14.4865 4.49839 14.4995 4.49188 14.5102 4.4832C14.521 4.47452 14.5275 4.45933 14.5253 4.44631C14.5124 4.37036 14.3075 4.38772 14.3075 4.47452Z" fill="#FFD78C"/>
<path opacity="0.38" d="M16.1844 4.68277C16.1844 4.70447 16.2016 4.724 16.2232 4.73051C16.2448 4.73702 16.2663 4.73485 16.2879 4.73051C16.3095 4.72617 16.3311 4.71966 16.3505 4.71098C16.3634 4.70664 16.3764 4.70013 16.3871 4.69145C16.3979 4.68277 16.4044 4.66758 16.4022 4.65456C16.3893 4.57861 16.1844 4.59597 16.1844 4.68277Z" fill="#FFD78C"/>
<path opacity="0.38" d="M12.5579 5.22971C12.5579 5.22971 12.5579 5.2493 12.5622 5.25583C12.5687 5.26236 12.5774 5.26671 12.5861 5.26889C12.5947 5.27107 12.6034 5.27324 12.6142 5.27324C12.6207 5.27324 12.625 5.27324 12.6315 5.27324C12.638 5.27324 12.6423 5.26671 12.6445 5.26236C12.6531 5.23189 12.5752 5.19924 12.5579 5.22971Z" fill="#FFD78C"/>
<path opacity="0.38" d="M12.2344 5.69187C12.2344 5.69187 12.2344 5.71146 12.2387 5.71799C12.2452 5.72452 12.2539 5.72887 12.2625 5.73105C12.2712 5.73322 12.2798 5.7354 12.2907 5.7354C12.2972 5.7354 12.3015 5.7354 12.308 5.7354C12.3145 5.7354 12.3188 5.72887 12.321 5.72452C12.3296 5.69405 12.2517 5.6614 12.2344 5.69187Z" fill="#FFD78C"/>
<path opacity="0.38" d="M13.2979 4.62644C13.2979 4.62644 13.2979 4.64603 13.3023 4.65256C13.3088 4.65909 13.3174 4.66344 13.3261 4.66562C13.3347 4.66779 13.3434 4.66997 13.3542 4.66997C13.3607 4.66997 13.365 4.66997 13.3715 4.66997C13.378 4.66997 13.3823 4.66344 13.3845 4.65909C13.3931 4.62862 13.3153 4.59597 13.2979 4.62644Z" fill="#FFD78C"/>
<path opacity="0.38" d="M14.808 4.19883C14.808 4.19883 14.808 4.21842 14.8123 4.22495C14.8167 4.23148 14.8275 4.23583 14.8361 4.23801C14.8448 4.24018 14.8535 4.24236 14.8643 4.24236C14.8708 4.24236 14.8751 4.24236 14.8816 4.24236C14.8881 4.24236 14.8924 4.23583 14.8946 4.23148C14.9032 4.20101 14.8253 4.16836 14.808 4.19883Z" fill="#FFD78C"/>
<path opacity="0.38" d="M14.4111 4.90195C14.4111 4.90195 14.4111 4.92154 14.4154 4.92807C14.4219 4.9346 14.4306 4.93895 14.4392 4.94113C14.4479 4.94331 14.4565 4.94548 14.4674 4.94548C14.4738 4.94548 14.4782 4.94548 14.4847 4.94548C14.4912 4.94548 14.4955 4.93895 14.4976 4.9346C14.5063 4.90413 14.4284 4.87148 14.4111 4.90195Z" fill="#FFD78C"/>
<path opacity="0.38" d="M13.7445 4.42239C13.7445 4.44409 13.7617 4.46362 13.7833 4.47013C13.8049 4.47664 13.8265 4.47447 13.848 4.47013C13.8696 4.46579 13.8912 4.45928 13.9106 4.4506C13.9235 4.44626 13.9365 4.43975 13.9473 4.43107C13.958 4.42239 13.9645 4.4072 13.9624 4.39418C13.9494 4.31823 13.7445 4.33559 13.7445 4.42239Z" fill="#FFD78C"/>
<path opacity="0.38" d="M15.6666 4.3118C15.6666 4.3335 15.6839 4.35303 15.7054 4.35954C15.727 4.36605 15.7486 4.36388 15.7701 4.35954C15.7917 4.3552 15.8133 4.34869 15.8327 4.34001C15.8456 4.33567 15.8586 4.32916 15.8694 4.32048C15.8802 4.3118 15.8866 4.29661 15.8845 4.28359C15.8715 4.20764 15.6666 4.225 15.6666 4.3118Z" fill="#FFD78C"/>
<path opacity="0.38" d="M15.5911 4.80019C15.5911 4.81324 15.6019 4.82413 15.6127 4.82848C15.6235 4.83283 15.6387 4.83066 15.6516 4.82848C15.6646 4.8263 15.6776 4.82195 15.6884 4.8176C15.6949 4.81542 15.7036 4.81107 15.7101 4.80671C15.7166 4.80019 15.7209 4.79366 15.7187 4.78495C15.7101 4.74142 15.5932 4.75013 15.5911 4.80236V4.80019Z" fill="#FFD78C"/>
<path opacity="0.38" d="M13.7251 4.92374C13.7251 4.94544 13.7423 4.96497 13.7639 4.97148C13.7855 4.97799 13.807 4.97582 13.8286 4.97148C13.8502 4.96714 13.8718 4.96063 13.8912 4.95195C13.9041 4.94761 13.9171 4.9411 13.9279 4.93242C13.9386 4.92374 13.9451 4.90855 13.943 4.89553C13.93 4.81958 13.7251 4.83694 13.7251 4.92374Z" fill="#FFD78C"/>
<path opacity="0.38" d="M12.6615 4.72414C12.6615 4.75889 12.6896 4.78712 12.722 4.79798C12.7543 4.80884 12.7889 4.8045 12.8234 4.79798C12.8558 4.79147 12.8882 4.78061 12.9206 4.76975C12.94 4.76106 12.9616 4.75238 12.9767 4.73717C12.9918 4.72197 13.0026 4.70025 12.9983 4.67853C12.9767 4.56343 12.6658 4.58949 12.6637 4.72197L12.6615 4.72414Z" fill="#FFD78C"/>
<path style="mix-blend-mode:multiply" opacity="0.42" d="M18.8442 5.11472C18.046 5.37078 17.4916 6.09556 17.5455 6.816C17.5973 7.5386 17.9058 8.31112 18.7342 8.48038C19.116 8.5585 19.8516 8.16139 20.1795 7.97694C20.6757 7.70135 21.1503 7.35632 21.3984 6.90063C21.4567 6.79647 21.4998 6.67929 21.4804 6.56645C21.4523 6.39936 21.2992 6.26916 21.1503 6.15632C20.7706 5.87205 20.3608 5.61599 19.9271 5.39248C19.7438 5.29917 19.5539 5.2102 19.3468 5.16246C19.1397 5.11472 19.0427 5.04962 18.8442 5.11255V5.11472Z" fill="url(#paint6_linear_54_2015)"/>
<path d="M19.7331 6.96352C20.05 6.96352 20.3069 6.70509 20.3069 6.3863C20.3069 6.06751 20.05 5.80908 19.7331 5.80908C19.4162 5.80908 19.1592 6.06751 19.1592 6.3863C19.1592 6.70509 19.4162 6.96352 19.7331 6.96352Z" fill="#ECDAB4"/>
<path d="M19.7331 6.95489C20.0465 6.95489 20.3005 6.69938 20.3005 6.38419C20.3005 6.06899 20.0465 5.81348 19.7331 5.81348C19.4198 5.81348 19.1658 6.06899 19.1658 6.38419C19.1658 6.69938 19.4198 6.95489 19.7331 6.95489Z" fill="#ECDBB6"/>
<path d="M19.7331 6.94841C20.0441 6.94841 20.2962 6.69484 20.2962 6.38204C20.2962 6.06925 20.0441 5.81567 19.7331 5.81567C19.4222 5.81567 19.1701 6.06925 19.1701 6.38204C19.1701 6.69484 19.4222 6.94841 19.7331 6.94841Z" fill="#EDDCB7"/>
<path d="M19.7331 6.94181C20.0417 6.94181 20.2918 6.69018 20.2918 6.37978C20.2918 6.06938 20.0417 5.81775 19.7331 5.81775C19.4245 5.81775 19.1744 6.06938 19.1744 6.37978C19.1744 6.69018 19.4245 6.94181 19.7331 6.94181Z" fill="#EDDDB9"/>
<path d="M19.7331 6.9333C20.0381 6.9333 20.2854 6.68459 20.2854 6.37778C20.2854 6.07098 20.0381 5.82227 19.7331 5.82227C19.4281 5.82227 19.1809 6.07098 19.1809 6.37778C19.1809 6.68459 19.4281 6.9333 19.7331 6.9333Z" fill="#EEDDBB"/>
<path d="M19.7331 6.92682C20.0358 6.92682 20.2811 6.68005 20.2811 6.37564C20.2811 6.07123 20.0358 5.82446 19.7331 5.82446C19.4305 5.82446 19.1852 6.07123 19.1852 6.37564C19.1852 6.68005 19.4305 6.92682 19.7331 6.92682Z" fill="#EEDEBD"/>
<path d="M19.7332 6.92022C20.0334 6.92022 20.2768 6.67539 20.2768 6.37338C20.2768 6.07137 20.0334 5.82654 19.7332 5.82654C19.4329 5.82654 19.1895 6.07137 19.1895 6.37338C19.1895 6.67539 19.4329 6.92022 19.7332 6.92022Z" fill="#EFDFBE"/>
<path d="M19.7331 6.91379C20.0298 6.91379 20.2703 6.67188 20.2703 6.37346C20.2703 6.07504 20.0298 5.83313 19.7331 5.83313C19.4365 5.83313 19.196 6.07504 19.196 6.37346C19.196 6.67188 19.4365 6.91379 19.7331 6.91379Z" fill="#EFE0C0"/>
<path d="M19.7352 6.90706C20.0295 6.90706 20.2681 6.66709 20.2681 6.37107C20.2681 6.07505 20.0295 5.83508 19.7352 5.83508C19.441 5.83508 19.2024 6.07505 19.2024 6.37107C19.2024 6.66709 19.441 6.90706 19.7352 6.90706Z" fill="#F0E1C2"/>
<path d="M19.7352 6.90058C20.0271 6.90058 20.2638 6.66255 20.2638 6.36893C20.2638 6.07531 20.0271 5.83728 19.7352 5.83728C19.4433 5.83728 19.2067 6.07531 19.2067 6.36893C19.2067 6.66255 19.4433 6.90058 19.7352 6.90058Z" fill="#F0E2C4"/>
<path d="M19.7353 6.89208C20.0236 6.89208 20.2573 6.65696 20.2573 6.36694C20.2573 6.07691 20.0236 5.8418 19.7353 5.8418C19.447 5.8418 19.2132 6.07691 19.2132 6.36694C19.2132 6.65696 19.447 6.89208 19.7353 6.89208Z" fill="#F0E3C5"/>
<path d="M19.7353 6.88547C20.0212 6.88547 20.253 6.6523 20.253 6.36467C20.253 6.07704 20.0212 5.84387 19.7353 5.84387C19.4493 5.84387 19.2175 6.07704 19.2175 6.36467C19.2175 6.6523 19.4493 6.88547 19.7353 6.88547Z" fill="#F1E3C7"/>
<path d="M19.7353 6.87887C20.0189 6.87887 20.2487 6.64764 20.2487 6.36241C20.2487 6.07717 20.0189 5.84595 19.7353 5.84595C19.4517 5.84595 19.2219 6.07717 19.2219 6.36241C19.2219 6.64764 19.4517 6.87887 19.7353 6.87887Z" fill="#F1E4C9"/>
<path d="M19.7353 6.87244C20.0153 6.87244 20.2422 6.64413 20.2422 6.36249C20.2422 6.08085 20.0153 5.85254 19.7353 5.85254C19.4553 5.85254 19.2283 6.08085 19.2283 6.36249C19.2283 6.64413 19.4553 6.87244 19.7353 6.87244Z" fill="#F2E5CB"/>
<path d="M19.7352 6.86596C20.0129 6.86596 20.2379 6.63959 20.2379 6.36035C20.2379 6.08111 20.0129 5.85474 19.7352 5.85474C19.4576 5.85474 19.2326 6.08111 19.2326 6.36035C19.2326 6.63959 19.4576 6.86596 19.7352 6.86596Z" fill="#F2E6CC"/>
<path d="M19.7353 6.85947C20.0105 6.85947 20.2336 6.63505 20.2336 6.3582C20.2336 6.08136 20.0105 5.85693 19.7353 5.85693C19.46 5.85693 19.2369 6.08136 19.2369 6.3582C19.2369 6.63505 19.46 6.85947 19.7353 6.85947Z" fill="#F3E7CE"/>
<path d="M19.7353 6.85072C20.0069 6.85072 20.2272 6.62921 20.2272 6.35597C20.2272 6.08272 20.0069 5.86121 19.7353 5.86121C19.4637 5.86121 19.2434 6.08272 19.2434 6.35597C19.2434 6.62921 19.4637 6.85072 19.7353 6.85072Z" fill="#F3E8D0"/>
<path d="M19.7353 6.84424C20.0046 6.84424 20.2229 6.62467 20.2229 6.35382C20.2229 6.08297 20.0046 5.8634 19.7353 5.8634C19.4661 5.8634 19.2478 6.08297 19.2478 6.35382C19.2478 6.62467 19.4661 6.84424 19.7353 6.84424Z" fill="#F4E9D2"/>
<path d="M19.7353 6.83776C20.0022 6.83776 20.2185 6.62013 20.2185 6.35168C20.2185 6.08323 20.0022 5.8656 19.7353 5.8656C19.4684 5.8656 19.2521 6.08323 19.2521 6.35168C19.2521 6.62013 19.4684 6.83776 19.7353 6.83776Z" fill="#F4E9D3"/>
<path d="M19.7353 6.83133C19.9986 6.83133 20.2121 6.61662 20.2121 6.35176C20.2121 6.0869 19.9986 5.87219 19.7353 5.87219C19.472 5.87219 19.2585 6.0869 19.2585 6.35176C19.2585 6.61662 19.472 6.83133 19.7353 6.83133Z" fill="#F4EAD5"/>
<path d="M19.7375 6.82473C19.9984 6.82473 20.2099 6.61196 20.2099 6.3495C20.2099 6.08704 19.9984 5.87427 19.7375 5.87427C19.4765 5.87427 19.265 6.08704 19.265 6.3495C19.265 6.61196 19.4765 6.82473 19.7375 6.82473Z" fill="#F5EBD7"/>
<path d="M19.7375 6.81824C19.996 6.81824 20.2056 6.60742 20.2056 6.34735C20.2056 6.08729 19.996 5.87646 19.7375 5.87646C19.4789 5.87646 19.2693 6.08729 19.2693 6.34735C19.2693 6.60742 19.4789 6.81824 19.7375 6.81824Z" fill="#F5ECD9"/>
<path d="M19.7375 6.80962C19.9924 6.80962 20.1991 6.60171 20.1991 6.34524C20.1991 6.08877 19.9924 5.88086 19.7375 5.88086C19.4825 5.88086 19.2758 6.08877 19.2758 6.34524C19.2758 6.60171 19.4825 6.80962 19.7375 6.80962Z" fill="#F6EDDA"/>
<path d="M19.7375 6.80301C19.9901 6.80301 20.1948 6.59705 20.1948 6.34297C20.1948 6.0889 19.9901 5.88293 19.7375 5.88293C19.4849 5.88293 19.2802 6.0889 19.2802 6.34297C19.2802 6.59705 19.4849 6.80301 19.7375 6.80301Z" fill="#F6EEDC"/>
<path d="M19.7375 6.79653C19.9877 6.79653 20.1905 6.59251 20.1905 6.34083C20.1905 6.08916 19.9877 5.88513 19.7375 5.88513C19.4873 5.88513 19.2845 6.08916 19.2845 6.34083C19.2845 6.59251 19.4873 6.79653 19.7375 6.79653Z" fill="#F7EFDE"/>
<path d="M19.7375 6.78791C19.9842 6.78791 20.1841 6.5868 20.1841 6.33872C20.1841 6.09064 19.9842 5.88953 19.7375 5.88953C19.4909 5.88953 19.291 6.09064 19.291 6.33872C19.291 6.5868 19.4909 6.78791 19.7375 6.78791Z" fill="#F7F0E0"/>
<path d="M19.7375 6.7835C19.9817 6.7835 20.1797 6.58433 20.1797 6.33865C20.1797 6.09296 19.9817 5.8938 19.7375 5.8938C19.4933 5.8938 19.2953 6.09296 19.2953 6.33865C19.2953 6.58433 19.4933 6.7835 19.7375 6.7835Z" fill="#F7F0E1"/>
<path d="M19.7374 6.77689C19.9792 6.77689 20.1753 6.57967 20.1753 6.33638C20.1753 6.0931 19.9792 5.89587 19.7374 5.89587C19.4955 5.89587 19.2994 6.0931 19.2994 6.33638C19.2994 6.57967 19.4955 6.77689 19.7374 6.77689Z" fill="#F8F1E3"/>
<path d="M19.7374 6.76815C19.9756 6.76815 20.1688 6.57384 20.1688 6.33415C20.1688 6.09445 19.9756 5.90015 19.7374 5.90015C19.4991 5.90015 19.3059 6.09445 19.3059 6.33415C19.3059 6.57384 19.4991 6.76815 19.7374 6.76815Z" fill="#F8F2E5"/>
<path d="M19.7374 6.76178C19.9733 6.76178 20.1645 6.56942 20.1645 6.33213C20.1645 6.09483 19.9733 5.90247 19.7374 5.90247C19.5014 5.90247 19.3102 6.09483 19.3102 6.33213C19.3102 6.56942 19.5014 6.76178 19.7374 6.76178Z" fill="#F9F3E7"/>
<path d="M19.7374 6.7553C19.9709 6.7553 20.1602 6.56488 20.1602 6.32998C20.1602 6.09509 19.9709 5.90466 19.7374 5.90466C19.5039 5.90466 19.3146 6.09509 19.3146 6.32998C19.3146 6.56488 19.5039 6.7553 19.7374 6.7553Z" fill="#F9F4E8"/>
<path d="M19.7373 6.74655C19.9673 6.74655 20.1537 6.55905 20.1537 6.32775C20.1537 6.09644 19.9673 5.90894 19.7373 5.90894C19.5074 5.90894 19.321 6.09644 19.321 6.32775C19.321 6.55905 19.5074 6.74655 19.7373 6.74655Z" fill="#FAF5EA"/>
<path d="M19.7395 6.74227C19.9671 6.74227 20.1516 6.5567 20.1516 6.3278C20.1516 6.09889 19.9671 5.91333 19.7395 5.91333C19.512 5.91333 19.3275 6.09889 19.3275 6.3278C19.3275 6.5567 19.512 6.74227 19.7395 6.74227Z" fill="#FAF6EC"/>
<path d="M19.7395 6.73566C19.9647 6.73566 20.1473 6.55204 20.1473 6.32553C20.1473 6.09903 19.9647 5.91541 19.7395 5.91541C19.5144 5.91541 19.3318 6.09903 19.3318 6.32553C19.3318 6.55204 19.5144 6.73566 19.7395 6.73566Z" fill="#FBF6EE"/>
<path d="M19.7396 6.72918C19.9624 6.72918 20.143 6.5475 20.143 6.32339C20.143 6.09928 19.9624 5.9176 19.7396 5.9176C19.5168 5.9176 19.3362 6.09928 19.3362 6.32339C19.3362 6.5475 19.5168 6.72918 19.7396 6.72918Z" fill="#FBF7EF"/>
<path d="M19.7395 6.72056C19.9587 6.72056 20.1364 6.54179 20.1364 6.32128C20.1364 6.10076 19.9587 5.922 19.7395 5.922C19.5203 5.922 19.3426 6.10076 19.3426 6.32128C19.3426 6.54179 19.5203 6.72056 19.7395 6.72056Z" fill="#FBF8F1"/>
<path d="M19.7395 6.71395C19.9564 6.71395 20.1322 6.53713 20.1322 6.31901C20.1322 6.10089 19.9564 5.92407 19.7395 5.92407C19.5227 5.92407 19.3469 6.10089 19.3469 6.31901C19.3469 6.53713 19.5227 6.71395 19.7395 6.71395Z" fill="#FCF9F3"/>
<path d="M19.7395 6.70747C19.954 6.70747 20.1278 6.53259 20.1278 6.31687C20.1278 6.10115 19.954 5.92627 19.7395 5.92627C19.5251 5.92627 19.3512 6.10115 19.3512 6.31687C19.3512 6.53259 19.5251 6.70747 19.7395 6.70747Z" fill="#FCFAF5"/>
<path d="M19.7396 6.70092C19.9504 6.70092 20.1214 6.52896 20.1214 6.31683C20.1214 6.1047 19.9504 5.93274 19.7396 5.93274C19.5287 5.93274 19.3577 6.1047 19.3577 6.31683C19.3577 6.52896 19.5287 6.70092 19.7396 6.70092Z" fill="#FDFBF6"/>
<path d="M19.7395 6.69456C19.948 6.69456 20.117 6.52454 20.117 6.31481C20.117 6.10508 19.948 5.93506 19.7395 5.93506C19.531 5.93506 19.362 6.10508 19.362 6.31481C19.362 6.52454 19.531 6.69456 19.7395 6.69456Z" fill="#FDFCF8"/>
<path d="M19.7395 6.68795C19.9456 6.68795 20.1127 6.51988 20.1127 6.31254C20.1127 6.10521 19.9456 5.93713 19.7395 5.93713C19.5334 5.93713 19.3663 6.10521 19.3663 6.31254C19.3663 6.51988 19.5334 6.68795 19.7395 6.68795Z" fill="#FEFCFA"/>
<path d="M19.7395 6.67921C19.9421 6.67921 20.1062 6.51404 20.1062 6.31031C20.1062 6.10657 19.9421 5.94141 19.7395 5.94141C19.537 5.94141 19.3728 6.10657 19.3728 6.31031C19.3728 6.51404 19.537 6.67921 19.7395 6.67921Z" fill="#FEFDFC"/>
<path d="M19.7395 6.67272C19.9397 6.67272 20.1019 6.5095 20.1019 6.30816C20.1019 6.10682 19.9397 5.9436 19.7395 5.9436C19.5393 5.9436 19.3771 6.10682 19.3771 6.30816C19.3771 6.5095 19.5393 6.67272 19.7395 6.67272Z" fill="#FFFEFD"/>
<path d="M19.7417 6.66624C19.9394 6.66624 20.0998 6.50496 20.0998 6.30602C20.0998 6.10708 19.9394 5.9458 19.7417 5.9458C19.5439 5.9458 19.3835 6.10708 19.3835 6.30602C19.3835 6.50496 19.5439 6.66624 19.7417 6.66624Z" fill="white"/>
<path d="M20.1192 6.27572C20.1365 6.44064 20.0092 6.5882 19.8323 6.60556C19.6575 6.62292 19.5022 6.50574 19.485 6.34082C19.4677 6.1759 19.595 6.02834 19.7719 6.01098C19.9466 5.99362 20.1019 6.1108 20.1192 6.27572Z" fill="#130F0E"/>
<path d="M20.0135 6.20625C20.0135 6.25616 19.9725 6.29739 19.9229 6.29739C19.8733 6.29739 19.8323 6.25616 19.8323 6.20625C19.8323 6.15634 19.8733 6.11511 19.9229 6.11511C19.9725 6.11511 20.0135 6.15634 20.0135 6.20625Z" fill="white"/>
<path opacity="0.1" d="M19.308 7.50373C19.2541 7.49939 19.1958 7.49505 19.1505 7.52543C19.0988 7.55798 19.0772 7.62742 19.0837 7.68818C19.0945 7.80319 19.1872 7.90084 19.2951 7.94207C19.4029 7.98547 19.5237 7.98113 19.6381 7.95943C19.802 7.92905 20.9173 7.30409 20.624 7.10011C20.5679 7.06105 20.1515 7.38004 20.0523 7.41476C19.8171 7.49939 19.5583 7.52109 19.3102 7.50373H19.308Z" fill="white"/>
<path style="mix-blend-mode:multiply" opacity="0.42" d="M18.0417 6.18888C17.9123 6.42541 17.8605 6.70099 17.8756 6.97007C17.8821 7.07857 17.8993 7.19141 17.9576 7.28255C18.0158 7.37369 18.1237 7.44096 18.2294 7.42143C18.3394 7.4019 18.4192 7.29991 18.4516 7.19358C18.4839 7.08725 18.4796 6.97224 18.4839 6.8594C18.4947 6.5925 18.5659 6.32776 18.6867 6.09123C18.7407 5.98273 19.1376 5.55524 19.1031 5.47278C18.9672 5.14945 18.115 6.06085 18.0439 6.18888H18.0417Z" fill="url(#paint7_linear_54_2015)"/>
<path style="mix-blend-mode:multiply" opacity="0.42" d="M20.0394 5.38157C19.0147 4.98446 17.9749 4.62424 16.9243 4.30308C16.5446 4.18807 16.1606 4.07523 15.768 4.0123C14.4197 3.7953 12.9872 4.17505 11.9194 5.03437C11.4923 5.37723 11.0457 5.68537 10.625 6.03691C10.2044 6.38845 9.19044 6.77253 8.64465 6.81159C10.625 7.53203 11.6562 6.41232 13.162 6.01304C15.4379 5.40978 18.141 5.43148 20.6434 5.73528C20.583 5.72009 20.0954 5.4011 20.0372 5.3794L20.0394 5.38157Z" fill="url(#paint8_linear_54_2015)"/>
<path d="M18.5012 19.0569C18.5012 19.0699 18.4969 19.0829 18.4904 19.0938C18.4796 19.109 18.4581 19.1155 18.4387 19.1198C18.018 19.2261 17.634 19.4648 17.3492 19.7947C17.2824 19.5017 17.2996 19.1871 17.3989 18.9028C17.4657 18.7097 17.5714 18.5274 17.6124 18.3256C17.6858 17.9741 17.5499 17.6572 17.4636 17.3274C17.8023 17.4164 18.0655 17.5075 18.251 17.8178C18.471 18.1845 18.5659 18.6316 18.5012 19.0569Z" fill="url(#paint9_linear_54_2015)"/>
<g opacity="0.3">
<path d="M17.7268 17.3905C17.88 17.7442 17.9512 18.1565 17.8217 18.5298C17.6729 18.8813 17.4658 19.1981 17.3946 19.5757C17.4399 19.2003 17.6319 18.8574 17.757 18.5081C17.8584 18.1522 17.77 17.7703 17.606 17.4491L17.729 17.3905H17.7268Z" fill="#8FAED6"/>
</g>
<g opacity="0.3">
<path d="M18.0029 17.3687C18.2078 17.9155 18.4235 18.4971 18.3631 19.0916C18.3761 18.4949 18.1237 17.9502 17.8777 17.4207L18.0029 17.3687Z" fill="#8FAED6"/>
</g>
<g opacity="0.3">
<path d="M17.908 17.4077C18.1345 18.0023 18.1431 18.6685 17.9468 19.2566C18.1 18.6555 18.0396 18.0088 17.7829 17.4598L17.908 17.4077Z" fill="#8FAED6"/>
</g>
<path d="M23.1804 19.9314C23.3853 20.7495 23.7434 21.535 24.2784 22.1839C24.5437 21.7455 24.5891 21.2117 24.6516 20.7018C24.7142 20.1918 24.8113 19.6537 25.1521 19.2717C24.9558 19.0113 24.7573 18.7509 24.561 18.4905C24.2007 18.0153 23.8232 17.475 23.8901 16.8826C23.5428 17.0497 23.1825 17.1885 22.8115 17.2992C23.0164 17.2384 22.9538 18.3256 22.9625 18.4688C22.9927 18.9614 23.0617 19.4497 23.1804 19.9292V19.9314Z" fill="url(#paint10_linear_54_2015)"/>
<g style="mix-blend-mode:multiply">
<g opacity="0.3">
<path d="M23.245 17.1974C23.1781 18.022 23.2127 18.8575 23.3917 19.6691C23.4823 20.0727 23.6096 20.4698 23.7779 20.8474C23.9418 21.2271 24.1877 21.5743 24.2913 21.9801C24.1791 21.5765 23.9289 21.2358 23.7584 20.856C23.5837 20.4785 23.45 20.0814 23.3507 19.6777C23.1587 18.8662 23.1091 18.0242 23.163 17.1909L23.2429 17.1974H23.245Z" fill="#8FAED6"/>
</g>
<g opacity="0.3">
<path d="M23.6959 16.9131C23.7994 17.8722 24.0518 18.9377 24.8975 19.5084C24.0324 18.9616 23.7433 17.8831 23.6161 16.9239L23.6959 16.9131Z" fill="#8FAED6"/>
</g>
<g opacity="0.3">
<path d="M23.4845 17.0476C23.4866 18.1586 23.8404 19.2849 24.6709 20.0531C23.8188 19.3044 23.4348 18.1673 23.4046 17.0519L23.4845 17.0476Z" fill="#8FAED6"/>
</g>
<g opacity="0.3">
<path d="M23.3766 17.3015C23.3097 17.9482 23.3874 18.61 23.5988 19.2285C23.7887 19.8643 24.2287 20.3721 24.5049 20.9645C24.2158 20.3764 23.7649 19.8751 23.56 19.2415C23.3335 18.6231 23.2407 17.9525 23.2968 17.2928L23.3766 17.3015Z" fill="#8FAED6"/>
</g>
</g>
<path d="M19.5346 19.1177C19.5648 19.9575 19.8798 20.7864 20.417 21.4309C20.9541 22.0775 21.707 22.5354 22.5246 22.7155C22.4513 22.4096 22.6174 22.0992 22.6325 21.7868C22.6497 21.4656 22.5095 21.1553 22.4772 20.8363C22.4362 20.4132 22.5829 19.9965 22.6541 19.5777C22.7252 19.1589 22.6994 18.6728 22.3909 18.382C21.9206 17.9415 21.0987 18.2041 20.568 17.8352C20.5076 17.794 20.4493 17.7419 20.376 17.7267C20.3242 17.7159 20.2724 17.7245 20.2207 17.731C20.0114 17.7593 19.8043 17.7267 19.5972 17.7441C19.3987 17.7614 19.457 17.7506 19.5066 17.9307C19.6101 18.3039 19.5174 18.7336 19.5303 19.1177H19.5346Z" fill="url(#paint11_linear_54_2015)"/>
<g style="mix-blend-mode:multiply" opacity="0.3">
<path d="M19.6619 17.7179C20.1322 18.3494 19.9639 19.1501 20.0545 19.8727C20.212 21.1248 21.2863 22.008 22.3865 22.4615C20.9562 21.906 19.8647 20.7646 19.9553 19.1436C19.9402 18.6618 19.8949 18.1497 19.5972 17.7678L19.6619 17.7179Z" fill="#8FAED6"/>
<path d="M20.0221 17.6246C20.3414 18.3559 21.1461 18.6489 21.899 18.6272C22.1514 18.6424 22.4102 18.6684 22.6454 18.7682C22.4081 18.6749 22.1514 18.6554 21.8968 18.6467C21.1267 18.6901 20.3004 18.408 19.9488 17.6594L20.0221 17.6246Z" fill="#8FAED6"/>
<path d="M19.9121 17.6638C20.1235 18.1911 20.542 18.636 21.0598 18.8747C21.5797 19.1155 22.1751 19.172 22.6777 19.4671C22.1686 19.1828 21.5775 19.1438 21.0447 18.9116C20.5097 18.6815 20.0696 18.2367 19.8388 17.6942L19.9143 17.6638H19.9121Z" fill="#8FAED6"/>
<path d="M19.539 17.7506C19.7957 18.2258 19.8043 18.7705 19.8367 19.2848C19.8885 21.0902 20.8053 22.1492 22.5052 22.6418C20.7837 22.1687 19.8518 21.1054 19.7763 19.2891C19.7396 18.7748 19.718 18.2389 19.4699 17.7897L19.5411 17.7506H19.539Z" fill="#8FAED6"/>
<path d="M19.7913 17.7092C20.4903 19.2738 21.0857 19.493 22.5764 20.1179C21.707 19.7512 20.706 19.4626 20.1947 18.5859C20.0157 18.3168 19.8668 18.0304 19.718 17.7461L19.7892 17.7092H19.7913Z" fill="#8FAED6"/>
<path d="M19.7115 17.7179C20.0523 18.0412 20.1753 18.5078 20.2551 18.9418C20.4148 20.4955 21.3855 21.1964 22.6173 21.945C21.3618 21.2094 20.3802 20.5129 20.1947 18.9526C20.1084 18.523 19.979 18.0738 19.6554 17.7787L19.7093 17.7179H19.7115Z" fill="#8FAED6"/>
<path d="M19.7439 17.7701C20.0071 18.0305 20.1192 18.3821 20.2595 18.6989C20.6629 19.6233 21.4416 20.3698 22.3757 20.7409C22.4124 20.7582 22.4599 20.7864 22.4599 20.832C22.4599 20.7843 22.4124 20.7582 22.3757 20.743C21.4265 20.3893 20.6305 19.6494 20.2055 18.7249C20.0588 18.406 19.9402 18.0653 19.6899 17.8309L19.746 17.7723L19.7439 17.7701Z" fill="#8FAED6"/>
</g>
<path d="M23.5083 8.4043C23.0833 9.17682 23.1804 10.2076 23.7412 10.8868C24.0152 11.2166 24.3755 11.4597 24.7055 11.7331C25.4261 12.332 26.0085 13.098 26.3861 13.9573C26.509 14.2394 26.6126 14.5497 26.5522 14.8535C26.3451 14.6018 25.9568 14.6647 25.6332 14.6951C25.2017 14.7364 24.7616 14.6756 24.3561 14.5215C22.6626 13.8792 21.3294 12.562 19.5195 12.5295C19.8819 12.3711 19.9315 11.9088 20.0092 11.5182C20.281 10.1468 21.4071 8.98369 22.764 8.67555C23.0445 8.61262 23.2623 8.55186 23.5104 8.4043H23.5083Z" fill="url(#paint12_linear_54_2015)"/>
<g style="mix-blend-mode:multiply" opacity="0.3">
<path d="M19.8969 12.3754C20.4341 10.4485 20.954 9.02714 23.1674 8.73853C21.7673 8.91647 20.7469 9.76927 20.3543 11.1364C20.2141 11.553 20.0997 11.9783 19.9768 12.3993L19.8991 12.3754H19.8969Z" fill="#8FAED6"/>
<path d="M20.1472 12.4384C20.611 10.7024 21.1179 9.18555 23.1544 9.02063C21.133 9.2181 20.6584 10.7262 20.2248 12.4579L20.145 12.4384H20.1472Z" fill="#8FAED6"/>
<path d="M20.4729 12.4341C20.8181 11.1321 21.5537 9.58489 23.0314 9.38525C21.7608 9.5697 21.0446 10.8175 20.6929 11.9459C20.639 12.1129 20.6002 12.28 20.5549 12.4471L20.4751 12.4319L20.4729 12.4341Z" fill="#8FAED6"/>
<path d="M23.875 14.0182C24.5739 14.144 25.2535 13.5017 25.9416 13.7947C25.2297 13.5321 24.5826 14.2091 23.862 14.0985L23.875 14.0182Z" fill="#8FAED6"/>
<path d="M23.5319 13.76C23.931 13.7774 24.3366 13.6645 24.6731 13.441C24.9945 13.2001 25.3785 12.9593 25.7992 13.0613C25.3742 12.9766 25.014 13.2218 24.6968 13.4757C24.3603 13.7144 23.9461 13.8468 23.5298 13.8425V13.76H23.5319Z" fill="#8FAED6"/>
<path d="M20.7577 12.5272C20.9151 11.924 21.0834 11.2817 21.5127 10.8064L21.8557 10.4809C22.2052 10.1771 22.6064 9.86466 23.0854 9.83862C22.7704 9.86032 22.4835 10.0166 22.2354 10.201C21.75 10.5721 21.2776 11.0408 21.0899 11.6419C20.982 11.9348 20.9087 12.2408 20.8375 12.5468L20.7598 12.5272H20.7577Z" fill="#8FAED6"/>
<path d="M22.7855 13.2977C22.9883 13.2564 23.163 13.1002 23.3335 12.9635L23.8512 12.5447C24.1942 12.2951 24.52 11.8676 24.9816 11.898C24.52 11.8828 24.2115 12.319 23.8771 12.5751L23.3701 13.0112C23.2019 13.1523 23.0379 13.3194 22.8006 13.378L22.7855 13.2977Z" fill="#8FAED6"/>
<path d="M21.0511 12.5034C21.2517 11.8351 21.6616 11.2318 22.2181 10.8217C22.5482 10.596 22.9193 10.3595 23.2601 10.1533C23.0314 10.3052 22.7963 10.4484 22.5741 10.609C21.8751 11.0365 21.3358 11.7309 21.1287 12.5273L21.0511 12.5056V12.5034Z" fill="#8FAED6"/>
<path d="M22.5396 13.1761C23.3097 12.7899 23.5794 11.757 24.4099 11.4467C23.5794 11.7939 23.3572 12.8289 22.5784 13.2478L22.5417 13.1761H22.5396Z" fill="#8FAED6"/>
<path d="M22.1534 13.0004C22.8135 12.7617 23.0314 11.9653 23.4564 11.4597C23.5966 11.2796 23.7822 11.1103 24.013 11.0713C23.7822 11.119 23.6074 11.2905 23.4715 11.4727C23.0508 12.0066 22.8588 12.816 22.175 13.0785L22.1534 13.0004Z" fill="#8FAED6"/>
<path d="M21.6357 12.8637C21.8536 12.8268 22.011 12.6163 22.1448 12.4275C22.4468 12.0608 22.6323 11.5964 22.9193 11.2188C23.066 11.03 23.2472 10.8586 23.465 10.7588C23.2493 10.8651 23.0767 11.0387 22.9365 11.2297C22.6625 11.6138 22.4878 12.0868 22.1944 12.4622C22.0585 12.6619 21.9075 12.8897 21.6486 12.944L21.6357 12.8637Z" fill="#8FAED6"/>
<path d="M21.3185 12.6423C21.5558 12.2778 21.8147 11.7266 22.121 11.4185C22.4295 11.1233 22.9408 10.7978 23.2838 10.5353C22.7359 10.9736 22.0412 11.3772 21.7478 12.0456L21.3897 12.6814L21.3207 12.6402L21.3185 12.6423Z" fill="#8FAED6"/>
<path d="M23.066 13.4931C23.4694 13.3781 23.8491 13.1698 24.1619 12.8833C24.4725 12.6056 24.7033 12.1824 25.1456 12.0978C24.7033 12.1998 24.4962 12.6229 24.1899 12.9137C23.8814 13.2132 23.5017 13.4388 23.0897 13.5712L23.066 13.4931Z" fill="#8FAED6"/>
<path d="M23.3766 13.6145C23.9483 13.4952 24.3754 13.0265 24.891 12.7726L25.1499 12.6359C25.2362 12.5946 25.3354 12.5534 25.4325 12.586C25.3354 12.5577 25.2405 12.6011 25.1542 12.6445C24.9083 12.7856 24.6365 12.9353 24.4164 13.1133C24.1058 13.3455 23.7887 13.595 23.3939 13.6948L23.3766 13.6145Z" fill="#8FAED6"/>
<path d="M24.2029 14.2699C24.8996 13.9617 25.6676 14.1527 26.3644 14.3458C25.6741 14.1831 24.9018 14.0182 24.2374 14.3437L24.2029 14.2699Z" fill="#8FAED6"/>
</g>
<path d="M26.7873 15.3223C28.3233 15.8453 29.9995 15.7846 31.598 15.5046C32.6723 15.318 33.8006 15.0381 34.8296 15.4005C34.8382 15.5676 34.7217 15.7216 34.5815 15.8106C34.4391 15.8996 34.273 15.9386 34.1134 15.9864C33.4662 16.1773 32.8665 16.5245 32.3789 16.9932C32.1934 17.1712 32.0187 17.3708 31.7943 17.4945C31.6002 17.6008 31.3801 17.6464 31.1622 17.6833C30.0879 17.8634 28.9855 17.8699 27.9091 17.705C28.1874 17.8699 28.4462 18.0804 28.6188 18.3538C28.7914 18.6272 28.8734 18.9701 28.7935 19.2848C28.7655 19.3933 28.7202 19.4974 28.7159 19.6081C28.7029 19.9857 29.1322 20.2027 29.3415 20.5173C29.445 20.6736 29.4947 20.8602 29.5766 21.0294C29.7363 21.3571 30.0297 21.6153 30.3727 21.7347C30.638 21.8258 30.9228 21.8367 31.1946 21.9083C31.4664 21.9799 31.7404 22.1383 31.831 22.4052C31.1622 22.6591 30.4676 22.8392 29.76 22.9455C29.3911 22.9998 29.0114 23.0345 28.6512 22.9455C28.3686 22.8761 28.1119 22.7351 27.8616 22.5853C27.5164 22.3792 27.1821 22.1513 26.8844 21.8801C26.5004 21.5285 26.1833 21.1032 25.9524 20.6345C25.6375 19.99 25.4929 19.2782 25.2837 18.5925C25.0744 17.9068 24.7832 17.2168 24.2503 16.7394C24.6106 16.6439 24.9471 16.4573 25.2211 16.2012C25.2945 16.1318 25.3656 16.0558 25.4196 15.969C25.562 15.7368 25.2707 14.9817 25.4433 14.9947C25.81 15.0229 26.5543 15.2355 26.7916 15.3158L26.7873 15.3223Z" fill="url(#paint13_linear_54_2015)"/>
<path d="M23.0142 13.339C22.0326 12.6901 20.8526 12.3516 19.6791 12.382C18.814 12.4059 17.9662 12.6229 17.1335 12.8572C16.029 13.1675 14.9158 13.5213 13.9752 14.1809C13.7638 14.3307 13.5567 14.4978 13.4165 14.7169C13.2763 14.9361 13.2072 15.2139 13.2849 15.4612C13.3669 15.7216 13.5891 15.9061 13.8091 16.0645C14.9331 16.8761 16.2641 17.3752 17.6296 17.6139C18.993 17.8526 20.3931 17.8374 21.7695 17.6855C22.531 17.6009 23.299 17.4728 24.0022 17.1669C24.2438 17.0627 24.4833 16.9347 24.7443 16.9086C25.3052 16.8522 25.7949 17.2645 26.2091 17.6486C25.9675 17.3622 25.92 16.9238 26.0969 16.5918C26.2738 16.2598 26.6621 16.0558 27.0332 16.0992C26.5521 15.9603 26.3386 15.6761 26.0365 15.3137C25.823 15.0554 25.5404 15.0207 25.2427 14.8884C24.41 14.5173 23.7649 13.8381 23.012 13.3411L23.0142 13.339Z" fill="url(#paint14_radial_54_2015)"/>
<g style="mix-blend-mode:multiply" opacity="0.4">
<path d="M24.7421 16.6592C25.467 17.206 25.6137 18.1608 25.9437 18.9528C26.619 20.9991 28.0859 23.1735 30.5258 22.5572C30.9508 22.4813 31.3779 22.3901 31.8115 22.4096C31.3779 22.3945 30.9508 22.4878 30.5279 22.5659C28.0794 23.2039 26.5823 21.023 25.8877 18.9724C25.5597 18.202 25.4001 17.2472 24.6968 16.7243L24.7421 16.657V16.6592Z" fill="#8FAED6"/>
<path d="M25.0938 16.4181C26.4701 17.5378 26.3579 19.532 27.2575 20.9469C28.0255 22.1708 29.2228 22.3791 30.5625 22.2662C30.981 22.2576 31.4103 22.2619 31.8094 22.4051C31.4103 22.2662 30.981 22.2641 30.5625 22.2771C29.2206 22.4029 28.0039 22.1968 27.2252 20.9707C26.5284 19.8923 26.4378 18.5599 25.8294 17.4467C25.6309 17.0799 25.3721 16.7414 25.0463 16.4854L25.0959 16.4203L25.0938 16.4181Z" fill="#8FAED6"/>
<path d="M25.467 16.2598C26.2048 16.6569 26.6815 17.3968 26.9534 18.1607C27.2489 18.9202 27.2705 19.7708 27.6782 20.4869C27.8702 20.8428 28.0838 21.1943 28.3836 21.4699C29.171 22.2034 30.336 21.8562 31.2895 22.1122C31.4836 22.1665 31.6735 22.2598 31.8159 22.4074C31.6735 22.262 31.4836 22.1708 31.2895 22.1166C29.6068 21.8106 28.5994 22.3857 27.6437 20.5065C27.2273 19.7925 27.1993 18.9397 26.8973 18.1824C26.6233 17.4272 26.1465 16.709 25.4303 16.3314L25.467 16.2598Z" fill="#8FAED6"/>
<path d="M25.6978 16.2034C26.4356 16.4638 27.0482 17.0562 27.333 17.7875C27.6242 18.5122 27.6803 19.3065 28.0514 19.9878C28.4138 20.6671 29.0027 21.2204 29.7017 21.5394C30.2302 21.7672 30.8062 21.8649 31.3455 22.0776C31.5224 22.1427 31.7123 22.2295 31.8115 22.3987C31.7101 22.2295 31.5203 22.1448 31.3434 22.0819C30.8019 21.8736 30.2281 21.7824 29.6931 21.5568C28.9876 21.2421 28.3879 20.6888 28.0169 20.0052C27.635 19.3173 27.5703 18.5166 27.2769 17.8092C26.9922 17.0974 26.3903 16.5267 25.6719 16.2793L25.6978 16.2034Z" fill="#8FAED6"/>
<path d="M26.0538 15.4158C27.3525 16.1622 28.9187 16.2252 30.3727 16.0147C31.4815 15.8823 32.5472 15.4939 33.656 15.3854C34.0271 15.3593 34.4025 15.3767 34.7692 15.4375C34.4025 15.381 34.0271 15.3658 33.6582 15.3941C32.5472 15.5134 31.488 15.9105 30.3791 16.0537C29.6435 16.1644 28.8928 16.2121 28.1485 16.134C27.4064 16.0559 26.6708 15.8541 26.015 15.4852L26.056 15.4136L26.0538 15.4158Z" fill="#8FAED6"/>
<path d="M26.248 15.9321C26.8823 16.2924 27.6222 16.4486 28.3363 16.5701C29.0611 16.6699 29.801 16.7502 30.528 16.6287C31.6239 16.4638 32.6335 15.9734 33.6604 15.5784C34.0034 15.4569 34.3852 15.3744 34.7433 15.4764C34.3831 15.3766 34.0056 15.4634 33.6626 15.5871C32.6379 15.9929 31.6347 16.492 30.5345 16.6678C29.8032 16.798 29.0568 16.7242 28.3276 16.6309C27.5985 16.5137 26.8607 16.3661 26.207 16.0016L26.248 15.9321Z" fill="#8FAED6"/>
<path d="M26.1575 16.0949C27.2491 17.2016 28.9814 17.6703 30.485 17.2971C31.2379 17.0758 31.9109 16.6353 32.5948 16.2577C33.27 15.8649 33.997 15.4917 34.7909 15.4504C33.997 15.4982 33.2765 15.8758 32.6056 16.275C31.1084 17.1908 29.95 17.8049 28.153 17.3036C27.3936 17.0953 26.658 16.7286 26.1014 16.1513L26.1597 16.0949H26.1575Z" fill="#8FAED6"/>
<path d="M26.6471 16.7719C27.6632 17.7332 29.5681 18.0001 30.884 17.6269C31.6088 17.4099 32.2086 16.9195 32.8061 16.4638C33.4015 16.0102 34.053 15.5632 34.8124 15.4656C34.0552 15.5697 33.4102 16.0233 32.8191 16.4811C31.5161 17.5943 30.3749 18.0804 28.6447 17.7506C27.9048 17.6117 27.139 17.3752 26.5889 16.8305L26.6471 16.7741V16.7719Z" fill="#8FAED6"/>
</g>
<path opacity="0.1" d="M20.4363 17.6529C22.0499 17.7202 23.6808 17.2124 24.973 16.2424C23.1372 16.3206 21.351 16.3509 19.6187 15.7281C19.6769 16.4529 19.9725 17.0952 20.4341 17.6529H20.4363Z" fill="white"/>
<path opacity="0.62" d="M18.113 16.5049C19.0147 16.6525 19.8905 16.9672 20.6844 17.4228C20.4385 17.5747 20.1473 17.6507 19.8582 17.6377C19.595 17.6247 19.3383 17.5422 19.0945 17.4424C18.7299 17.2948 18.3805 17.1104 18.0525 16.8934C17.9619 16.8348 17.6362 16.672 17.634 16.5549C17.6297 16.3856 18.0202 16.4898 18.1151 16.5049H18.113Z" fill="white"/>
<g opacity="0.38">
<path opacity="0.38" d="M23.4457 14.0876C23.532 14.1006 23.6075 14.1679 23.6312 14.2503C23.5751 14.3241 23.4651 14.3241 23.3745 14.3067C23.2472 14.2807 23.1243 14.233 23.0142 14.1657C22.9732 14.1418 22.9301 14.0941 22.956 14.0528C22.9668 14.0333 22.9905 14.0246 23.0121 14.0203C23.1825 13.9769 23.3745 14.0181 23.5126 14.1266" fill="white"/>
<path opacity="0.38" d="M19.8456 12.9159C19.8456 12.968 19.8046 13.0136 19.755 13.0288C19.7053 13.0462 19.6513 13.0397 19.6017 13.0288C19.552 13.018 19.5023 13.0028 19.4527 12.9854C19.4225 12.9745 19.3922 12.9593 19.3685 12.9376C19.3447 12.9159 19.3296 12.8812 19.3361 12.8486C19.3685 12.6727 19.8435 12.7118 19.8456 12.9159Z" fill="white"/>
<path opacity="0.38" d="M22.764 13.5038C22.764 13.5255 22.7467 13.545 22.7251 13.5516C22.7035 13.5581 22.682 13.5559 22.6604 13.5516C22.6388 13.5472 22.6173 13.5407 22.5978 13.532C22.5849 13.5277 22.572 13.5212 22.5612 13.5125C22.5504 13.5038 22.5439 13.4886 22.5461 13.4756C22.559 13.3997 22.764 13.417 22.764 13.5038Z" fill="white"/>
<path opacity="0.38" d="M21.6293 13.7555C21.6293 13.7772 21.612 13.7968 21.5904 13.8033C21.5689 13.8098 21.5473 13.8076 21.5257 13.8033C21.5042 13.7989 21.4826 13.7924 21.4632 13.7837C21.4502 13.7794 21.4373 13.7729 21.4265 13.7642C21.4157 13.7555 21.4092 13.7403 21.4114 13.7273C21.4243 13.6514 21.6293 13.6687 21.6293 13.7555Z" fill="white"/>
<path opacity="0.38" d="M21.9464 13.4844C21.9464 13.5061 21.9291 13.5256 21.9075 13.5321C21.886 13.5387 21.8644 13.5365 21.8428 13.5321C21.8212 13.5278 21.7997 13.5213 21.7802 13.5126C21.7673 13.5083 21.7544 13.5018 21.7436 13.4931C21.7328 13.4844 21.7263 13.4692 21.7285 13.4562C21.7414 13.3802 21.9464 13.3976 21.9464 13.4844Z" fill="white"/>
<path opacity="0.38" d="M20.5226 12.8767C20.5226 12.8984 20.5053 12.918 20.4837 12.9245C20.4622 12.931 20.4406 12.9288 20.419 12.9245C20.3974 12.9201 20.3759 12.9136 20.3564 12.9049C20.3435 12.9006 20.3306 12.8941 20.3198 12.8854C20.309 12.8767 20.3025 12.8615 20.3047 12.8485C20.3176 12.7726 20.5226 12.7899 20.5226 12.8767Z" fill="white"/>
<path opacity="0.38" d="M18.6479 13.0873C18.6479 13.109 18.6306 13.1285 18.6091 13.1351C18.5875 13.1416 18.5659 13.1394 18.5443 13.1351C18.5228 13.1307 18.5012 13.1242 18.4818 13.1155C18.4688 13.1112 18.4559 13.1047 18.4451 13.096C18.4343 13.0873 18.4279 13.0721 18.43 13.0591C18.443 12.9832 18.6479 13.0005 18.6479 13.0873Z" fill="white"/>
<path opacity="0.38" d="M22.2745 13.6319C22.2745 13.6319 22.2745 13.6515 22.2702 13.6581C22.2637 13.6646 22.2551 13.6689 22.2464 13.6711C22.2378 13.6733 22.2291 13.6755 22.2183 13.6755C22.2118 13.6755 22.2075 13.6755 22.201 13.6755C22.1945 13.6755 22.1901 13.6689 22.188 13.6646C22.1793 13.6341 22.2572 13.6015 22.2745 13.6319Z" fill="white"/>
<path opacity="0.38" d="M22.5981 14.0964C22.5981 14.0964 22.5981 14.116 22.5938 14.1225C22.5873 14.1291 22.5786 14.1334 22.57 14.1356C22.5613 14.1378 22.5527 14.1399 22.5419 14.1399C22.5354 14.1399 22.531 14.1399 22.5245 14.1399C22.5181 14.1399 22.5137 14.1334 22.5116 14.1291C22.5029 14.0986 22.5808 14.0659 22.5981 14.0964Z" fill="white"/>
<path opacity="0.38" d="M21.5325 13.0309C21.5325 13.0309 21.5325 13.0504 21.5281 13.057C21.5216 13.0635 21.513 13.0679 21.5043 13.07C21.4957 13.0722 21.487 13.0744 21.4762 13.0744C21.4697 13.0744 21.4654 13.0744 21.4589 13.0744C21.4524 13.0744 21.4481 13.0679 21.4459 13.0635C21.4373 13.033 21.5152 13.0004 21.5325 13.0309Z" fill="white"/>
<path opacity="0.38" d="M20.0245 12.6034C20.0245 12.6034 20.0245 12.623 20.0202 12.6295C20.0137 12.636 20.005 12.6404 19.9964 12.6425C19.9877 12.6447 19.9791 12.6469 19.9682 12.6469C19.9618 12.6469 19.9574 12.6469 19.9509 12.6469C19.9444 12.6469 19.9401 12.6404 19.938 12.636C19.9293 12.6055 20.0072 12.5729 20.0245 12.6034Z" fill="white"/>
<path opacity="0.38" d="M20.4214 13.3042C20.4214 13.3042 20.4214 13.3238 20.4171 13.3303C20.4106 13.3368 20.402 13.3412 20.3933 13.3434C20.3847 13.3455 20.376 13.3477 20.3652 13.3477C20.3587 13.3477 20.3544 13.3477 20.3479 13.3477C20.3414 13.3477 20.3371 13.3412 20.3349 13.3368C20.3262 13.3064 20.4041 13.2737 20.4214 13.3042Z" fill="white"/>
<path opacity="0.38" d="M21.0878 12.8246C21.0878 12.8463 21.0705 12.8658 21.0489 12.8724C21.0274 12.8789 21.0058 12.8767 20.9842 12.8724C20.9627 12.868 20.9411 12.8615 20.9217 12.8528C20.9087 12.8485 20.8958 12.842 20.885 12.8333C20.8742 12.8246 20.8677 12.8094 20.8699 12.7964C20.8828 12.7205 21.0878 12.7378 21.0878 12.8246Z" fill="white"/>
<path opacity="0.38" d="M19.1657 12.7162C19.1657 12.7379 19.1484 12.7574 19.1269 12.764C19.1053 12.7705 19.0837 12.7683 19.0621 12.764C19.0406 12.7596 19.019 12.7531 18.9996 12.7444C18.9866 12.7401 18.9737 12.7336 18.9629 12.7249C18.9521 12.7162 18.9456 12.701 18.9478 12.688C18.9607 12.6121 19.1657 12.6294 19.1657 12.7162Z" fill="white"/>
<path opacity="0.38" d="M19.2415 13.2045C19.2415 13.2175 19.2307 13.2284 19.2199 13.2328C19.2091 13.2371 19.1939 13.235 19.1809 13.2328C19.168 13.2306 19.155 13.2262 19.1442 13.2219C19.1377 13.2197 19.129 13.2154 19.1225 13.211C19.116 13.2067 19.1117 13.198 19.1139 13.1892C19.1225 13.1457 19.2394 13.1544 19.2415 13.2067V13.2045Z" fill="white"/>
<path opacity="0.38" d="M21.1072 13.326C21.1072 13.3477 21.09 13.3672 21.0684 13.3737C21.0468 13.3802 21.0252 13.378 21.0037 13.3737C20.9821 13.3694 20.9605 13.3628 20.9411 13.3542C20.9282 13.3498 20.9152 13.3433 20.9044 13.3346C20.8936 13.326 20.8872 13.3108 20.8893 13.2977C20.9023 13.2218 21.1072 13.2392 21.1072 13.326Z" fill="white"/>
<path opacity="0.38" d="M22.171 13.1286C22.171 13.1633 22.143 13.1915 22.1106 13.2024C22.0782 13.2133 22.0436 13.2089 22.0091 13.2024C21.9767 13.1959 21.9443 13.185 21.9119 13.1742C21.8925 13.1655 21.8709 13.1568 21.8558 13.1416C21.8407 13.1264 21.8299 13.1047 21.8342 13.083C21.8558 12.9678 22.1667 12.9939 22.1689 13.1264L22.171 13.1286Z" fill="white"/>
</g>
<g style="mix-blend-mode:multiply" opacity="0.42">
<path d="M15.9859 13.5169C16.7841 13.773 17.3385 14.4978 17.2845 15.2182C17.2328 15.9408 16.9243 16.7133 16.0959 16.8826C15.7141 16.9607 14.9784 16.5636 14.6505 16.3792C14.1543 16.1036 13.6797 15.7585 13.4317 15.3028C13.3734 15.1987 13.3303 15.0815 13.3497 14.9687C13.3777 14.8016 13.5309 14.6714 13.6797 14.5585C14.0594 14.2743 14.4693 14.0182 14.9029 13.7947C15.0863 13.7014 15.2761 13.6124 15.4832 13.5647C15.6903 13.5169 15.7874 13.4518 15.9859 13.5148V13.5169Z" fill="#B2D2FF"/>
</g>
<path d="M14.5254 14.7885C14.5254 15.1075 14.7821 15.3657 15.0992 15.3657C15.4163 15.3657 15.673 15.1075 15.673 14.7885C15.673 14.4695 15.4163 14.2113 15.0992 14.2113C14.7821 14.2113 14.5254 14.4695 14.5254 14.7885Z" fill="#ECDAB4"/>
<path d="M14.5319 14.7864C14.5319 15.1011 14.7864 15.3571 15.0993 15.3571C15.4121 15.3571 15.6666 15.1011 15.6666 14.7864C15.6666 14.4718 15.4121 14.2157 15.0993 14.2157C14.7864 14.2157 14.5319 14.4718 14.5319 14.7864Z" fill="#ECDBB6"/>
<path d="M14.5362 14.7843C14.5362 15.0967 14.7886 15.3506 15.0992 15.3506C15.4099 15.3506 15.6623 15.0967 15.6623 14.7843C15.6623 14.4718 15.4099 14.2179 15.0992 14.2179C14.7886 14.2179 14.5362 14.4718 14.5362 14.7843Z" fill="#EDDCB7"/>
<path d="M14.5405 14.7842C14.5405 15.0945 14.7907 15.3462 15.0992 15.3462C15.4077 15.3462 15.6579 15.0945 15.6579 14.7842C15.6579 14.4739 15.4077 14.2222 15.0992 14.2222C14.7907 14.2222 14.5405 14.4739 14.5405 14.7842Z" fill="#EDDDB9"/>
<path d="M14.5449 14.7821C14.5449 15.0902 14.7929 15.3376 15.0971 15.3376C15.4013 15.3376 15.6494 15.0881 15.6494 14.7821C15.6494 14.4761 15.4013 14.2266 15.0971 14.2266C14.7929 14.2266 14.5449 14.4761 14.5449 14.7821Z" fill="#EEDDBB"/>
<path d="M14.5513 14.7799C14.5513 15.0837 14.7973 15.3311 15.0993 15.3311C15.4013 15.3311 15.6472 15.0837 15.6472 14.7799C15.6472 14.4761 15.4013 14.2288 15.0993 14.2288C14.7973 14.2288 14.5513 14.4761 14.5513 14.7799Z" fill="#EEDEBD"/>
<path d="M14.5557 14.7777C14.5557 15.0793 14.7994 15.3245 15.0993 15.3245C15.3992 15.3245 15.6429 15.0793 15.6429 14.7777C15.6429 14.476 15.3992 14.2308 15.0993 14.2308C14.7994 14.2308 14.5557 14.476 14.5557 14.7777Z" fill="#EFDFBE"/>
<path d="M14.56 14.7756C14.56 15.075 14.8016 15.3159 15.0971 15.3159C15.3927 15.3159 15.6343 15.0728 15.6343 14.7756C15.6343 14.4783 15.3927 14.2352 15.0971 14.2352C14.8016 14.2352 14.56 14.4783 14.56 14.7756Z" fill="#EFE0C0"/>
<path d="M14.5642 14.7733C14.5642 15.0684 14.8036 15.3093 15.097 15.3093C15.3904 15.3093 15.6299 15.0684 15.6299 14.7733C15.6299 14.4782 15.3904 14.2373 15.097 14.2373C14.8036 14.2373 14.5642 14.4782 14.5642 14.7733Z" fill="#F0E1C2"/>
<path d="M14.5685 14.7733C14.5685 15.0663 14.8058 15.305 15.097 15.305C15.3882 15.305 15.6255 15.0663 15.6255 14.7733C15.6255 14.4804 15.3882 14.2417 15.097 14.2417C14.8058 14.2417 14.5685 14.4804 14.5685 14.7733Z" fill="#F0E2C4"/>
<path d="M14.575 14.7711C14.575 15.0619 14.8079 15.2962 15.097 15.2962C15.3861 15.2962 15.6191 15.0619 15.6191 14.7711C15.6191 14.4803 15.3861 14.246 15.097 14.246C14.8079 14.246 14.575 14.4803 14.575 14.7711Z" fill="#F0E3C5"/>
<path d="M14.5793 14.769C14.5793 15.0576 14.8101 15.2898 15.0971 15.2898C15.384 15.2898 15.6148 15.0576 15.6148 14.769C15.6148 14.4804 15.384 14.2482 15.0971 14.2482C14.8101 14.2482 14.5793 14.4804 14.5793 14.769Z" fill="#F1E3C7"/>
<path d="M14.5836 14.7669C14.5836 15.0512 14.8123 15.2834 15.0971 15.2834C15.3818 15.2834 15.6105 15.0534 15.6105 14.7669C15.6105 14.4805 15.3818 14.2505 15.0971 14.2505C14.8123 14.2505 14.5836 14.4805 14.5836 14.7669Z" fill="#F1E4C9"/>
<path d="M14.588 14.7647C14.588 15.0468 14.8145 15.2747 15.0949 15.2747C15.3754 15.2747 15.6019 15.0468 15.6019 14.7647C15.6019 14.4826 15.3754 14.2548 15.0949 14.2548C14.8145 14.2548 14.588 14.4826 14.588 14.7647Z" fill="#F2E5CB"/>
<path d="M14.5945 14.7626C14.5945 15.0425 14.8188 15.2682 15.0971 15.2682C15.3754 15.2682 15.5997 15.0425 15.5997 14.7626C15.5997 14.4826 15.3754 14.257 15.0971 14.257C14.8188 14.257 14.5945 14.4826 14.5945 14.7626Z" fill="#F2E6CC"/>
<path d="M14.5988 14.7604C14.5988 15.036 14.821 15.2617 15.0971 15.2617C15.3732 15.2617 15.5954 15.0382 15.5954 14.7604C15.5954 14.4827 15.3732 14.2592 15.0971 14.2592C14.821 14.2592 14.5988 14.4827 14.5988 14.7604Z" fill="#F3E7CE"/>
<path d="M14.6031 14.7604C14.6031 15.0338 14.8231 15.2551 15.0949 15.2551C15.3668 15.2551 15.5868 15.0338 15.5868 14.7604C15.5868 14.487 15.3668 14.2656 15.0949 14.2656C14.8231 14.2656 14.6031 14.487 14.6031 14.7604Z" fill="#F3E8D0"/>
<path d="M14.6074 14.7582C14.6074 15.0295 14.8253 15.2487 15.0949 15.2487C15.3646 15.2487 15.5825 15.0295 15.5825 14.7582C15.5825 14.487 15.3646 14.2678 15.0949 14.2678C14.8253 14.2678 14.6074 14.487 14.6074 14.7582Z" fill="#F4E9D2"/>
<path d="M14.6139 14.7561C14.6139 15.0252 14.8296 15.2422 15.0972 15.2422C15.3647 15.2422 15.5804 15.0252 15.5804 14.7561C15.5804 14.487 15.3647 14.27 15.0972 14.27C14.8296 14.27 14.6139 14.487 14.6139 14.7561Z" fill="#F4E9D3"/>
<path d="M14.6182 14.754C14.6182 15.0187 14.8317 15.2336 15.0949 15.2336C15.3581 15.2336 15.5717 15.0187 15.5717 14.754C15.5717 14.4892 15.3581 14.2744 15.0949 14.2744C14.8317 14.2744 14.6182 14.4892 14.6182 14.754Z" fill="#F4EAD5"/>
<path d="M14.6225 14.7517C14.6225 15.0143 14.8339 15.2269 15.095 15.2269C15.356 15.2269 15.5674 15.0143 15.5674 14.7517C15.5674 14.4891 15.356 14.2765 15.095 14.2765C14.8339 14.2765 14.6225 14.4891 14.6225 14.7517Z" fill="#F5EBD7"/>
<path d="M14.6269 14.7495C14.6269 15.0099 14.8361 15.2203 15.095 15.2203C15.3539 15.2203 15.5631 15.0099 15.5631 14.7495C15.5631 14.4891 15.3539 14.2786 15.095 14.2786C14.8361 14.2786 14.6269 14.4891 14.6269 14.7495Z" fill="#F5ECD9"/>
<path d="M14.6333 14.7497C14.6333 15.0057 14.8404 15.214 15.095 15.214C15.3495 15.214 15.5566 15.0057 15.5566 14.7497C15.5566 14.4936 15.3495 14.2853 15.095 14.2853C14.8404 14.2853 14.6333 14.4936 14.6333 14.7497Z" fill="#F6EDDA"/>
<path d="M14.6376 14.7474C14.6376 15.0013 14.8426 15.2074 15.095 15.2074C15.3474 15.2074 15.5523 15.0013 15.5523 14.7474C15.5523 14.4935 15.3474 14.2874 15.095 14.2874C14.8426 14.2874 14.6376 14.4935 14.6376 14.7474Z" fill="#F6EEDC"/>
<path d="M14.6419 14.7452C14.6419 14.997 14.8447 15.201 15.0949 15.201C15.3452 15.201 15.548 14.997 15.548 14.7452C15.548 14.4935 15.3452 14.2896 15.0949 14.2896C14.8447 14.2896 14.6419 14.4935 14.6419 14.7452Z" fill="#F7EFDE"/>
<path d="M14.6463 14.743C14.6463 14.9926 14.8469 15.1922 15.0928 15.1922C15.3388 15.1922 15.5394 14.9904 15.5394 14.743C15.5394 14.4956 15.3388 14.2938 15.0928 14.2938C14.8469 14.2938 14.6463 14.4956 14.6463 14.743Z" fill="#F7F0E0"/>
<path d="M14.6506 14.7407C14.6506 14.986 14.849 15.1856 15.0928 15.1856C15.3366 15.1856 15.5351 14.986 15.5351 14.7407C15.5351 14.4955 15.3366 14.2959 15.0928 14.2959C14.849 14.2959 14.6506 14.4955 14.6506 14.7407Z" fill="#F7F0E1"/>
<path d="M14.6571 14.7386C14.6571 14.9816 14.8534 15.1791 15.095 15.1791C15.3366 15.1791 15.5329 14.9816 15.5329 14.7386C15.5329 14.4956 15.3366 14.2981 15.095 14.2981C14.8534 14.2981 14.6571 14.4956 14.6571 14.7386Z" fill="#F8F1E3"/>
<path d="M14.6613 14.7386C14.6613 14.9794 14.8554 15.1726 15.0927 15.1726C15.33 15.1726 15.5242 14.9773 15.5242 14.7386C15.5242 14.4999 15.33 14.3046 15.0927 14.3046C14.8554 14.3046 14.6613 14.4999 14.6613 14.7386Z" fill="#F8F2E5"/>
<path d="M14.6656 14.7365C14.6656 14.9731 14.8576 15.1662 15.0927 15.1662C15.3278 15.1662 15.5198 14.9731 15.5198 14.7365C15.5198 14.5 15.3278 14.3069 15.0927 14.3069C14.8576 14.3069 14.6656 14.5 14.6656 14.7365Z" fill="#F9F3E7"/>
<path d="M14.6699 14.7342C14.6699 14.9685 14.8597 15.1595 15.0927 15.1595C15.3257 15.1595 15.5155 14.9685 15.5155 14.7342C15.5155 14.4998 15.3257 14.3088 15.0927 14.3088C14.8597 14.3088 14.6699 14.4998 14.6699 14.7342Z" fill="#F9F4E8"/>
<path d="M14.6764 14.7322C14.6764 14.9644 14.8641 15.151 15.0927 15.151C15.3214 15.151 15.5091 14.9622 15.5091 14.7322C15.5091 14.5021 15.3214 14.3134 15.0927 14.3134C14.8641 14.3134 14.6764 14.5021 14.6764 14.7322Z" fill="#FAF5EA"/>
<path d="M15.151 15.1418C15.3762 15.109 15.5324 14.8988 15.4998 14.6723C15.4672 14.4457 15.2583 14.2886 15.033 14.3214C14.8078 14.3542 14.6517 14.5644 14.6842 14.7909C14.7168 15.0175 14.9258 15.1746 15.151 15.1418Z" fill="#FAF6EC"/>
<path d="M15.1522 15.1323C15.375 15.0998 15.5295 14.8918 15.4973 14.6676C15.465 14.4434 15.2582 14.288 15.0353 14.3205C14.8125 14.353 14.658 14.561 14.6902 14.7852C14.7225 15.0093 14.9293 15.1647 15.1522 15.1323Z" fill="#FBF6EE"/>
<path d="M15.1516 15.128C15.3721 15.0959 15.525 14.89 15.4931 14.6682C15.4611 14.4464 15.2565 14.2927 15.036 14.3248C14.8155 14.3569 14.6626 14.5627 14.6946 14.7845C14.7265 15.0063 14.9311 15.1601 15.1516 15.128Z" fill="#FBF7EF"/>
<path d="M15.1504 15.1216C15.3673 15.09 15.5178 14.8875 15.4863 14.6693C15.4549 14.451 15.2536 14.2997 15.0366 14.3313C14.8196 14.3629 14.6692 14.5655 14.7007 14.7837C14.7321 15.0019 14.9334 15.1532 15.1504 15.1216Z" fill="#FBF8F1"/>
<path d="M15.1494 15.1153C15.364 15.084 15.5128 14.8837 15.4817 14.6678C15.4506 14.4519 15.2515 14.3023 15.0369 14.3335C14.8223 14.3648 14.6735 14.5651 14.7046 14.781C14.7357 14.9969 14.9348 15.1465 15.1494 15.1153Z" fill="#FCF9F3"/>
<path d="M15.1486 15.1057C15.3608 15.0748 15.5079 14.8766 15.4772 14.6631C15.4464 14.4496 15.2494 14.3017 15.0372 14.3326C14.8249 14.3636 14.6778 14.5617 14.7086 14.7752C14.7394 14.9887 14.9364 15.1367 15.1486 15.1057Z" fill="#FCFAF5"/>
<path d="M15.1474 15.0993C15.3561 15.0688 15.5007 14.874 15.4705 14.6641C15.4402 14.4541 15.2465 14.3086 15.0378 14.3391C14.8291 14.3695 14.6844 14.5643 14.7147 14.7743C14.745 14.9842 14.9387 15.1297 15.1474 15.0993Z" fill="#FDFBF6"/>
<path d="M15.1443 15.0924C15.3507 15.0623 15.4937 14.8696 15.4637 14.6621C15.4338 14.4545 15.2422 14.3107 15.0359 14.3408C14.8295 14.371 14.6865 14.5636 14.7165 14.7712C14.7465 14.9788 14.938 15.1226 15.1443 15.0924Z" fill="#FDFCF8"/>
<path d="M15.0906 15.0902C15.2967 15.0902 15.4638 14.9221 15.4638 14.7148C15.4638 14.5074 15.2967 14.3394 15.0906 14.3394C14.8845 14.3394 14.7174 14.5074 14.7174 14.7148C14.7174 14.9221 14.8845 15.0902 15.0906 15.0902Z" fill="#FEFCFA"/>
<path d="M15.0906 15.0836C15.2932 15.0836 15.4573 14.9185 15.4573 14.7147C15.4573 14.511 15.2932 14.3458 15.0906 14.3458C14.8881 14.3458 14.7239 14.511 14.7239 14.7147C14.7239 14.9185 14.8881 15.0836 15.0906 15.0836Z" fill="#FEFDFC"/>
<path d="M15.0906 15.0771C15.2908 15.0771 15.453 14.9139 15.453 14.7126C15.453 14.5112 15.2908 14.348 15.0906 14.348C14.8904 14.348 14.7282 14.5112 14.7282 14.7126C14.7282 14.9139 14.8904 15.0771 15.0906 15.0771Z" fill="#FFFEFD"/>
<path d="M15.0906 15.0707C15.2883 15.0707 15.4487 14.9094 15.4487 14.7104C15.4487 14.5115 15.2883 14.3502 15.0906 14.3502C14.8928 14.3502 14.7325 14.5115 14.7325 14.7104C14.7325 14.9094 14.8928 15.0707 15.0906 15.0707Z" fill="white"/>
<path d="M14.713 14.68C14.6958 14.8449 14.823 14.9925 14.9999 15.0099C15.1747 15.0272 15.33 14.91 15.3473 14.7451C15.3645 14.5802 15.2372 14.4326 15.0603 14.4153C14.8856 14.3979 14.7303 14.5151 14.713 14.68Z" fill="#130F0E"/>
<path d="M14.8188 14.6084C14.8188 14.6583 14.8597 14.6995 14.9094 14.6995C14.959 14.6995 15 14.6583 15 14.6084C15 14.5584 14.959 14.5172 14.9094 14.5172C14.8597 14.5172 14.8188 14.5584 14.8188 14.6084Z" fill="white"/>
<path opacity="0.1" d="M15.5242 15.9081C15.5781 15.9038 15.6364 15.8995 15.6817 15.9299C15.7334 15.9624 15.755 16.0318 15.7485 16.0926C15.7378 16.2076 15.645 16.3053 15.5371 16.3465C15.4293 16.3899 15.3085 16.3855 15.1941 16.3638C15.0302 16.3335 13.9149 15.7085 14.2083 15.5045C14.2643 15.4655 14.6807 15.7845 14.7799 15.8192C15.0151 15.9038 15.2739 15.9255 15.522 15.9081H15.5242Z" fill="white"/>
<g style="mix-blend-mode:multiply" opacity="0.42">
<path d="M16.7884 14.5911C16.9178 14.8276 16.9696 15.1032 16.9545 15.3723C16.948 15.4808 16.9307 15.5936 16.8725 15.6848C16.8142 15.7759 16.7064 15.8432 16.6007 15.8237C16.4907 15.8041 16.4108 15.7021 16.3785 15.5958C16.3461 15.4895 16.3504 15.3745 16.3461 15.2616C16.3353 14.9947 16.2641 14.73 16.1433 14.4934C16.0894 14.3849 15.6925 13.9575 15.727 13.875C15.8629 13.5517 16.715 14.4631 16.7862 14.5911H16.7884Z" fill="#8FAED6"/>
</g>
<g style="mix-blend-mode:multiply" opacity="0.42">
<path d="M23.3313 13.6926C22.7726 13.2478 22.024 12.8746 21.3488 12.6467C20.5463 12.3776 19.3576 12.3863 18.5271 12.5491C17.2111 12.8051 16.2339 13.3368 14.959 13.7534C17.3816 12.9939 20.1946 13.6536 20.8246 13.8554C21.7242 14.144 22.5418 14.6388 23.4133 15.0033C23.8857 15.2008 24.3819 15.357 24.8932 15.42C25.2772 15.4655 25.8726 15.5133 26.2156 15.3006C26.0862 15.2225 25.8726 15.2377 25.7216 15.2138C25.4282 15.1639 25.042 14.9035 24.7724 14.7798C24.1446 14.4912 23.875 14.1266 23.3378 13.697L23.3313 13.6926Z" fill="#B2D2FF"/>
</g>
<path d="M9.26595 15.9972L9.45579 15.65L9.64563 15.9972C9.82469 16.3271 10.0943 16.5961 10.4201 16.7763L10.7653 16.9672L10.4201 17.1582C10.0922 17.3383 9.82469 17.6095 9.64563 17.9372L9.45579 18.2844L9.26595 17.9372C9.0869 17.6074 8.81724 17.3383 8.49149 17.1582L8.14633 16.9672L8.49149 16.7763C8.8194 16.5961 9.0869 16.3249 9.26595 15.9972Z" fill="white"/>
<path d="M14.9611 20.2744L15.0646 20.0856L15.1682 20.2744C15.2653 20.4545 15.412 20.5999 15.591 20.6997L15.7787 20.8038L15.591 20.908C15.412 21.0057 15.2674 21.1532 15.1682 21.3333L15.0646 21.5221L14.9611 21.3333C14.864 21.1532 14.7173 21.0078 14.5383 20.908L14.3506 20.8038L14.5383 20.6997C14.7173 20.602 14.8619 20.4545 14.9611 20.2744Z" fill="white"/>
<defs>
<linearGradient id="paint0_linear_54_2015" x1="17.4808" y1="8.13095" x2="15.8643" y2="15.3856" gradientUnits="userSpaceOnUse">
<stop offset="0.27" stop-color="#EAA628"/>
<stop offset="0.6" stop-color="#FFD78C"/>
<stop offset="1" stop-color="#FFF5E3"/>
</linearGradient>
<linearGradient id="paint1_linear_54_2015" x1="11.6325" y1="6.82039" x2="10.0137" y2="14.075" gradientUnits="userSpaceOnUse">
<stop offset="0.27" stop-color="#EAA628"/>
<stop offset="0.6" stop-color="#FFD78C"/>
<stop offset="1" stop-color="#FFF5E3"/>
</linearGradient>
<linearGradient id="paint2_linear_54_2015" x1="14.4585" y1="7.45826" x2="12.8398" y2="14.7107" gradientUnits="userSpaceOnUse">
<stop offset="0.27" stop-color="#EAA628"/>
<stop offset="0.6" stop-color="#FFD78C"/>
<stop offset="1" stop-color="#FFF5E3"/>
</linearGradient>
<linearGradient id="paint3_linear_54_2015" x1="11.9625" y1="4.94976" x2="9.13412" y2="1.54619" gradientUnits="userSpaceOnUse">
<stop offset="0.27" stop-color="#EAA628"/>
<stop offset="0.6" stop-color="#FFD78C"/>
<stop offset="1" stop-color="#FFF5E3"/>
</linearGradient>
<linearGradient id="paint4_linear_54_2015" x1="9.58305" y1="9.43732" x2="0.391001" y2="11.2868" gradientUnits="userSpaceOnUse">
<stop offset="0.27" stop-color="#EAA628"/>
<stop offset="0.6" stop-color="#FFD78C"/>
<stop offset="1" stop-color="#FFF5E3"/>
</linearGradient>
<radialGradient id="paint5_radial_54_2015" cx="0" cy="0" r="1" gradientUnits="userSpaceOnUse" gradientTransform="translate(11.9992 4.35517) scale(11.3904 11.4576)">
<stop stop-color="#E17921"/>
<stop offset="0.47" stop-color="#EAA628"/>
<stop offset="0.93" stop-color="#EAA628"/>
</radialGradient>
<linearGradient id="paint6_linear_54_2015" x1="17.6534" y1="6.71401" x2="22.5333" y2="6.99925" gradientUnits="userSpaceOnUse">
<stop offset="0.34" stop-color="#EAA628"/>
<stop offset="1" stop-color="white" stop-opacity="0"/>
</linearGradient>
<linearGradient id="paint7_linear_54_2015" x1="17.8734" y1="6.41456" x2="19.1031" y2="6.41456" gradientUnits="userSpaceOnUse">
<stop stop-color="#E17521"/>
<stop offset="1" stop-color="#EAA628"/>
</linearGradient>
<linearGradient id="paint8_linear_54_2015" x1="8.64465" y1="5.50092" x2="20.6456" y2="5.50092" gradientUnits="userSpaceOnUse">
<stop offset="0.34" stop-color="#EAA628"/>
<stop offset="1" stop-color="white" stop-opacity="0"/>
</linearGradient>
<linearGradient id="paint9_linear_54_2015" x1="17.3492" y1="16.5353" x2="18.9658" y2="23.7878" gradientUnits="userSpaceOnUse">
<stop offset="0.17" stop-color="#8FAED6"/>
<stop offset="0.45" stop-color="#B2D2FF"/>
<stop offset="1" stop-color="white"/>
</linearGradient>
<linearGradient id="paint10_linear_54_2015" x1="23.1998" y1="15.2247" x2="24.8163" y2="22.4771" gradientUnits="userSpaceOnUse">
<stop offset="0.17" stop-color="#8FAED6"/>
<stop offset="0.45" stop-color="#B2D2FF"/>
<stop offset="1" stop-color="white"/>
</linearGradient>
<linearGradient id="paint11_linear_54_2015" x1="19.4635" y1="20.2179" x2="22.6886" y2="20.2179" gradientUnits="userSpaceOnUse">
<stop offset="0.17" stop-color="#8FAED6"/>
<stop offset="0.45" stop-color="#B2D2FF"/>
<stop offset="1" stop-color="white"/>
</linearGradient>
<linearGradient id="paint12_linear_54_2015" x1="22.8697" y1="13.3519" x2="25.6981" y2="9.95049" gradientUnits="userSpaceOnUse">
<stop offset="0.17" stop-color="#8FAED6"/>
<stop offset="0.45" stop-color="#B2D2FF"/>
<stop offset="1" stop-color="white"/>
</linearGradient>
<linearGradient id="paint13_linear_54_2015" x1="25.2492" y1="17.8417" x2="34.439" y2="19.6912" gradientUnits="userSpaceOnUse">
<stop offset="0.17" stop-color="#8FAED6"/>
<stop offset="0.45" stop-color="#B2D2FF"/>
<stop offset="1" stop-color="white"/>
</linearGradient>
<radialGradient id="paint14_radial_54_2015" cx="0" cy="0" r="1" gradientUnits="userSpaceOnUse" gradientTransform="translate(22.8308 12.7596) rotate(-180) scale(11.3904 11.4576)">
<stop offset="0.26" stop-color="#78A1D6"/>
<stop offset="0.53" stop-color="#8FAED6"/>
<stop offset="1" stop-color="#B2D2FF"/>
</radialGradient>
</defs>
</svg>
