<svg width="31" height="35" viewBox="0 0 31 35" fill="none" xmlns="http://www.w3.org/2000/svg">
<path d="M18.0966 10.2614C17.8126 11.5044 17.1926 12.7069 16.1843 13.4892C15.1759 14.2715 13.7475 14.5641 12.5827 14.0426C11.4179 13.5239 10.6646 12.11 11.0616 10.8988C10.2039 12.1013 9.71714 13.6283 10.004 15.077C10.2908 16.5257 11.4556 17.8354 12.9188 18.0382C13.4491 18.1135 13.988 18.0469 14.5095 17.931C15.1702 17.7832 15.8134 17.5572 16.3987 17.2211C18.3284 16.1201 19.47 13.9238 19.667 11.713C19.864 9.50227 19.2179 7.28572 18.2328 5.29517C18.7253 6.29189 18.3313 9.22991 18.0966 10.2614Z" fill="url(#paint0_radial_54_4837)"/>
<path d="M12.3136 6.94659C12.2788 7.65357 12.4845 8.34027 13.0148 8.81255C13.2176 8.9922 13.5914 9.25297 13.7797 9.45C13.9825 9.66441 14.1332 9.93677 14.1709 10.2294C14.2114 10.5221 14.1332 10.835 13.9362 11.0552C14.0781 11.2348 14.3099 11.3536 14.5359 11.3275C14.6634 11.4811 14.646 11.7448 14.5156 11.8954C14.5997 12.0606 14.8286 12.1272 14.9879 12.0374C14.9677 12.1214 14.9503 12.2026 14.93 12.2866C14.9242 12.3098 14.9213 12.3301 14.9242 12.3532C14.9358 12.417 15.014 12.446 15.0807 12.4373C15.1444 12.4286 15.2023 12.3909 15.269 12.3793C15.4515 12.3446 15.6138 12.5039 15.7036 12.6662C15.7934 12.8284 15.8485 13.0197 15.9905 13.1385C16.1991 13.3152 16.5323 13.2746 16.7554 13.1153C16.9785 12.9559 17.1205 12.7067 17.248 12.4633C17.3783 12.2171 17.5087 11.9476 17.4682 11.6694C18.8995 13.6542 17.1118 16.146 16.9901 16.3257L22.0577 15.0421C22.7097 12.3417 22.4779 9.42971 20.9944 6.42505C20.7365 5.90351 19.9426 4.70107 19.4993 4.32729C19.0241 3.92744 18.4591 3.64929 17.8651 3.46385C16.6308 3.07849 15.2226 3.12485 14.11 3.78547C12.9974 4.44609 12.3918 5.36169 12.3136 6.9437V6.94659Z" fill="#FFE99D"/>
<path d="M17.3374 9.93697C17.717 9.50235 17.9604 8.94894 18.0183 8.37524C18.0357 8.1956 18.0357 8.00726 17.9662 7.83921C17.8966 7.67116 17.7402 7.52918 17.5576 7.52049C17.3809 7.5118 17.2215 7.6248 17.0998 7.75518C16.8767 7.99567 16.7348 8.3086 16.7029 8.63311C16.9868 9.1054 17.1983 9.40094 17.3345 9.93697H17.3374Z" fill="white"/>
<path d="M15.7353 9.1776C15.6744 9.41229 15.5353 9.6354 15.318 9.7484C15.1036 9.8585 14.8081 9.82953 14.6574 9.64119C14.7356 9.84401 14.9124 10.0266 15.1268 10.0295C15.3441 10.0352 15.5556 9.91355 15.6744 9.73101C15.7932 9.54847 15.8222 9.31668 15.7671 9.10516C15.7758 9.16601 15.7787 9.13414 15.7353 9.1776Z" fill="#27292D"/>
<path d="M26.3195 26.3712C27.0844 26.7247 26.9164 28.0459 26.1341 28.3589C25.3488 28.6689 24.413 28.0836 24.1406 27.2868C23.8654 26.49 24.1203 25.5918 24.5752 24.879C25.0301 24.1663 25.6647 23.5955 26.2413 22.9783C27.3916 21.7498 28.368 20.1967 28.3014 18.5162C28.2695 17.6904 27.9855 16.8965 27.6494 16.1403C27.012 14.709 26.1688 13.3443 25.1431 12.1563C25.0881 12.0752 25.033 11.994 24.9809 11.9129C24.6477 11.4203 24.3145 10.9249 23.9812 10.4323C23.0859 8.07379 22.8512 5.06333 21.7937 3.82902C20.7274 2.58891 19.8611 1.74575 18.2327 1.61536C16.6014 1.48787 14.3356 1.6907 12.3914 4.09269C11.8873 4.71564 11.5135 5.50375 11.6642 6.29185C11.7946 6.98724 12.3219 7.56963 12.4088 8.27082C12.4581 8.68225 12.3683 8.79236 12.0148 9.00677C12.658 8.71123 13.3592 8.35484 13.6055 7.69133C13.9647 6.72358 13.1651 5.62544 13.4838 4.6461C13.5533 4.43748 13.6634 4.25494 13.7851 4.0811C14.043 6.52075 15.9901 8.69095 18.1168 10.0064C19.0643 10.5917 20.4464 11.1567 21.7415 11.5884C21.7473 11.6261 21.7589 11.6608 21.7647 11.6985C21.869 12.3765 21.7328 13.0748 21.4952 13.718C20.5391 16.2881 18.0849 17.9657 16.5609 20.2431C13.788 24.3894 13.9763 29.9409 16.4942 34.2465C15.4743 31.2331 16.0828 27.7185 18.0589 25.2209C19.6061 23.268 21.8429 21.9932 23.6365 20.2634C24.807 19.1334 25.8009 17.6325 26.108 16.0766C26.0906 16.7662 25.9689 17.4442 25.7168 18.0671C25.1605 19.4405 23.9146 20.3561 23.1323 21.5875C21.9675 23.4158 21.2866 26.0177 22.5064 27.9793C23.5785 29.7033 26.3456 30.4798 27.6639 28.5414C28.0058 28.0373 28.1507 27.3535 27.8696 26.8087C27.5915 26.2669 26.8063 25.9974 26.3282 26.3741L26.3195 26.3712Z" fill="url(#paint1_radial_54_4837)"/>
<path opacity="0.45" d="M23.8658 11.426C23.0719 10.832 22.5881 9.91351 22.2346 8.98633C21.8811 8.05914 21.6348 7.08849 21.1799 6.20477C20.1542 4.21132 18.0535 2.81185 15.8167 2.638C17.7059 3.64052 18.6649 5.58471 19.792 7.40142C20.9191 9.21812 21.7797 10.9508 23.8629 11.426H23.8658Z" fill="white"/>
<path opacity="0.45" d="M19.4987 9.56312C16.862 8.6765 14.8512 6.15861 14.5701 3.39154C15.2539 4.67801 15.9203 5.92681 16.8011 7.08869C17.682 8.25057 18.1803 8.94017 19.4958 9.56312H19.4987Z" fill="white"/>
<path opacity="0.45" d="M15.2886 28.5297C15.3176 26.5275 15.8392 24.4153 17.2879 23.0274C17.8442 22.4943 18.5106 22.0944 19.1452 21.6627C20.3679 20.8311 21.5008 19.8634 22.5149 18.7826C23.5232 17.7106 24.4678 16.2966 24.1143 14.8682C22.7988 17.0731 20.1766 18.2263 18.3223 20.0054C16.1695 22.0712 14.9207 25.5685 15.2886 28.5297Z" fill="white"/>
<path opacity="0.45" d="M23.2943 27.6808C22.6453 26.855 22.483 25.725 22.6481 24.6878C22.8133 23.6505 23.2711 22.6856 23.7666 21.7584C23.1204 23.1347 23.0538 24.8036 23.0248 26.3219C23.0132 26.9999 22.9002 27.1303 23.2943 27.6808Z" fill="white"/>
<path d="M9.87977 1.20386C5.84072 3.52472 3.23011 8.13457 3.31993 12.7908C3.40976 17.447 6.19421 21.9554 10.3144 24.1169" stroke="url(#paint2_radial_54_4837)" stroke-width="0.76" stroke-miterlimit="10"/>
<path d="M10.2764 0.583918C9.33766 0.465122 8.35252 0.995357 7.77014 1.74C7.62526 1.92544 7.34711 2.60055 7.90632 2.90188C8.86248 3.41473 10.3807 1.8588 10.2764 0.586816V0.583918Z" fill="url(#paint3_radial_54_4837)"/>
<path d="M5.25478 1.08203C4.69267 1.84116 4.67529 2.96248 5.04036 3.83461C5.13308 4.05192 5.58509 4.62272 6.12112 4.28082C7.03381 3.69843 6.41955 1.61227 5.25478 1.08203Z" fill="url(#paint4_radial_54_4837)"/>
<path d="M9.57505 5.4344C9.19549 4.56806 8.23063 3.99726 7.29476 3.88136C7.06006 3.85239 6.3386 3.96249 6.37047 4.59703C6.42262 5.68068 8.54066 6.18194 9.57505 5.4344Z" fill="url(#paint5_radial_54_4837)"/>
<path d="M3.27665 3.59424C2.82465 4.42581 2.96373 5.53553 3.4476 6.34972C3.56929 6.55254 4.09663 7.0538 4.58051 6.64236C5.40338 5.93828 4.50227 3.95642 3.27955 3.59424H3.27665Z" fill="url(#paint6_radial_54_4837)"/>
<path d="M8.03721 7.79573C7.65765 6.92939 6.69279 6.35859 5.75692 6.24269C5.52222 6.21372 4.80076 6.32382 4.83263 6.95836C4.88478 8.04201 7.00282 8.54327 8.03721 7.79573Z" fill="url(#paint7_radial_54_4837)"/>
<path d="M1.83119 6.71216C1.46901 7.58429 1.72109 8.67663 2.28609 9.43287C2.42807 9.6241 3.00466 10.0674 3.44218 9.60672C4.18682 8.82151 3.08869 6.94395 1.83119 6.71216Z" fill="url(#paint8_radial_54_4837)"/>
<path d="M6.99963 10.3977C6.53025 9.57775 5.51614 9.10836 4.56867 9.08808C4.33108 9.08229 3.627 9.26773 3.72261 9.89647C3.88777 10.9685 6.04347 11.2467 6.99674 10.3977H6.99963Z" fill="url(#paint9_radial_54_4837)"/>
<path d="M0.723598 10.7541C0.622187 11.6928 1.1727 12.6693 1.92894 13.2372C2.11727 13.3791 2.79818 13.6428 3.08792 13.0778C3.58049 12.113 1.99558 10.6237 0.723598 10.7541Z" fill="url(#paint10_radial_54_4837)"/>
<path d="M6.72506 12.8285C6.04416 12.1737 4.93733 12.0114 4.02463 12.2606C3.79573 12.3215 3.17278 12.6981 3.44224 13.2747C3.90294 14.257 6.04995 13.9151 6.72506 12.8314V12.8285Z" fill="url(#paint11_radial_54_4837)"/>
<path d="M0.740723 15.3871C0.998596 16.2969 1.87363 16.9952 2.78633 17.2415C3.01523 17.3023 3.74249 17.2936 3.80044 16.662C3.89895 15.5812 1.87073 14.7931 0.740723 15.39V15.3871Z" fill="url(#paint12_radial_54_4837)"/>
<path d="M7.0838 15.0741C6.20876 14.7206 5.11932 14.9842 4.36598 15.555C4.17765 15.697 3.74013 16.2794 4.20372 16.7111C4.99763 17.45 6.86359 16.3316 7.0838 15.0741Z" fill="url(#paint13_radial_54_4837)"/>
<path d="M2.02444 19.3189C2.48804 20.1418 3.50215 20.617 4.44672 20.6401C4.68431 20.6459 5.38839 20.4663 5.29567 19.8375C5.13921 18.7655 2.9835 18.4728 2.02444 19.316V19.3189Z" fill="url(#paint14_radial_54_4837)"/>
<path d="M8.11498 17.5281C7.1791 17.389 6.18527 17.899 5.5855 18.632C5.43483 18.8146 5.14508 19.4839 5.6985 19.7939C6.64307 20.327 8.19611 18.803 8.11498 17.5281Z" fill="url(#paint15_radial_54_4837)"/>
<path d="M11.9078 20.1535L12.1628 19.6899L12.4178 20.1535C12.6583 20.5939 13.0205 20.9532 13.458 21.1937L13.9216 21.4486L13.458 21.7036C13.0176 21.9441 12.6583 22.3063 12.4178 22.7438L12.1628 23.2074L11.9078 22.7438C11.6673 22.3034 11.3052 21.9441 10.8676 21.7036L10.4041 21.4486L10.8676 21.1937C11.3081 20.9532 11.6673 20.591 11.9078 20.1535Z" fill="#FFE99D"/>
<path d="M19.5572 25.8643L19.6963 25.6122L19.8353 25.8643C19.9657 26.1047 20.1628 26.2989 20.4032 26.4322L20.6553 26.5712L20.4032 26.7103C20.1628 26.8407 19.9686 27.0377 19.8353 27.2782L19.6963 27.5303L19.5572 27.2782C19.4268 27.0377 19.2298 26.8436 18.9893 26.7103L18.7372 26.5712L18.9893 26.4322C19.2298 26.3018 19.4239 26.1047 19.5572 25.8643Z" fill="#FFE99D"/>
<defs>
<radialGradient id="paint0_radial_54_4837" cx="0" cy="0" r="1" gradientUnits="userSpaceOnUse" gradientTransform="translate(14.8109 11.6841) scale(5.6877 5.68771)">
<stop offset="0.17" stop-color="#EA8928"/>
<stop offset="0.47" stop-color="#EAA628"/>
<stop offset="0.93" stop-color="#EAA628"/>
</radialGradient>
<radialGradient id="paint1_radial_54_4837" cx="0" cy="0" r="1" gradientUnits="userSpaceOnUse" gradientTransform="translate(14.863 -9.94838) scale(57.0335 57.0335)">
<stop offset="0.17" stop-color="#EA8928"/>
<stop offset="0.47" stop-color="#EAA628"/>
<stop offset="0.93" stop-color="#EAA628"/>
</radialGradient>
<radialGradient id="paint2_radial_54_4837" cx="0" cy="0" r="1" gradientUnits="userSpaceOnUse" gradientTransform="translate(6.78529 12.6633) scale(8.55329 8.55329)">
<stop offset="0.17" stop-color="#EA8928"/>
<stop offset="0.47" stop-color="#EAA628"/>
<stop offset="0.93" stop-color="#EAA628"/>
</radialGradient>
<radialGradient id="paint3_radial_54_4837" cx="0" cy="0" r="1" gradientUnits="userSpaceOnUse" gradientTransform="translate(11.4818 -1.74564) scale(14.2439 14.2439)">
<stop offset="0.17" stop-color="#EA8928"/>
<stop offset="0.47" stop-color="#EAA628"/>
<stop offset="0.93" stop-color="#EAA628"/>
</radialGradient>
<radialGradient id="paint4_radial_54_4837" cx="0" cy="0" r="1" gradientUnits="userSpaceOnUse" gradientTransform="translate(3.80809 -1.10313) rotate(-60.79) scale(14.2439 14.2439)">
<stop offset="0.17" stop-color="#EA8928"/>
<stop offset="0.47" stop-color="#EAA628"/>
<stop offset="0.93" stop-color="#EAA628"/>
</radialGradient>
<radialGradient id="paint5_radial_54_4837" cx="0" cy="0" r="1" gradientUnits="userSpaceOnUse" gradientTransform="translate(12.1876 5.26911) rotate(59.01) scale(14.2439 14.2439)">
<stop offset="0.17" stop-color="#EA8928"/>
<stop offset="0.47" stop-color="#EAA628"/>
<stop offset="0.93" stop-color="#EAA628"/>
</radialGradient>
<radialGradient id="paint6_radial_54_4837" cx="0" cy="0" r="1" gradientUnits="userSpaceOnUse" gradientTransform="translate(1.5435 1.63477) rotate(-68.79) scale(14.2439 14.2439)">
<stop offset="0.17" stop-color="#EA8928"/>
<stop offset="0.47" stop-color="#EAA628"/>
<stop offset="0.93" stop-color="#EAA628"/>
</radialGradient>
<radialGradient id="paint7_radial_54_4837" cx="0" cy="0" r="1" gradientUnits="userSpaceOnUse" gradientTransform="translate(10.6489 7.63004) rotate(59.01) scale(14.2439 14.2439)">
<stop offset="0.17" stop-color="#EA8928"/>
<stop offset="0.47" stop-color="#EAA628"/>
<stop offset="0.93" stop-color="#EAA628"/>
</radialGradient>
<radialGradient id="paint8_radial_54_4837" cx="0" cy="0" r="1" gradientUnits="userSpaceOnUse" gradientTransform="translate(-0.108953 4.92972) rotate(-74.73) scale(14.2439 14.2439)">
<stop offset="0.17" stop-color="#EA8928"/>
<stop offset="0.47" stop-color="#EAA628"/>
<stop offset="0.93" stop-color="#EAA628"/>
</radialGradient>
<radialGradient id="paint9_radial_54_4837" cx="0" cy="0" r="1" gradientUnits="userSpaceOnUse" gradientTransform="translate(9.58203 9.95995) rotate(53.06) scale(14.2439 14.2439)">
<stop offset="0.17" stop-color="#EA8928"/>
<stop offset="0.47" stop-color="#EAA628"/>
<stop offset="0.93" stop-color="#EAA628"/>
</radialGradient>
<radialGradient id="paint10_radial_54_4837" cx="0" cy="0" r="1" gradientUnits="userSpaceOnUse" gradientTransform="translate(-1.6273 9.59446) rotate(-91.14) scale(14.2439)">
<stop offset="0.17" stop-color="#EA8928"/>
<stop offset="0.47" stop-color="#EAA628"/>
<stop offset="0.93" stop-color="#EAA628"/>
</radialGradient>
<radialGradient id="paint11_radial_54_4837" cx="0" cy="0" r="1" gradientUnits="userSpaceOnUse" gradientTransform="translate(9.0859 11.6871) rotate(36.66) scale(14.2439)">
<stop offset="0.17" stop-color="#EA8928"/>
<stop offset="0.47" stop-color="#EAA628"/>
<stop offset="0.93" stop-color="#EAA628"/>
</radialGradient>
<radialGradient id="paint12_radial_54_4837" cx="0" cy="0" r="1" gradientUnits="userSpaceOnUse" gradientTransform="translate(-1.88595 15.1881) rotate(-113.07) scale(14.2439 14.2439)">
<stop offset="0.17" stop-color="#EA8928"/>
<stop offset="0.47" stop-color="#EAA628"/>
<stop offset="0.93" stop-color="#EAA628"/>
</radialGradient>
<radialGradient id="paint13_radial_54_4837" cx="0" cy="0" r="1" gradientUnits="userSpaceOnUse" gradientTransform="translate(8.8412 13.1338) rotate(14.73) scale(14.2439 14.2439)">
<stop offset="0.17" stop-color="#EA8928"/>
<stop offset="0.47" stop-color="#EAA628"/>
<stop offset="0.93" stop-color="#EAA628"/>
</radialGradient>
<radialGradient id="paint14_radial_54_4837" cx="0" cy="0" r="1" gradientUnits="userSpaceOnUse" gradientTransform="translate(-0.575351 19.7342) rotate(-126.61) scale(14.2439 14.2439)">
<stop offset="0.17" stop-color="#EA8928"/>
<stop offset="0.47" stop-color="#EAA628"/>
<stop offset="0.93" stop-color="#EAA628"/>
</radialGradient>
<radialGradient id="paint15_radial_54_4837" cx="0" cy="0" r="1" gradientUnits="userSpaceOnUse" gradientTransform="translate(9.36962 15.2275) rotate(1.19) scale(14.2439 14.2439)">
<stop offset="0.17" stop-color="#EA8928"/>
<stop offset="0.47" stop-color="#EAA628"/>
<stop offset="0.93" stop-color="#EAA628"/>
</radialGradient>
</defs>
</svg>
