<svg width="28" height="26" viewBox="0 0 28 26" fill="none" xmlns="http://www.w3.org/2000/svg">
<g id="Group">
<g id="Group_2">
<path id="Vector" d="M13.1808 0.0725634C12.9177 0.141801 12.6884 0.186993 12.4502 0.332677C11.4338 0.95426 11.579 2.13077 11.579 3.15194V9.32706C11.579 10.2999 11.3098 11.6642 12.051 12.4317C12.5687 12.9679 13.2007 12.9493 13.8904 12.9493H25.3437C25.8017 12.9493 26.2693 12.9919 26.7128 12.8631C27.8135 12.5433 28 11.5312 28 10.5345C28 8.22516 27.931 5.88707 27.931 3.56592C27.931 2.68584 28.1925 1.39642 27.5281 0.702702C26.6041 -0.261927 25.0826 0.0471395 23.8603 0.0471395H14.3044C13.9509 0.0471395 13.5237 -0.0176484 13.1808 0.0725634ZM13.6249 0.89237C13.9527 0.81782 14.3483 0.875087 14.6838 0.875087H25.6541C25.9988 0.875087 26.4349 0.844625 26.7218 1.07576C27.3089 1.54873 27.258 2.55965 26.7464 3.07129C26.2793 3.53839 25.6198 3.90628 25.0761 4.2813C24.0919 4.96015 23.1177 5.66328 22.1524 6.36915C21.5648 6.79885 20.8653 7.55246 20.1277 7.69507C19.2355 7.86759 18.716 7.38414 18.0217 6.90314C16.7886 6.04883 15.6026 5.11639 14.3908 4.23028C13.8293 3.81968 13.0815 3.44701 12.6574 2.8841C12.2052 2.28384 12.2357 1.38614 12.9599 1.0078C13.1546 0.906066 13.4119 0.94084 13.6249 0.89237ZM5.38432 2.07344C4.74774 2.28964 4.67998 2.27937 4.09941 2.60497C3.61135 2.87869 3.39999 3.0648 2.93749 3.38453C2.67852 3.56356 2.41489 3.73576 2.15494 3.91335C1.88815 4.0956 1.61791 4.2731 1.35728 4.46406C1.22851 4.5584 1.1056 4.66097 0.987671 4.76854C0.871593 4.87442 0.758715 4.98457 0.656153 5.1036C0.444273 5.34948 0.283308 5.59595 0.163205 5.8989C0.0564981 6.16807 0.0154428 6.44078 0.00269036 6.72808C-0.00356609 6.86903 0.0020033 7.01042 0.0100455 7.15128C0.0180333 7.29119 0.0301501 7.43109 0.0507415 7.5697C0.227216 8.75762 0.318432 9.35399 0.65228 10.5104C0.938578 11.5021 1.29976 12.458 1.72331 13.3988C1.93502 13.8691 2.16344 14.332 2.4036 14.7884C2.64436 15.246 2.89984 15.696 3.16546 16.1396C3.69624 17.026 4.27802 17.8871 4.88899 18.7199C5.48023 19.5259 6.15368 20.368 6.80418 21.1271C7.08805 21.4584 7.37779 21.7848 7.67652 22.1028C7.97533 22.4208 8.28084 22.7328 8.59625 23.0343C8.91156 23.3358 9.23452 23.6297 9.5679 23.911C9.90147 24.1925 10.2443 24.4635 10.596 24.722C10.8031 24.8742 11.0222 25.0097 11.2426 25.1419C11.3538 25.2086 11.4712 25.2648 11.5895 25.318C11.707 25.3707 11.8267 25.4192 11.9492 25.4592C12.0703 25.4988 12.1938 25.5327 12.3191 25.5564C12.5708 25.6039 12.8257 25.6178 13.0802 25.5821C13.2112 25.5637 13.3417 25.5354 13.4668 25.4922C13.806 25.3751 14.1391 25.1998 14.431 24.9915C14.7271 24.7803 15.0054 24.5452 15.2966 24.3273C15.5598 24.1304 15.8306 23.9437 16.0941 23.7472C16.3682 23.5428 16.6456 23.3424 16.9092 23.1247C17.0385 23.0179 17.1586 22.8996 17.271 22.7751C17.4904 22.532 17.6814 22.2642 17.7977 21.9549C17.8567 21.7977 17.8954 21.6324 17.9206 21.4663C17.9628 21.189 17.9456 20.8683 17.8892 20.5936C17.8419 20.363 17.7282 20.0455 17.6113 19.8402C17.228 19.1667 17.1155 19.0888 16.6591 18.4519C16.4711 18.1895 16.0898 17.6011 15.8274 17.3001C15.7247 17.1824 15.6153 17.07 15.4994 16.9652C15.3527 16.8325 15.153 16.7087 14.9741 16.6256C14.5967 16.4501 14.1701 16.3771 13.7559 16.4209C13.559 16.4417 13.3348 16.4943 13.153 16.5741C13.0246 16.6305 12.9034 16.7018 12.7804 16.769C12.6525 16.8388 12.532 16.9225 12.4004 16.9849C12.2048 17.0777 12.0154 17.1609 11.7988 17.1628C11.6258 17.1643 11.4643 17.1163 11.3055 17.0502C11.1279 16.9763 10.9685 16.8722 10.8193 16.7521C10.5896 16.5673 10.4113 16.3534 10.2191 16.1257C10.0955 15.9792 9.97728 15.8283 9.86048 15.6765C9.51073 15.2217 9.15822 14.7688 8.81952 14.3058C8.48056 13.8423 8.15543 13.3689 7.82783 12.8974C7.57263 12.5301 7.27485 12.115 7.05965 11.7075C6.94656 11.4934 6.81848 11.2438 6.77281 10.9978C6.75505 10.9022 6.75452 10.8041 6.74932 10.707C6.74121 10.5551 6.73073 10.3154 6.77606 10.1659C6.80965 10.0551 6.86073 9.94927 6.91987 9.84976C7.03639 9.6537 7.19765 9.49427 7.3722 9.35078C7.6305 9.13845 7.98478 8.94296 8.2513 8.77501C8.45799 8.64476 8.62179 8.5413 8.80685 8.38147C8.91671 8.28658 9.10059 8.09588 9.17746 7.96943C9.26916 7.81861 9.36042 7.66536 9.42336 7.50045C9.48664 7.33464 9.5283 7.15984 9.55349 6.98416C9.57973 6.8012 9.58783 6.61467 9.57684 6.43017C9.55943 6.13807 9.45977 5.8418 9.31779 5.58803C9.17289 5.32903 9.00229 5.08527 8.84421 4.8341C8.72509 4.64484 8.23785 3.8581 8.0289 3.56283C7.932 3.4259 7.83324 3.28994 7.72577 3.16115C7.62027 3.03472 7.51058 2.91106 7.39078 2.7981C7.15233 2.57327 6.89078 2.38163 6.58645 2.25418C6.42946 2.18843 6.26309 2.14656 6.0977 2.10642C5.96603 2.07446 5.72262 2.03495 5.56442 2.04554C5.5038 2.04959 5.44435 2.06414 5.38432 2.07344ZM5.20779 2.96272C5.29754 2.94577 5.38632 2.92246 5.47704 2.91187C5.63832 2.89306 5.79778 2.89799 5.95694 2.93017C6.02964 2.94486 6.10322 2.96118 6.17065 2.99207C6.30308 3.05273 6.43497 3.11821 6.5532 3.2033C6.67512 3.29103 6.78343 3.39733 6.88612 3.50694C7.10286 3.73829 7.27877 4.01234 7.45194 4.27569C7.62468 4.53839 7.78797 4.80737 7.96582 5.06664C8.16199 5.35262 8.34799 5.52909 8.53013 5.82738C8.61246 5.96221 8.68313 6.10447 8.74473 6.24994C8.79377 6.36577 8.82829 6.57903 8.81788 6.70429C8.80794 6.824 8.79084 6.9445 8.7548 7.05908C8.68692 7.27482 8.56134 7.45208 8.40648 7.61302C8.32905 7.69349 8.24475 7.76802 8.15456 7.83387C7.96823 7.96992 7.77015 8.08911 7.5785 8.21757C7.39101 8.34324 7.19634 8.459 7.01717 8.59626C6.89109 8.69284 6.77451 8.80217 6.6651 8.9173C6.46338 9.12955 6.29421 9.36818 6.16999 9.63384C6.1111 9.7598 6.06295 9.89136 6.02659 10.0256C5.95213 10.3004 5.92824 10.5828 5.9472 10.8665C5.9572 11.0162 5.97911 11.1654 6.01085 11.312C6.04459 11.4678 6.08849 11.6218 6.14316 11.7716C6.19894 11.9243 6.26697 12.0728 6.34143 12.2174C6.53302 12.5894 6.94257 13.1645 7.13829 13.449C7.51185 13.9921 7.88111 14.5383 8.26482 15.0743C8.64199 15.6012 9.07479 16.1259 9.49501 16.6185C9.70565 16.8653 10.0383 17.241 10.2932 17.4478C10.4384 17.5656 10.5964 17.6675 10.7569 17.7633C10.8395 17.8126 10.9299 17.8483 11.02 17.8818C11.2055 17.9507 11.4043 17.9983 11.6018 18.0144C11.7958 18.0303 11.988 18.0173 12.1775 17.972C12.274 17.9489 12.3698 17.9201 12.4605 17.88C12.6505 17.7959 12.8309 17.6917 13.0175 17.6003C13.2032 17.5092 13.386 17.4112 13.5775 17.3327C13.6688 17.2953 13.7655 17.2697 13.8629 17.2538C14.0661 17.2205 14.2589 17.2296 14.4529 17.3061C14.699 17.4032 14.8903 17.5672 15.0716 17.7559C15.354 18.0496 15.5869 18.4532 15.8132 18.7711C16.1841 19.2921 16.4305 19.5831 16.7959 20.1082C16.9016 20.26 17.0228 20.4786 17.0841 20.6538C17.1178 20.75 17.146 20.8493 17.159 20.9505C17.172 21.0526 17.1758 21.1574 17.1617 21.2593C17.1456 21.3747 17.1134 21.4885 17.0692 21.5963C16.9817 21.8095 16.8337 21.9939 16.6833 22.1643C16.607 22.2507 16.5269 22.334 16.4432 22.4132C16.3169 22.5329 16.1882 22.6502 16.0538 22.7606C15.9175 22.8727 15.7749 22.977 15.6318 23.0803C15.3469 23.2859 15.0539 23.4802 14.7699 23.6871C14.4461 23.9229 13.9847 24.3185 13.5921 24.5271C13.4501 24.6026 13.3016 24.6669 13.1501 24.7209C13.0726 24.7484 12.9903 24.7625 12.9084 24.7705C12.8278 24.7784 12.7461 24.7763 12.6655 24.7684C12.5839 24.7605 12.5031 24.7439 12.4238 24.7233C12.1783 24.6593 11.9527 24.5408 11.7337 24.4152C11.5941 24.3352 11.4591 24.2468 11.3292 24.1521C10.9999 23.9119 10.6708 23.6707 10.3567 23.411C9.72802 22.891 9.14477 22.3121 8.58037 21.7244C8.29788 21.4303 8.02075 21.1309 7.74859 20.8272C7.41497 20.4549 7.08359 20.0803 6.76326 19.6965C6.11202 18.9162 5.48728 18.1032 4.91019 17.2664C4.6187 16.8437 4.33655 16.4143 4.06754 15.977C3.53269 15.1075 3.03857 14.203 2.61283 13.2747C2.15734 12.2816 1.86334 11.4869 1.54922 10.4414C1.36643 9.83303 1.1416 8.8154 1.0054 8.19539C0.937285 7.88532 0.85574 7.51594 0.840262 7.19689C0.832219 7.03109 0.831112 6.86351 0.854083 6.69912C0.877674 6.53029 0.921996 6.36385 0.979111 6.20324C1.05744 5.98299 1.21468 5.76163 1.36924 5.58976C1.52029 5.42178 1.74749 5.23097 1.93138 5.10148C2.13896 4.95531 2.35485 4.82129 2.56503 4.67887C2.76765 4.54157 2.97267 4.40752 3.16972 4.26236C3.32944 4.14471 3.47827 4.01292 3.63468 3.89091C3.79929 3.76253 3.96107 3.63004 4.13273 3.51125C4.3028 3.39355 4.47922 3.28486 4.65878 3.18223C4.86141 3.0664 4.98905 3.03566 5.20779 2.96272ZM12.3725 3.8419H12.4415C13.0901 4.38828 13.8054 4.82837 14.485 5.33421C15.4806 6.07519 16.4783 6.81244 17.4956 7.5241C18.3352 8.11149 19.0976 8.76716 20.1967 8.51629C21.0045 8.3319 21.7549 7.67961 22.4032 7.19709C23.4379 6.42696 24.5275 5.73235 25.5681 4.97143C26.0077 4.64991 26.5485 4.07176 27.0686 3.9109H27.1031C27.1031 5.79241 27.1721 7.65812 27.1721 9.53405C27.1721 10.1358 27.3744 11.1708 26.9714 11.6711C26.5012 12.2548 25.7891 12.1076 25.1357 12.0554C24.6818 12.0191 24.2122 12.0524 23.7568 12.0524H15.5118C15.0408 12.0524 14.5683 12.0413 14.0975 12.0529C13.488 12.0679 12.9761 12.1452 12.5387 11.6021C12.1658 11.1392 12.4693 10.3304 12.401 9.77757C12.2332 8.42063 12.342 6.99418 12.4057 5.63545C12.4335 5.04167 12.3495 4.45921 12.338 3.8764L12.3725 3.8419ZM5.18181 5.18476C5.00253 5.27173 4.99587 5.52288 5.05121 5.68892C5.15877 6.01175 5.64126 6.6245 6.03998 6.43179C6.32266 6.29515 6.22775 6.02668 6.12147 5.81518C5.95446 5.48283 5.63322 4.96581 5.18181 5.18476ZM13.5302 19.3978C12.8846 19.7037 13.8219 20.9135 14.3886 20.6449C14.9872 20.3613 14.0345 19.1589 13.5302 19.3978Z" fill="#8D8D8D"/>
</g>
</g>
</svg>
